<svg xmlns="http://www.w3.org/2000/svg"  viewBox="0 0 64 64" width="512px" height="512px"><linearGradient id="ZpM7xq5PF3OX5aJrV7SIsa" x1="32" x2="32" y1="6" y2="58" gradientUnits="userSpaceOnUse" spreadMethod="reflect"><stop offset="0" stop-color="#1a6dff"/><stop offset="1" stop-color="#c822ff"/></linearGradient><path fill="url(#ZpM7xq5PF3OX5aJrV7SIsa)" d="M32,6C17.66,6,6,17.66,6,32c0,14.34,11.66,26,26,26s26-11.66,26-26C58,17.66,46.34,6,32,6z M32,8c4.58,0,8.87,1.29,12.52,3.53C46.79,14.92,48,19.17,48,23.87c0,1.82-0.21,3.59-0.59,5.29C43.19,19.98,34.09,14,23.85,14 c-3.31,0-6.57,0.65-9.61,1.88C18.63,11.04,24.97,8,32,8z M46.5,32.25c-2.45,6.61-7.72,11.86-14.33,14.29 C22.49,43.17,16,34.08,16,23.87c0-2.33,0.35-4.64,1.02-6.86c2.2-0.66,4.5-1.01,6.83-1.01C34.11,16,43.15,22.51,46.5,32.25z M11.58,44.59C9.31,40.92,8,36.61,8,32s1.31-8.91,3.57-12.57c1.01-0.61,2.06-1.14,3.14-1.59C14.24,19.81,14,21.83,14,23.87 c0,10.18,5.97,19.32,15.09,23.56C27.42,47.8,25.69,48,23.91,48C19.51,48,15.25,46.81,11.58,44.59z M32,56 c-7.02,0-13.35-3.03-17.74-7.86c3.03,1.22,6.3,1.86,9.65,1.86C38.3,50,50,38.28,50,23.87c0-3.43-0.61-6.64-1.76-9.52 C53.01,18.74,56,25.03,56,32C56,45.23,45.23,56,32,56z"/><linearGradient id="ZpM7xq5PF3OX5aJrV7SIsb" x1="18.545" x2="18.545" y1="17.84" y2="48" gradientUnits="userSpaceOnUse" spreadMethod="reflect"><stop offset="0" stop-color="#6dc7ff"/><stop offset="1" stop-color="#e6abff"/></linearGradient><path fill="url(#ZpM7xq5PF3OX5aJrV7SIsb)" d="M29.09,47.43C27.42,47.8,25.69,48,23.91,48c-4.4,0-8.66-1.19-12.33-3.41 C9.31,40.92,8,36.61,8,32s1.31-8.91,3.57-12.57c1.01-0.61,2.06-1.14,3.14-1.59C14.24,19.81,14,21.83,14,23.87 C14,34.05,19.97,43.19,29.09,47.43z"/></svg>