<?xml version="1.0" encoding="utf-8"?>
<!-- Svg Vector Icons : http://www.onlinewebfonts.com/icon -->
<!DOCTYPE svg PUBLIC "-//W3C//DTD SVG 1.1//EN" "http://www.w3.org/Graphics/SVG/1.1/DTD/svg11.dtd">
<svg version="1.1" xmlns="http://www.w3.org/2000/svg" xmlns:xlink="http://www.w3.org/1999/xlink" x="0px" y="0px" viewBox="0 0 1000 1000" enable-background="new 0 0 1000 1000" xml:space="preserve">
<metadata> Svg Vector Icons : http://www.onlinewebfonts.com/icon </metadata>
<g><g transform="matrix(1 0 0 -1 0 960)"><path d="M663.3,133.3V616l-245,245v68.6c0,5.4,2,10.2,6.1,14.3c4.1,4.1,8.8,6.1,14.3,6.1H745V623.3h245V153.8c0-5.4-2-10.2-6.1-14.3c-4.1-4.1-8.8-6.1-14.3-6.1H663.3z M826.7,705v163.3L990,705H826.7z M30.4-30c-5.4,0-10.2,2-14.3,6.1S10-15,10-9.6v775.8c0,5.4,2,10.2,6.1,14.3c4.1,4.1,8.8,6.1,14.3,6.1h306.2V460h245V-9.6c0-5.4-2-10.2-6.1-14.3c-4.1-4.1-8.8-6.1-14.3-6.1H30.4z M418.3,541.7V705l163.3-163.3H418.3z"/></g></g>
</svg>