<?xml version="1.0" encoding="iso-8859-1"?>
<!-- Generator: Adobe Illustrator 19.0.0, SVG Export Plug-In . SVG Version: 6.00 Build 0)  -->
<svg version="1.1" id="Layer_1" xmlns="http://www.w3.org/2000/svg" xmlns:xlink="http://www.w3.org/1999/xlink" x="0px" y="0px"
	 viewBox="0 0 512 512" style="enable-background:new 0 0 512 512;" xml:space="preserve">
<polygon style="fill:#C1E8E6;" points="0,33.391 0,478.609 66.783,478.609 89.043,256 66.783,33.391 "/>
<polygon style="fill:#77C0BC;" points="66.783,33.391 66.783,478.609 289.391,478.609 311.652,256 289.391,33.391 "/>
<rect x="289.391" y="33.391" style="fill:#55A7A2;" width="222.609" height="445.217"/>
<path style="fill:#C1E8E6;" d="M133.565,256l77.913,22.261L289.391,256l22.261-77.913l-22.261-77.913
	C203.331,100.174,133.565,169.939,133.565,256z"/>
<g>
	<path style="fill:#98D9D5;" d="M289.391,100.174V256l77.353-32.831l32.831-77.353C371.378,117.615,332.422,100.174,289.391,100.174
		z"/>
	<path style="fill:#98D9D5;" d="M289.391,256l-22.261,77.913l22.261,77.913c86.061,0,155.826-69.766,155.826-155.826l-77.913-22.261
		L289.391,256z"/>
</g>
<path style="fill:#C1E8E6;" d="M179.206,366.186c28.199,28.199,67.155,45.64,110.186,45.64V256l-77.353,32.831L179.206,366.186z"/>
<path style="fill:#FFFFFF;" d="M133.565,256c0,43.03,17.441,81.987,45.64,110.186L289.391,256H133.565z"/>
<path style="fill:#C1E8E6;" d="M445.217,256c0-43.03-17.441-81.987-45.64-110.186L289.391,256H445.217z"/>
<path style="fill:#98D9D5;" d="M239.304,256c0,27.662,22.424,50.087,50.087,50.087L311.652,256l-22.261-50.087
	C261.729,205.913,239.304,228.338,239.304,256z"/>
<path style="fill:#77C0BC;" d="M289.391,205.913v100.174c27.662,0,50.087-22.424,50.087-50.087S317.054,205.913,289.391,205.913z"/>
<g>
</g>
<g>
</g>
<g>
</g>
<g>
</g>
<g>
</g>
<g>
</g>
<g>
</g>
<g>
</g>
<g>
</g>
<g>
</g>
<g>
</g>
<g>
</g>
<g>
</g>
<g>
</g>
<g>
</g>
</svg>
