<?xml version="1.0" encoding="iso-8859-1"?>
<!-- Generator: Adobe Illustrator 19.0.0, SVG Export Plug-In . SVG Version: 6.00 Build 0)  -->
<svg version="1.1" id="Layer_1" xmlns="http://www.w3.org/2000/svg" xmlns:xlink="http://www.w3.org/1999/xlink" x="0px" y="0px"
	 viewBox="0 0 512 512" style="enable-background:new 0 0 512 512;" xml:space="preserve">
<path style="fill:#FA690E;" d="M504.449,194.104C476.765,82.627,376.039,0,256,0C114.615,0,0,114.615,0,256
	c0,113.382,73.718,209.534,175.833,243.179L504.449,194.104z"/>
<path style="fill:#F94C10;" d="M512,256c0-21.345-2.629-42.073-7.551-61.896l-92.417-92.416L135.266,164.65l176.827,176.827
	L55.648,378.994L175.834,499.18C201.052,507.489,227.998,512,256,512C397.384,512,512,397.384,512,256z"/>
<path style="fill:#FFE376;" d="M233.734,228.732l200.348-22.261h22.261c0,61.251-29.106,115.679-74.24,150.261l-148.369,11.13
	L233.734,228.732L233.734,228.732z"/>
<g>
	<path style="fill:#FFF3AD;" d="M255.994,239.862v128l-126.108-11.13c-45.134-34.582-74.24-89.01-74.24-150.261h22.261
		L255.994,239.862z"/>
	<path style="fill:#FFF3AD;" d="M255.994,206.471l-33.391,64l33.391,64h118.303c38.086-31.85,59.784-78.094,59.784-128H255.994z"/>
</g>
<path style="fill:#FFFFFF;" d="M77.907,206.471c0,49.906,21.698,96.15,59.784,128h118.303v-128H77.907z"/>
<polygon style="fill:#FFE376;" points="422.951,378.992 400.69,417.949 255.994,417.949 234.29,367.862 "/>
<g>
	<polygon style="fill:#FFF3AD;" points="111.299,417.949 255.994,417.949 255.994,367.862 89.038,378.992 	"/>
	<polygon style="fill:#FFF3AD;" points="456.342,356.732 456.342,378.992 255.994,378.992 245.003,367.862 255.994,356.732 	"/>
</g>
<rect x="55.647" y="356.73" style="fill:#FFFFFF;" width="200.348" height="22.261"/>
<path style="fill:#92CCFF;" d="M115.706,117.426l142.069-11.13l160.779,11.13c0,12.299-9.973,22.261-22.261,22.261H257.764
	l-30.776,27.537c-11.809,10.552-27.403,16.985-44.499,16.985C145.603,184.209,115.706,154.312,115.706,117.426z"/>
<path style="fill:#C9E5FF;" d="M418.554,117.426H115.706c0-36.886,29.896-66.783,66.783-66.783c17.096,0,32.69,6.433,44.499,17.007
	c0-0.011,30.787,27.514,30.787,27.514h138.518C408.582,95.165,418.554,105.138,418.554,117.426z"/>
<path style="fill:#5CB2FE;" d="M227.005,117.427l-44.522-22.261l-44.522,22.261c0,24.588,19.933,44.522,44.522,44.522
	S227.005,142.017,227.005,117.427z"/>
<path style="fill:#92CCFF;" d="M182.483,72.905c-24.588,0-44.522,19.934-44.522,44.522h89.043
	C227.005,92.839,207.073,72.905,182.483,72.905z"/>
<g>
	<rect x="355.729" y="236.633" style="fill:#FFFFFF;" width="23.151" height="23.151"/>
	<rect x="311.207" y="281.155" style="fill:#FFFFFF;" width="23.151" height="23.151"/>
</g>
<g>
</g>
<g>
</g>
<g>
</g>
<g>
</g>
<g>
</g>
<g>
</g>
<g>
</g>
<g>
</g>
<g>
</g>
<g>
</g>
<g>
</g>
<g>
</g>
<g>
</g>
<g>
</g>
<g>
</g>
</svg>
