<?xml version="1.0" encoding="UTF-8" standalone="no"?>
<svg
   id="svg"
   width="400"
   height="400"
   viewBox="0, 0, 400,400"
   version="1.1"
   sodipodi:docname="authelia.svg"
   inkscape:version="1.2.1 (9c6d41e410, 2022-07-14)"
   xmlns:inkscape="http://www.inkscape.org/namespaces/inkscape"
   xmlns:sodipodi="http://sodipodi.sourceforge.net/DTD/sodipodi-0.dtd"
   xmlns="http://www.w3.org/2000/svg"
   xmlns:svg="http://www.w3.org/2000/svg">
  <defs
     id="defs11" />
  <sodipodi:namedview
     id="namedview9"
     pagecolor="#ffffff"
     bordercolor="#000000"
     borderopacity="0.25"
     inkscape:showpageshadow="2"
     inkscape:pageopacity="0.0"
     inkscape:pagecheckerboard="0"
     inkscape:deskcolor="#d1d1d1"
     showgrid="false"
     inkscape:zoom="2.035"
     inkscape:cx="200.2457"
     inkscape:cy="200.2457"
     inkscape:window-width="1920"
     inkscape:window-height="1001"
     inkscape:window-x="-9"
     inkscape:window-y="-9"
     inkscape:window-maximized="1"
     inkscape:current-layer="svg" />
  <g
     id="svgg">
    <defs
       id="defs255">
      <linearGradient
         id="linear-gradient"
         x1="123.13709"
         y1="77.882858"
         x2="324.21939"
         y2="385.3566"
         gradientUnits="userSpaceOnUse">
        <stop
           offset="0"
           stop-color="#aa5cc3"
           id="stop250" />
        <stop
           offset="1"
           stop-color="#00a4dc"
           id="stop252" />
      </linearGradient>
    </defs>
    <path
       id="path0"
       d="M154.588 6.534 C 20.486 35.729,-42.289 194.659,34.765 309.892 C 52.658 336.650,64.199 345.319,74.125 339.455 C 83.453 333.945,82.986 325.036,72.755 313.326 C -19.585 207.627,41.615 48.398,181.493 30.415 C 196.456 28.491,204.153 14.638,194.570 6.878 C 191.340 4.263,166.021 4.045,154.588 6.534 M243.911 65.104 C 235.041 73.974,238.995 82.760,255.860 91.652 C 285.081 107.058,306.041 132.677,316.361 165.601 C 322.586 185.460,333.666 190.500,343.544 177.965 C 352.357 166.782,330.340 118.779,304.586 93.026 C 278.644 67.083,253.501 55.513,243.911 65.104 M127.411 67.930 C 39.972 113.925,23.843 238.069,96.350 307.010 C 167.458 374.622,286.577 355.208,331.242 268.727 C 337.761 256.106,338.604 250.274,334.675 244.980 C 327.098 234.774,316.057 237.287,309.244 250.770 C 253.234 361.628,90.505 332.174,78.933 209.085 C 74.572 162.700,97.310 119.125,139.442 93.127 C 161.069 79.781,149.790 56.158,127.411 67.930 M176.119 102.632 C 113.689 119.081,82.900 185.408,110.968 242.985 C 151.109 325.326,272.706 312.790,296.278 223.881 C 315.216 152.448,247.270 83.886,176.119 102.632 M362.339 123.392 C 356.289 129.442,356.145 131.984,361.017 146.653 C 393.356 244.003,328.097 350.391,226.866 365.352 C 205.159 368.560,199.647 372.230,201.002 382.570 C 202.502 394.018,214.890 396.845,240.676 391.626 C 335.861 372.358,404.491 281.577,396.491 185.519 C 392.111 132.918,378.171 107.560,362.339 123.392 M213.582 137.670 C 228.288 147.402,229.816 167.324,216.740 178.835 L 211.570 183.385 219.258 214.379 C 227.937 249.369,227.990 250.762,220.911 257.157 C 208.615 268.266,183.360 266.413,175.584 253.831 C 172.171 248.309,172.235 247.806,180.677 213.602 L 188.220 183.040 183.644 179.199 C 159.448 158.885,187.286 120.268,213.582 137.670 "
       style="fill:url(#linear-gradient)"
       stroke="none"
       fill="#000000"
       fill-rule="evenodd" />
  </g>
</svg>
