<?xml version="1.0" encoding="UTF-8" standalone="no"?>
<svg
   id="svg"
   width="512"
   height="512"
   viewBox="0, 0, 400,368.12749003984067"
   version="1.1"
   sodipodi:docname="beets.svg"
   inkscape:version="1.2.1 (9c6d41e410, 2022-07-14)"
   xmlns:inkscape="http://www.inkscape.org/namespaces/inkscape"
   xmlns:sodipodi="http://sodipodi.sourceforge.net/DTD/sodipodi-0.dtd"
   xmlns="http://www.w3.org/2000/svg"
   xmlns:svg="http://www.w3.org/2000/svg">
  <sodipodi:namedview
     id="namedview9"
     pagecolor="#ffffff"
     bordercolor="#000000"
     borderopacity="0.25"
     inkscape:showpageshadow="2"
     inkscape:pageopacity="0.0"
     inkscape:pagecheckerboard="0"
     inkscape:deskcolor="#d1d1d1"
     showgrid="false"
     inkscape:zoom="1.515625"
     inkscape:cx="255.6701"
     inkscape:cy="255.6701"
     inkscape:window-width="1920"
     inkscape:window-height="991"
     inkscape:window-x="-9"
     inkscape:window-y="-9"
     inkscape:window-maximized="1"
     inkscape:current-layer="svg" />
  <defs
     id="defs255">
    <linearGradient
       id="linear-gradient"
       x1="216.83809"
       y1="52.873459"
       x2="373.1568"
       y2="351.2178"
       gradientUnits="userSpaceOnUse">
      <stop
         offset="0"
         stop-color="#aa5cc3"
         id="stop250" />
      <stop
         offset="1"
         stop-color="#00a4dc"
         id="stop252" />
    </linearGradient>
  </defs>
  <g
     id="svgg">
    <path
       id="path0"
       d="M139.720 35.845 C 111.471 43.250,87.024 70.339,68.877 114.343 L 65.591 122.311 60.303 122.841 C 19.937 126.887,-2.030 179.030,14.872 230.677 C 26.668 266.726,60.898 291.684,90.487 285.812 C 93.621 285.190,93.898 285.317,99.315 289.854 C 102.391 292.430,107.748 296.283,111.219 298.414 C 114.690 300.546,117.690 302.413,117.885 302.563 C 118.081 302.713,115.717 305.425,112.633 308.589 C 102.088 319.410,101.518 321.202,106.972 326.404 C 112.846 332.005,117.757 334.422,127.689 336.601 C 128.894 336.866,129.880 337.469,129.880 337.943 C 129.880 344.441,134.026 345.983,152.409 346.324 C 164.010 346.539,167.778 346.870,169.194 347.798 C 175.156 351.704,196.361 353.976,211.807 352.362 C 220.247 351.480,223.649 349.514,226.688 343.762 L 228.338 340.637 237.078 340.892 C 254.078 341.386,268.526 338.909,268.526 335.499 C 268.526 334.556,269.047 333.865,269.757 333.865 C 270.435 333.865,271.796 333.057,272.783 332.070 C 274.164 330.689,275.118 330.392,276.930 330.781 C 287.157 332.974,297.319 330.762,300.427 325.665 C 303.396 320.796,301.304 311.065,296.852 309.036 C 294.060 307.764,294.098 307.695,300.467 302.390 C 307.005 296.943,317.236 286.271,320.172 281.834 C 321.784 279.398,322.535 278.882,323.848 279.306 C 339.746 284.440,360.664 273.216,369.710 254.697 C 389.808 213.550,376.013 151.081,343.328 135.229 L 338.051 132.669 337.480 128.287 C 332.978 93.727,312.763 63.918,284.254 49.802 C 270.304 42.894,248.870 40.760,236.192 45.016 C 230.342 46.979,230.252 46.985,228.733 45.466 C 222.673 39.406,211.282 42.745,203.382 52.896 L 201.594 55.195 199.803 52.896 C 188.835 38.815,159.810 30.578,139.720 35.845 M222.709 46.215 C 222.438 46.653,221.728 47.012,221.131 47.012 C 216.056 47.012,202.323 75.997,202.419 86.505 L 202.448 89.641 204.469 87.251 C 205.580 85.936,207.413 83.439,208.542 81.701 C 210.493 78.699,210.627 78.629,211.248 80.307 C 212.216 82.923,213.219 82.570,221.554 76.686 C 230.620 70.287,237.454 66.707,239.915 67.068 C 241.905 67.360,243.034 69.323,241.212 69.323 C 237.065 69.323,214.368 94.368,216.543 96.543 C 217.569 97.569,223.613 93.636,224.332 91.475 C 224.580 90.731,225.571 89.885,226.535 89.597 C 227.498 89.308,229.904 88.053,231.880 86.807 C 233.856 85.562,237.083 84.327,239.051 84.063 L 242.629 83.584 238.340 85.196 C 230.776 88.040,227.939 90.637,223.307 98.960 C 220.131 104.667,220.129 104.727,223.201 103.139 C 224.567 102.433,226.446 102.054,227.376 102.297 C 228.439 102.575,230.109 102.023,231.865 100.814 L 234.661 98.889 246.215 102.295 C 262.818 107.190,267.628 109.878,262.697 111.505 C 260.284 112.302,259.344 112.052,252.438 108.781 C 244.089 104.826,241.010 104.103,243.303 106.636 C 244.028 107.438,244.622 108.489,244.622 108.973 C 244.622 109.456,245.787 110.683,247.211 111.699 L 249.801 113.546 240.637 114.030 C 211.800 115.556,175.506 109.811,155.997 100.635 C 147.125 96.462,147.144 96.334,156.870 94.489 C 167.613 92.451,175.373 92.751,177.750 95.295 C 180.535 98.276,184.200 100.130,183.527 98.217 C 183.256 97.444,182.219 95.916,181.224 94.821 C 178.993 92.365,168.924 77.324,168.924 76.447 C 168.924 74.653,163.354 70.010,161.795 70.505 C 159.758 71.151,159.619 69.668,161.615 68.600 C 163.694 67.487,168.861 70.081,181.166 78.417 C 193.210 86.575,192.901 86.594,195.142 77.559 C 198.444 64.245,207.177 50.361,214.530 46.737 C 217.411 45.317,223.505 44.928,222.709 46.215 M164.169 62.050 C 166.948 63.109,169.893 65.073,172.137 67.364 L 175.697 70.998 170.261 68.168 C 163.843 64.828,161.570 64.653,158.928 67.294 C 154.963 71.260,157.006 76.708,165.589 85.060 L 171.526 90.837 166.179 90.837 C 141.754 90.837,113.439 102.878,94.112 121.483 L 86.631 128.685 92.712 116.647 C 116.266 70.026,139.174 52.522,164.169 62.050 M265.729 67.337 C 284.551 73.978,307.927 101.042,317.760 127.579 L 319.417 132.050 316.083 133.046 C 314.249 133.594,311.381 134.738,309.710 135.589 L 306.671 137.136 299.690 130.520 C 284.057 115.705,265.604 104.640,248.266 99.684 C 237.874 96.714,238.366 97.084,241.739 94.773 C 249.432 89.502,248.696 81.597,240.469 81.117 L 236.349 80.876 239.666 78.689 C 243.193 76.362,245.420 72.948,245.685 69.460 C 246.016 65.107,256.316 64.016,265.729 67.337 M201.594 104.382 C 200.743 104.932,201.661 105.155,204.781 105.155 C 207.901 105.155,208.819 104.932,207.968 104.382 C 207.311 103.958,205.876 103.610,204.781 103.610 C 203.685 103.610,202.251 103.958,201.594 104.382 M34.847 138.845 C 30.294 144.535,25.637 151.625,24.248 154.980 L 22.929 158.167 27.648 153.673 C 35.763 145.945,42.745 143.071,45.853 146.179 C 48.932 149.258,48.415 151.558,43.863 155.029 C 37.450 159.920,30.958 170.627,29.825 178.183 C 29.017 183.565,29.786 183.935,32.728 179.582 C 35.331 175.732,41.454 169.823,44.569 168.156 C 46.199 167.283,47.012 169.628,47.012 175.200 C 47.012 179.648,50.158 193.010,54.070 205.179 C 54.915 207.809,56.329 213.388,57.212 217.578 C 60.773 234.486,62.501 234.663,63.353 218.208 C 63.978 206.131,64.365 205.187,67.320 208.520 C 69.575 211.062,80.943 232.266,81.728 235.394 C 83.301 241.659,84.806 235.550,84.239 225.206 C 83.574 213.096,79.673 201.346,72.541 189.980 C 71.379 188.128,78.132 172.731,83.795 164.323 L 86.589 160.174 88.262 161.960 C 94.163 168.256,98.776 179.123,100.468 190.720 C 102.554 205.012,103.335 225.691,102.064 232.990 C 100.465 242.171,87.694 271.334,83.710 274.900 C 82.486 275.996,80.912 278.015,80.213 279.388 C 78.457 282.833,75.261 283.303,67.357 281.282 C 14.534 267.772,-7.471 180.462,31.759 140.040 C 36.970 134.670,38.733 133.988,34.847 138.845 M161.355 194.444 C 168.805 194.901,176.557 195.482,178.583 195.734 L 182.265 196.194 182.679 200.757 C 184.287 218.498,206.243 221.443,210.947 204.549 C 212.365 199.454,211.527 199.788,219.181 201.271 C 224.046 202.214,219.856 213.670,211.978 220.964 C 192.097 239.370,141.979 222.851,138.903 196.878 L 138.439 192.961 143.124 193.288 C 145.701 193.467,153.904 193.988,161.355 194.444 M195.618 197.657 C 205.522 199.009,205.578 199.032,205.578 201.836 C 205.578 209.348,196.059 214.955,189.793 211.135 C 184.731 208.049,182.421 195.649,187.052 196.421 C 188.257 196.622,192.112 197.178,195.618 197.657 M282.940 213.898 C 287.000 230.021,311.554 229.503,311.554 213.294 C 311.554 211.014,312.586 210.755,317.320 211.847 L 319.501 212.351 316.552 218.267 C 307.115 237.196,284.659 243.638,263.430 233.506 C 253.794 228.907,250.919 225.315,248.934 215.389 L 248.444 212.937 255.098 212.052 C 264.737 210.771,266.532 210.627,274.690 210.486 L 282.049 210.359 282.940 213.898 M306.381 211.166 C 306.655 211.610,305.903 214.030,304.708 216.544 C 303.513 219.059,302.585 221.360,302.644 221.658 C 302.704 221.957,300.805 222.444,298.424 222.741 C 291.823 223.566,287.339 220.313,285.401 213.295 L 284.591 210.359 295.236 210.359 C 301.567 210.359,306.084 210.686,306.381 211.166 M153.386 304.693 C 160.663 309.394,160.842 310.207,155.096 312.464 L 151.299 313.955 147.562 311.360 C 145.506 309.933,143.226 308.406,142.495 307.968 C 132.117 301.748,131.970 300.969,141.235 301.323 C 148.226 301.589,148.852 301.763,153.386 304.693 M295.618 315.263 C 295.618 316.730,295.098 316.612,293.198 314.712 C 291.142 312.656,291.982 310.901,294.103 312.821 C 294.936 313.574,295.618 314.673,295.618 315.263 M210.676 321.475 C 225.483 325.615,225.825 325.831,222.714 329.078 C 219.719 332.205,220.471 332.400,208.240 325.323 C 193.524 316.807,193.592 316.700,210.676 321.475 "
       style="fill:url(#linear-gradient)"
       stroke="none"
       fill="#000000"
       fill-rule="evenodd" />
  </g>
</svg>
