<?xml version="1.0" encoding="UTF-8" standalone="no"?>
<svg
   width="64"
   height="64"
   viewBox="0 0 64 64"
   fill="none"
   version="1.1"
   id="svg10"
   sodipodi:docname="benotes.svg"
   inkscape:version="1.2.2 (b0a8486541, 2022-12-01)"
   xmlns:inkscape="http://www.inkscape.org/namespaces/inkscape"
   xmlns:sodipodi="http://sodipodi.sourceforge.net/DTD/sodipodi-0.dtd"
   xmlns="http://www.w3.org/2000/svg"
   xmlns:svg="http://www.w3.org/2000/svg"><sodipodi:namedview
   id="namedview12"
   pagecolor="#505050"
   bordercolor="#ffffff"
   borderopacity="1"
   inkscape:showpageshadow="0"
   inkscape:pageopacity="0"
   inkscape:pagecheckerboard="1"
   inkscape:deskcolor="#505050"
   showgrid="false"
   inkscape:zoom="12.71875"
   inkscape:cx="32"
   inkscape:cy="32.039312"
   inkscape:window-width="1920"
   inkscape:window-height="1001"
   inkscape:window-x="-9"
   inkscape:window-y="-9"
   inkscape:window-maximized="1"
   inkscape:current-layer="svg10" />
<defs
   id="defs255">
  <linearGradient
     id="linear-gradient"
     x1="27.233416"
     y1="14.662157"
     x2="52.277191"
     y2="61.674801"
     gradientUnits="userSpaceOnUse">
    <stop
       offset="0"
       stop-color="#aa5cc3"
       id="stop250" />
    <stop
       offset="1"
       stop-color="#00a4dc"
       id="stop252" />
  </linearGradient>
</defs>
<path
   d="M0 32C0 14.3269 14.3269 0 32 0C49.6731 0 64 14.3269 64 32C64 49.6731 49.6731 64 32 64C14.3269 64 0 49.6731 0 32Z"
   style="fill:url(#linear-gradient)"
   id="path6" />
#FF6600&quot;/&gt;
<path
   d="M19 31.45H26.75V22.15H19V31.45ZM19 42.3H26.75V33H19V42.3ZM28.3 42.3H36.05V33H28.3V42.3ZM37.6 42.3H45.35V33H37.6V42.3ZM28.3 31.45H36.05V22.15H28.3V31.45ZM37.6 22.15V31.45H45.35V22.15H37.6Z"
   fill="white"
   opacity="0.4"
   id="path8" />
</svg>
