<?xml version="1.0" encoding="UTF-8" standalone="no"?>
<svg
   id="svg262"
   viewBox="0 0 1024 1024"
   version="1.1"
   sodipodi:docname="bitwarden.svg"
   inkscape:version="1.2.1 (9c6d41e410, 2022-07-14)"
   xmlns:inkscape="http://www.inkscape.org/namespaces/inkscape"
   xmlns:sodipodi="http://sodipodi.sourceforge.net/DTD/sodipodi-0.dtd"
   xmlns="http://www.w3.org/2000/svg"
   xmlns:svg="http://www.w3.org/2000/svg">
  <sodipodi:namedview
     id="namedview264"
     pagecolor="#ffffff"
     bordercolor="#000000"
     borderopacity="0.25"
     inkscape:showpageshadow="2"
     inkscape:pageopacity="0.0"
     inkscape:pagecheckerboard="0"
     inkscape:deskcolor="#d1d1d1"
     showgrid="false"
     inkscape:zoom="0.7578125"
     inkscape:cx="512.65979"
     inkscape:cy="512.65979"
     inkscape:window-width="1920"
     inkscape:window-height="991"
     inkscape:window-x="-9"
     inkscape:window-y="-9"
     inkscape:window-maximized="1"
     inkscape:current-layer="svg262" />
  <defs
     id="defs255">
    <linearGradient
       id="linear-gradient"
       x1="396.38409"
       y1="260.84744"
       x2="736.29712"
       y2="820.04993"
       gradientUnits="userSpaceOnUse">
      <stop
         offset="0"
         stop-color="#aa5cc3"
         id="stop250" />
      <stop
         offset="1"
         stop-color="#00a4dc"
         id="stop252" />
    </linearGradient>
  </defs>
  <title
     id="title257">shield</title>
  <g
     id="shield"
     transform="matrix(1.7659127,0,0,1.7659127,-401.05536,-439.15087)">
    <g
       id="shield-icon">
      <path
         id="shield-shape"
         d="M 661.2,559.3 V 346.1 H 512 v 378.7 c 26.4,-14 50.1,-29.2 70.9,-45.6 52.2,-40.8 78.3,-80.8 78.3,-119.9 z m 64,-255.8 v 255.8 c 0,19.1 -3.7,38 -11.2,56.8 -7.4,18.8 -16.7,35.4 -27.6,50 -11,14.5 -24.1,28.7 -39.3,42.5 -15.2,13.8 -29.3,25.2 -42.1,34.3 -12.9,9.1 -26.3,17.7 -40.3,25.8 -14,8.1 -23.9,13.6 -29.8,16.5 -5.9,2.9 -10.6,5.1 -14.2,6.7 -2.7,1.3 -5.6,2 -8.7,2 -3.1,0 -6,-0.7 -8.7,-2 -3.6,-1.6 -8.3,-3.8 -14.2,-6.7 -5.9,-2.9 -15.8,-8.4 -29.8,-16.5 -14,-8.1 -27.4,-16.7 -40.3,-25.8 -12.9,-9.1 -26.9,-20.5 -42.1,-34.3 -15.2,-13.8 -28.3,-27.9 -39.3,-42.5 -11,-14.5 -20.2,-31.2 -27.6,-50 -7.4,-18.8 -11.2,-37.7 -11.2,-56.8 V 303.5 c 0,-5.8 2.1,-10.8 6.3,-15 4.2,-4.2 9.2,-6.3 15,-6.3 h 383.7 c 5.8,0 10.8,2.1 15,6.3 4.3,4.2 6.4,9.2 6.4,15 z"
         fill="url(#linear-gradient)"
         style="fill:url(#linear-gradient)" />
    </g>
  </g>
</svg>
