<?xml version="1.0" encoding="UTF-8" standalone="no"?>
<svg
   id="svg"
   width="400"
   height="400"
   viewBox="0, 0, 400,400"
   version="1.1"
   sodipodi:docname="bookstack.svg"
   inkscape:version="1.2.1 (9c6d41e410, 2022-07-14)"
   xmlns:inkscape="http://www.inkscape.org/namespaces/inkscape"
   xmlns:sodipodi="http://sodipodi.sourceforge.net/DTD/sodipodi-0.dtd"
   xmlns="http://www.w3.org/2000/svg"
   xmlns:svg="http://www.w3.org/2000/svg">
  <sodipodi:namedview
     id="namedview241"
     pagecolor="#ffffff"
     bordercolor="#000000"
     borderopacity="0.25"
     inkscape:showpageshadow="2"
     inkscape:pageopacity="0.0"
     inkscape:pagecheckerboard="0"
     inkscape:deskcolor="#d1d1d1"
     showgrid="false"
     inkscape:zoom="1.94"
     inkscape:cx="199.74227"
     inkscape:cy="199.74227"
     inkscape:window-width="1920"
     inkscape:window-height="991"
     inkscape:window-x="-9"
     inkscape:window-y="-9"
     inkscape:window-maximized="1"
     inkscape:current-layer="svg" />
  <defs
     id="defs255">
    <linearGradient
       id="linear-gradient"
       x1="156.43906"
       y1="48.683067"
       x2="389.15927"
       y2="396.12982"
       gradientUnits="userSpaceOnUse">
      <stop
         offset="0"
         stop-color="#aa5cc3"
         id="stop250" />
      <stop
         offset="1"
         stop-color="#00a4dc"
         id="stop252" />
    </linearGradient>
  </defs>
  <g
     id="bookstack">
    <path
       id="path0"
       d="M50.641 1.650 C 25.485 5.962,5.541 26.772,1.472 52.955 C -1.665 73.144,0.308 349.923,3.649 358.400 C 10.491 375.755,24.229 389.495,41.600 396.356 C 52.713 400.746,347.287 400.746,358.400 396.356 C 375.767 389.496,389.496 375.767,396.356 358.400 C 400.746 347.287,400.746 52.713,396.356 41.600 C 389.495 24.230,375.758 10.494,358.400 3.648 C 350.501 0.533,67.868 -1.302,50.641 1.650 M235.579 81.408 C 236.228 82.019,223.088 90.353,206.379 99.928 C 170.329 120.587,169.160 122.509,192.000 123.585 L 200.800 124.000 203.082 131.600 C 205.943 141.128,202.721 141.999,236.180 122.650 C 251.921 113.547,266.485 105.207,268.544 104.116 C 271.992 102.290,318.422 125.957,318.393 129.526 C 318.386 130.387,311.435 134.450,220.577 186.702 L 174.753 213.055 124.136 183.902 C 96.296 167.867,73.852 154.415,74.260 154.007 C 74.668 153.599,107.198 134.705,146.549 112.021 L 218.097 70.776 226.248 75.536 C 230.732 78.154,234.931 80.797,235.579 81.408 M255.258 92.333 C 260.931 95.596,265.040 98.761,264.387 99.366 C 262.619 101.005,212.580 129.702,210.837 130.077 C 210.012 130.255,208.496 127.880,207.469 124.800 C 205.798 119.794,204.921 119.146,199.200 118.693 C 188.177 117.820,189.699 116.193,215.583 101.181 C 244.957 84.146,242.121 84.778,255.258 92.333 M323.200 148.414 L 323.200 160.828 252.400 201.520 C 213.460 223.900,180.119 243.145,178.309 244.287 C 174.563 246.650,70.816 188.588,68.556 182.864 C 66.824 178.479,66.992 160.000,68.763 160.000 C 69.622 160.000,93.438 173.320,121.686 189.600 C 149.934 205.880,173.891 219.186,174.923 219.169 C 175.955 219.152,209.200 200.446,248.800 177.600 C 288.400 154.754,321.340 136.048,322.000 136.031 C 322.660 136.014,323.200 141.586,323.200 148.414 M323.200 182.022 L 323.200 194.445 249.020 237.190 L 174.839 279.936 121.858 249.437 C 63.913 216.079,65.399 217.325,65.721 202.400 C 65.980 190.406,64.117 189.729,120.822 222.406 C 149.850 239.133,174.680 252.535,176.000 252.188 C 177.320 251.841,210.080 233.176,248.800 210.710 C 287.520 188.244,320.100 169.803,321.200 169.731 C 322.640 169.637,323.200 173.081,323.200 182.022 M323.154 215.600 L 323.109 228.000 285.954 249.230 C 265.519 260.907,232.153 280.057,211.808 291.787 L 174.815 313.113 122.208 282.800 C 93.273 266.127,69.081 251.657,68.447 250.643 C 66.300 247.212,65.194 234.999,66.601 230.255 L 68.000 225.537 120.800 255.954 C 149.840 272.684,174.320 286.337,175.200 286.294 C 176.080 286.251,208.840 267.600,248.000 244.846 C 287.160 222.092,320.100 203.414,321.200 203.338 C 322.643 203.238,323.187 206.651,323.154 215.600 "
       style="fill:url(#linear-gradient)"
       stroke="none"
       fill="#00000000"
       fill-rule="evenodd" />
  </g>
</svg>
