<?xml version="1.0" encoding="UTF-8" standalone="no"?>
<svg
   viewBox="0 0 512 512"
   data-name="025_SCIENCE"
   id="_025_SCIENCE"
   version="1.1"
   sodipodi:docname="calibre.svg"
   inkscape:version="1.2.1 (9c6d41e410, 2022-07-14)"
   xmlns:inkscape="http://www.inkscape.org/namespaces/inkscape"
   xmlns:sodipodi="http://sodipodi.sourceforge.net/DTD/sodipodi-0.dtd"
   xmlns:xlink="http://www.w3.org/1999/xlink"
   xmlns="http://www.w3.org/2000/svg"
   xmlns:svg="http://www.w3.org/2000/svg">
  <sodipodi:namedview
     id="namedview15"
     pagecolor="#ffffff"
     bordercolor="#000000"
     borderopacity="0.25"
     inkscape:showpageshadow="2"
     inkscape:pageopacity="0.0"
     inkscape:pagecheckerboard="0"
     inkscape:deskcolor="#d1d1d1"
     showgrid="false"
     inkscape:zoom="1.515625"
     inkscape:cx="255.6701"
     inkscape:cy="398.18557"
     inkscape:window-width="1920"
     inkscape:window-height="991"
     inkscape:window-x="-9"
     inkscape:window-y="-9"
     inkscape:window-maximized="1"
     inkscape:current-layer="_025_SCIENCE" />
  <defs
     id="defs255">
    <linearGradient
       id="linear-gradient"
       x1="287.28482"
       y1="279.52884"
       x2="722.8465"
       y2="790.15967"
       gradientUnits="userSpaceOnUse">
      <stop
         offset="0"
         stop-color="#aa5cc3"
         id="stop250" />
      <stop
         offset="1"
         stop-color="#00a4dc"
         id="stop252" />
    </linearGradient>
    <linearGradient
       inkscape:collect="always"
       xlink:href="#linear-gradient"
       id="linearGradient310"
       gradientUnits="userSpaceOnUse"
       x1="5.9528255"
       y1="2.3872008"
       x2="23.99403"
       y2="25.544394"
       gradientTransform="matrix(23.367011,0,0,23.367011,-24.940125,-24.940108)" />
    <linearGradient
       inkscape:collect="always"
       xlink:href="#linear-gradient"
       id="linearGradient312"
       gradientUnits="userSpaceOnUse"
       x1="5.9528255"
       y1="2.3872008"
       x2="23.99403"
       y2="25.544394"
       gradientTransform="matrix(23.367011,0,0,23.367011,-24.940125,-24.940108)" />
    <linearGradient
       inkscape:collect="always"
       xlink:href="#linear-gradient"
       id="linearGradient314"
       gradientUnits="userSpaceOnUse"
       x1="5.9528255"
       y1="2.3872008"
       x2="23.99403"
       y2="25.544394"
       gradientTransform="matrix(23.367011,0,0,23.367011,-24.940125,-24.940108)" />
    <linearGradient
       inkscape:collect="always"
       xlink:href="#linear-gradient"
       id="linearGradient316"
       gradientUnits="userSpaceOnUse"
       x1="5.9528255"
       y1="2.3872008"
       x2="23.99403"
       y2="25.544394"
       gradientTransform="matrix(23.367011,0,0,23.367011,-24.940125,-24.940108)" />
  </defs>
  <path
     class="cls-1"
     d="M 442.39999,161.99589 H 161.99587 a 70.101038,70.101038 0 0 1 0,-140.202072 h 280.40412 a 23.367011,23.367011 0 0 1 23.36702,23.367011 v 93.468041 a 23.367011,23.367011 0 0 1 -23.36702,23.36702 z M 161.99587,68.527838 a 23.367012,23.367012 0 0 0 0,46.734022 H 419.03299 V 68.527838 Z"
     fill="url(#linear-gradient)"
     id="path6"
     style="fill:url(#linearGradient316);stroke-width:23.3671" />
  <path
     class="cls-1"
     d="M 419.03299,489.13402 H 91.894845 a 70.101033,70.101033 0 0 1 0,-140.20206 H 419.03299 a 23.367011,23.367011 0 0 1 23.367,23.36702 v 93.46804 a 23.367011,23.367011 0 0 1 -23.367,23.367 z M 91.894845,395.66598 a 23.367011,23.367011 0 0 0 0,46.73402 H 395.66597 v -46.73402 z"
     fill="url(#linear-gradient)"
     id="path8"
     style="fill:url(#linearGradient314);stroke-width:23.3671" />
  <path
     class="cls-1"
     d="M 372.29897,255.46391 H 91.894845 a 70.101031,70.101031 0 0 1 0,-140.20205 H 372.29897 a 23.367016,23.367016 0 0 1 0,46.73403 H 91.894845 a 23.367011,23.367011 0 0 0 0,46.734 H 372.29897 a 23.367011,23.367011 0 0 1 0,46.73402 z"
     fill="url(#linear-gradient)"
     id="path10"
     style="fill:url(#linearGradient312);stroke-width:23.3671" />
  <path
     class="cls-1"
     d="M 465.76701,395.66598 H 208.72988 a 93.468045,93.468045 0 0 1 0,-186.93609 h 257.03713 a 23.367011,23.367011 0 0 1 0,46.73402 H 208.72988 a 46.734025,46.734025 0 0 0 0,93.46805 h 233.67011 v -46.73403 a 23.367011,23.367011 0 0 1 46.73402,0 v 70.10105 a 23.367011,23.367011 0 0 1 -23.367,23.367 z"
     fill="url(#linear-gradient)"
     id="path12"
     style="fill:url(#linearGradient310);stroke-width:23.3671" />
</svg>
