<?xml version="1.0" encoding="UTF-8" standalone="no"?>
<svg
   version="1.1"
   id="Layer_1"
   x="0px"
   y="0px"
   viewBox="0 0 512 512"
   style="enable-background:new 0 0 512 512;"
   xml:space="preserve"
   sodipodi:docname="calibre-web.svg"
   inkscape:version="1.2.1 (9c6d41e410, 2022-07-14)"
   xmlns:inkscape="http://www.inkscape.org/namespaces/inkscape"
   xmlns:sodipodi="http://sodipodi.sourceforge.net/DTD/sodipodi-0.dtd"
   xmlns:xlink="http://www.w3.org/1999/xlink"
   xmlns="http://www.w3.org/2000/svg"
   xmlns:svg="http://www.w3.org/2000/svg"><sodipodi:namedview
   id="namedview49"
   pagecolor="#ffffff"
   bordercolor="#000000"
   borderopacity="0.25"
   inkscape:showpageshadow="2"
   inkscape:pageopacity="0.0"
   inkscape:pagecheckerboard="0"
   inkscape:deskcolor="#d1d1d1"
   showgrid="false"
   inkscape:zoom="1.5703125"
   inkscape:cx="327.64179"
   inkscape:cy="149.33333"
   inkscape:window-width="1920"
   inkscape:window-height="991"
   inkscape:window-x="-9"
   inkscape:window-y="-9"
   inkscape:window-maximized="1"
   inkscape:current-layer="Layer_1" />
  <defs
   id="defs255">
    <linearGradient
   id="linear-gradient"
   x1="287.28482"
   y1="279.52884"
   x2="722.8465"
   y2="790.15967"
   gradientUnits="userSpaceOnUse">
      <stop
   offset="0"
   stop-color="#aa5cc3"
   id="stop250" />
      <stop
   offset="1"
   stop-color="#00a4dc"
   id="stop252" />
    </linearGradient>
  <linearGradient
   inkscape:collect="always"
   xlink:href="#linear-gradient"
   id="linearGradient202"
   gradientUnits="userSpaceOnUse"
   x1="70.130592"
   y1="75.110931"
   x2="445.19473"
   y2="509.32382" /><linearGradient
   inkscape:collect="always"
   xlink:href="#linear-gradient"
   id="linearGradient253"
   gradientUnits="userSpaceOnUse"
   x1="85.414177"
   y1="65.558693"
   x2="442.01068"
   y2="507.41342" /></defs>
<g
   id="g10">
	<g
   id="g8">
		<path
   d="M503.721,109.07c-39.212-20.073-83.241-30.683-127.326-30.683c-35.964,0-71.883,7.071-105.186,20.57v319.302    c32.805-15.268,68.969-23.321,105.187-23.321c39.288,0,78.523,9.455,113.465,27.342L512,433.613V113.308L503.721,109.07z     M437.866,333.256c-40.214-10.236-82.723-10.236-122.937,0l-7.503-29.477c45.121-11.486,92.823-11.486,137.944,0L437.866,333.256z     M437.866,280.931c-40.214-10.236-82.723-10.236-122.937,0l-7.503-29.477c45.121-11.486,92.823-11.486,137.944,0L437.866,280.931z     M437.866,228.606c-40.214-10.236-82.723-10.236-122.937,0l-7.503-29.477c45.121-11.486,92.823-11.486,137.944,0L437.866,228.606z     M437.866,176.281c-40.214-10.236-82.723-10.236-122.937,0l-7.503-29.477c45.121-11.486,92.823-11.486,137.944,0L437.866,176.281z    "
   fill="url(#linear-gradient)"
   id="path6"
   style="fill:url(#linearGradient253)" />
	</g>
</g>
<g
   id="g16">
	<g
   id="g14">
		<path
   d="M135.606,78.387c-44.086,0-88.115,10.61-127.327,30.683L0,113.308v320.306l22.139-11.333    c34.941-17.887,74.178-27.342,113.466-27.342c36.217,0,72.381,8.054,105.187,23.321V98.957    C207.488,85.458,171.569,78.387,135.606,78.387z M197.073,333.256c-40.213-10.236-82.723-10.236-122.936,0l-7.503-29.477    c45.121-11.486,92.822-11.486,137.943,0L197.073,333.256z M197.073,280.931c-40.213-10.236-82.723-10.236-122.936,0l-7.503-29.477    c45.121-11.486,92.822-11.486,137.943,0L197.073,280.931z M197.073,228.606c-40.213-10.236-82.723-10.236-122.936,0l-7.503-29.477    c45.121-11.486,92.822-11.486,137.943,0L197.073,228.606z M197.073,176.281c-40.213-10.236-82.723-10.236-122.936,0l-7.503-29.477    c45.121-11.486,92.822-11.486,137.943,0L197.073,176.281z"
   fill="url(#linear-gradient)"
   id="path12"
   style="fill:url(#linearGradient202)" />
	</g>
</g>
<g
   id="g18">
</g>
<g
   id="g20">
</g>
<g
   id="g22">
</g>
<g
   id="g24">
</g>
<g
   id="g26">
</g>
<g
   id="g28">
</g>
<g
   id="g30">
</g>
<g
   id="g32">
</g>
<g
   id="g34">
</g>
<g
   id="g36">
</g>
<g
   id="g38">
</g>
<g
   id="g40">
</g>
<g
   id="g42">
</g>
<g
   id="g44">
</g>
<g
   id="g46">
</g>
</svg>
