<?xml version="1.0" encoding="UTF-8" standalone="no"?>
<svg
   id="code-server"
   viewBox="0 0 512 512"
   version="1.1"
   sodipodi:docname="microsoft-visual-studio-code.svg"
   inkscape:version="1.2.1 (9c6d41e410, 2022-07-14)"
   xmlns:inkscape="http://www.inkscape.org/namespaces/inkscape"
   xmlns:sodipodi="http://sodipodi.sourceforge.net/DTD/sodipodi-0.dtd"
   xmlns="http://www.w3.org/2000/svg"
   xmlns:svg="http://www.w3.org/2000/svg">
  <sodipodi:namedview
     id="namedview14"
     pagecolor="#ffffff"
     bordercolor="#000000"
     borderopacity="0.25"
     inkscape:showpageshadow="2"
     inkscape:pageopacity="0.0"
     inkscape:pagecheckerboard="0"
     inkscape:deskcolor="#d1d1d1"
     showgrid="false"
     showguides="true"
     inkscape:zoom="1.5703125"
     inkscape:cx="256"
     inkscape:cy="256.31841"
     inkscape:window-width="1920"
     inkscape:window-height="991"
     inkscape:window-x="-9"
     inkscape:window-y="-9"
     inkscape:window-maximized="1"
     inkscape:current-layer="code-server">
    <sodipodi:guide
       position="243.26368,255.36318"
       orientation="0,-1"
       id="guide174"
       inkscape:locked="false" />
    <sodipodi:guide
       position="256,244.53731"
       orientation="1,0"
       id="guide176"
       inkscape:locked="false" />
  </sodipodi:namedview>
  <defs
     id="defs7">
    <linearGradient
       id="linear-gradient"
       x1="5.01"
       y1="3.26"
       x2="24.82"
       y2="21.56"
       gradientUnits="userSpaceOnUse"
       gradientTransform="matrix(19.778358,0,0,19.778358,19.925435,20.816591)">
      <stop
         offset="0"
         stop-color="#aa5cc3"
         id="stop2" />
      <stop
         offset="1"
         stop-color="#00a4dc"
         id="stop4" />
    </linearGradient>
  </defs>
  <title
     id="title9"> code-server</title>
  <path
     d="M 356.15769,346.56631 V 166.97881 L 237.48754,256.77256 M 63.833521,202.57987 c -5.93349,-6.32909 -6.131269,-16.21825 -0.395566,-22.74512 l 23.734066,-21.95398 c 3.955643,-3.56009 13.647059,-5.14237 20.767249,0 l 67.64198,51.62151 156.84241,-143.393092 c 6.32907,-6.329077 17.20719,-8.900263 29.66753,-2.373396 l 79.11345,37.776668 c 7.12022,4.15345 13.84486,10.68031 13.84486,22.74509 v 267.00787 c 0,7.91135 -5.73574,16.41604 -11.86704,19.77836 l -87.02477,41.53457 c -6.32907,2.57117 -18.19608,0.19788 -22.34955,-3.95568 L 175.18571,304.24064 107.93927,355.66436 c -7.51577,5.1424 -16.811606,3.75789 -20.767249,0 L 63.437955,333.90819 c -6.329073,-6.52686 -5.537924,-17.20718 0.988938,-23.73405 l 59.335057,-53.40158"
     fill="url(#linear-gradient)"
     id="path11"
     style="fill:url(#linear-gradient);stroke-width:19.7783" />
</svg>
