<?xml version="1.0" encoding="UTF-8" standalone="no"?>
<svg
   id="code-server"
   viewBox="0 0 512 512"
   version="1.1"
   sodipodi:docname="code-server.svg"
   inkscape:version="1.2.1 (9c6d41e410, 2022-07-14)"
   xmlns:inkscape="http://www.inkscape.org/namespaces/inkscape"
   xmlns:sodipodi="http://sodipodi.sourceforge.net/DTD/sodipodi-0.dtd"
   xmlns="http://www.w3.org/2000/svg"
   xmlns:svg="http://www.w3.org/2000/svg">
  <sodipodi:namedview
     id="namedview14"
     pagecolor="#ffffff"
     bordercolor="#000000"
     borderopacity="0.25"
     inkscape:showpageshadow="2"
     inkscape:pageopacity="0.0"
     inkscape:pagecheckerboard="0"
     inkscape:deskcolor="#d1d1d1"
     showgrid="false"
     showguides="true"
     inkscape:zoom="1.515625"
     inkscape:cx="255.6701"
     inkscape:cy="290.63918"
     inkscape:window-width="1920"
     inkscape:window-height="991"
     inkscape:window-x="-9"
     inkscape:window-y="-9"
     inkscape:window-maximized="1"
     inkscape:current-layer="code-server">
    <sodipodi:guide
       position="243.26368,255.36318"
       orientation="0,-1"
       id="guide174"
       inkscape:locked="false" />
    <sodipodi:guide
       position="256,244.53731"
       orientation="1,0"
       id="guide176"
       inkscape:locked="false" />
  </sodipodi:namedview>
  <defs
     id="defs7">
    <linearGradient
       id="linear-gradient"
       x1="10.118307"
       y1="3.6856923"
       x2="22.464502"
       y2="20.793753"
       gradientUnits="userSpaceOnUse"
       gradientTransform="matrix(23.248972,0,0,23.248972,-20.799222,-21.67531)">
      <stop
         offset="0"
         stop-color="#aa5cc3"
         id="stop2" />
      <stop
         offset="1"
         stop-color="#00a4dc"
         id="stop4" />
    </linearGradient>
  </defs>
  <title
     id="title9"> code-server</title>
  <path
     d="M 374.43348,361.23543 V 150.13476 L 234.93966,255.6851 M 30.813649,191.98294 c -6.974671,-7.43969 -7.207155,-19.06416 -0.464978,-26.73633 L 58.24748,139.44025 c 4.64976,-4.18481 16.04178,-6.04473 24.411388,0 L 162.17034,200.12006 346.53472,31.56502 c 7.43967,-7.439674 20.22663,-10.46204 34.87345,-2.789869 l 92.9959,44.40554 c 8.36964,4.882278 16.27429,12.554441 16.27429,26.736292 V 413.77813 c 0,9.2996 -6.74222,19.29666 -13.94941,23.24898 l -102.29547,48.82286 c -7.43966,3.02235 -21.38903,0.2326 -26.27133,-4.6498 L 161.7054,311.48266 82.658868,371.92997 c -8.834603,6.04476 -19.761628,4.4173 -24.411388,0 L 30.348671,346.35613 c -7.439669,-7.67216 -6.509693,-20.22661 1.162472,-27.89879 L 101.25804,255.6851"
     fill="url(#linear-gradient)"
     id="path11"
     style="fill:url(#linear-gradient);stroke-width:23.2489" />
</svg>
