<?xml version="1.0" encoding="UTF-8" standalone="no"?>
<!-- Generator: Adobe Illustrator 19.0.0, SVG Export Plug-In . SVG Version: 6.00 Build 0)  -->

<svg
   version="1.1"
   id="Layer_1"
   x="0px"
   y="0px"
   viewBox="0 0 512 512"
   style="enable-background:new 0 0 512 512;"
   xml:space="preserve"
   sodipodi:docname="diskspeed.svg"
   inkscape:version="1.2.1 (9c6d41e410, 2022-07-14)"
   xmlns:inkscape="http://www.inkscape.org/namespaces/inkscape"
   xmlns:sodipodi="http://sodipodi.sourceforge.net/DTD/sodipodi-0.dtd"
   xmlns:xlink="http://www.w3.org/1999/xlink"
   xmlns="http://www.w3.org/2000/svg"
   xmlns:svg="http://www.w3.org/2000/svg"><sodipodi:namedview
   id="namedview55"
   pagecolor="#ffffff"
   bordercolor="#000000"
   borderopacity="0.25"
   inkscape:showpageshadow="2"
   inkscape:pageopacity="0.0"
   inkscape:pagecheckerboard="0"
   inkscape:deskcolor="#d1d1d1"
   showgrid="false"
   inkscape:zoom="1.515625"
   inkscape:cx="385.64948"
   inkscape:cy="352.65979"
   inkscape:window-width="1920"
   inkscape:window-height="991"
   inkscape:window-x="-9"
   inkscape:window-y="-9"
   inkscape:window-maximized="1"
   inkscape:current-layer="Layer_1" />
	<defs
   id="defs255">
    <linearGradient
   id="linear-gradient"
   x1="287.28482"
   y1="279.52884"
   x2="722.8465"
   y2="790.15967"
   gradientUnits="userSpaceOnUse">
      <stop
   offset="0"
   stop-color="#aa5cc3"
   id="stop250" />
      <stop
   offset="1"
   stop-color="#00a4dc"
   id="stop252" />
    </linearGradient>
  <linearGradient
   inkscape:collect="always"
   xlink:href="#linear-gradient"
   id="linearGradient237"
   gradientUnits="userSpaceOnUse"
   x1="35.903378"
   y1="34.085541"
   x2="505.77432"
   y2="526.90192" /><linearGradient
   inkscape:collect="always"
   xlink:href="#linear-gradient"
   id="linearGradient239"
   gradientUnits="userSpaceOnUse"
   x1="111.77966"
   y1="168.02368"
   x2="530.18671"
   y2="544.71637" /><linearGradient
   inkscape:collect="always"
   xlink:href="#linear-gradient"
   id="linearGradient241"
   gradientUnits="userSpaceOnUse"
   x1="161.924"
   y1="106.66286"
   x2="477.4032"
   y2="477.41742" /></defs>
<g
   id="g10">
	<g
   id="g8">
		<path
   d="M46.545,0v512h418.909V0H46.545z M418.909,465.455H93.091V46.545h325.818V465.455z"
   fill="url(#linear-gradient)"
   id="path6"
   style="fill:url(#linearGradient237)" />
	</g>
</g>
<g
   id="g16">
	<g
   id="g14">
		<path
   d="M256,193.939c-17.11,0-31.03,13.92-31.03,31.03S238.89,256,256,256s31.03-13.92,31.03-31.03S273.11,193.939,256,193.939z"
   fill="url(#linear-gradient)"
   id="path12"
   style="fill:url(#linearGradient241)" />
	</g>
</g>
<g
   id="g22">
	<g
   id="g20">
		<path
   d="M256,93.091c-72.718,0-131.879,59.161-131.879,131.879c0,32.295,11.688,61.899,31.03,84.852v93.572h46.545v-58.292    c16.573,7.522,34.949,11.747,54.303,11.747c72.718,0,131.879-59.161,131.879-131.879S328.718,93.091,256,93.091z M256,310.303    c-47.053,0-85.333-38.281-85.333-85.333s38.281-85.333,85.333-85.333s85.333,38.281,85.333,85.333S303.053,310.303,256,310.303z"
   fill="url(#linear-gradient)"
   id="path18"
   style="fill:url(#linearGradient239)" />
	</g>
</g>
<g
   id="g24">
</g>
<g
   id="g26">
</g>
<g
   id="g28">
</g>
<g
   id="g30">
</g>
<g
   id="g32">
</g>
<g
   id="g34">
</g>
<g
   id="g36">
</g>
<g
   id="g38">
</g>
<g
   id="g40">
</g>
<g
   id="g42">
</g>
<g
   id="g44">
</g>
<g
   id="g46">
</g>
<g
   id="g48">
</g>
<g
   id="g50">
</g>
<g
   id="g52">
</g>
</svg>
