<?xml version="1.0" encoding="UTF-8" standalone="no"?>
<svg
   id="duplicacy"
   viewBox="0 0 1000 1000"
   version="1.1"
   sodipodi:docname="duplicacy.svg"
   inkscape:version="1.2.1 (9c6d41e410, 2022-07-14)"
   xmlns:inkscape="http://www.inkscape.org/namespaces/inkscape"
   xmlns:sodipodi="http://sodipodi.sourceforge.net/DTD/sodipodi-0.dtd"
   xmlns="http://www.w3.org/2000/svg"
   xmlns:svg="http://www.w3.org/2000/svg">
  <sodipodi:namedview
     id="namedview18"
     pagecolor="#ffffff"
     bordercolor="#000000"
     borderopacity="0.25"
     inkscape:showpageshadow="2"
     inkscape:pageopacity="0.0"
     inkscape:pagecheckerboard="0"
     inkscape:deskcolor="#d1d1d1"
     showgrid="false"
     inkscape:zoom="0.804"
     inkscape:cx="500"
     inkscape:cy="500.62189"
     inkscape:window-width="1920"
     inkscape:window-height="991"
     inkscape:window-x="-9"
     inkscape:window-y="-9"
     inkscape:window-maximized="1"
     inkscape:current-layer="duplicacy" />
  <defs
     id="defs7">
    <linearGradient
       id="linear-gradient"
       x1="218.45895"
       y1="902.35474"
       x2="965.04547"
       y2="-11.6712"
       gradientUnits="userSpaceOnUse">
      <stop
         offset="0"
         stop-color="#aa5cc3"
         id="stop2" />
      <stop
         offset="1"
         stop-color="#00a4dc"
         id="stop4" />
    </linearGradient>
  </defs>
  <title
     id="title9">duplicacy</title>
  <g
     id="g15">
    <g
       transform="matrix(1 0 0 -1 0 960)"
       id="g13">
      <path
         d="M663.3,133.3V616l-245,245v68.6c0,5.4,2,10.2,6.1,14.3c4.1,4.1,8.8,6.1,14.3,6.1H745V623.3h245V153.8c0-5.4-2-10.2-6.1-14.3c-4.1-4.1-8.8-6.1-14.3-6.1H663.3z M826.7,705v163.3L990,705H826.7z M30.4-30c-5.4,0-10.2,2-14.3,6.1S10-15,10-9.6v775.8c0,5.4,2,10.2,6.1,14.3c4.1,4.1,8.8,6.1,14.3,6.1h306.2V460h245V-9.6c0-5.4-2-10.2-6.1-14.3c-4.1-4.1-8.8-6.1-14.3-6.1H30.4z M418.3,541.7V705l163.3-163.3H418.3z"
         fill="url(#linear-gradient)"
         id="path11"
         style="fill:url(#linear-gradient)" />
    </g>
  </g>
</svg>
