<svg
  xmlns="http://www.w3.org/2000/svg"
  width="24"
  height="24"
  viewBox="0 0 24 24"
  fill="none"
  stroke="url(#linear-gradient)"
  stroke-width="2"
  stroke-linecap="round"
  stroke-linejoin="round"
>
  <defs
     id="defs255">
    <linearGradient
       id="linear-gradient"
       x1="2"
       y1="2"
       x2="28"
       y2="28"
       gradientUnits="userSpaceOnUse">
      <stop
         offset="0"
         stop-color="#aa5cc3"
         id="stop250" />
      <stop
         offset="1"
         stop-color="#00a4dc"
         id="stop252" />
    </linearGradient>
  </defs>
  <path d="M21 16V8a2 2 0 00-1-1.73l-7-4a2 2 0 00-2 0l-7 4A2 2 0 003 8v8a2 2 0 001 1.73l7 4a2 2 0 002 0l7-4A2 2 0 0021 16z" fill="#00000000"/>
  <polyline points="3.27 6.96 12 12.01 20.73 6.96"/>
  <line x1="12" y1="22.08" x2="12" y2="12" />
</svg>
