<?xml version="1.0" encoding="UTF-8" standalone="no"?>
<svg
   id="filestash"
   viewBox="0 0 1000 1000"
   version="1.1"
   sodipodi:docname="filestash.svg"
   inkscape:version="1.2.1 (9c6d41e410, 2022-07-14)"
   xmlns:inkscape="http://www.inkscape.org/namespaces/inkscape"
   xmlns:sodipodi="http://sodipodi.sourceforge.net/DTD/sodipodi-0.dtd"
   xmlns="http://www.w3.org/2000/svg"
   xmlns:svg="http://www.w3.org/2000/svg">
  <sodipodi:namedview
     id="namedview14"
     pagecolor="#ffffff"
     bordercolor="#000000"
     borderopacity="0.25"
     inkscape:showpageshadow="2"
     inkscape:pageopacity="0.0"
     inkscape:pagecheckerboard="0"
     inkscape:deskcolor="#d1d1d1"
     showgrid="false"
     inkscape:zoom="0.804"
     inkscape:cx="500"
     inkscape:cy="526.74129"
     inkscape:window-width="1920"
     inkscape:window-height="991"
     inkscape:window-x="-9"
     inkscape:window-y="-9"
     inkscape:window-maximized="1"
     inkscape:current-layer="filestash" />
  <defs
     id="defs7">
    <linearGradient
       id="linear-gradient"
       x1="110.25"
       y1="213.3"
       x2="496.14"
       y2="436.09"
       gradientUnits="userSpaceOnUse"
       gradientTransform="matrix(2.047671,0,0,2.047671,-12.142883,-7.8964463)">
      <stop
         offset="0"
         stop-color="#aa5cc3"
         id="stop2" />
      <stop
         offset="1"
         stop-color="#00a4dc"
         id="stop4" />
    </linearGradient>
  </defs>
  <title
     id="title9">filestash</title>
  <path
     d="m 499.40431,160.05783 c -124.75932,0.0163 -225.99141,101.19715 -226.3588,226.24605 0.39243,-0.0163 0.78489,-0.0297 1.17741,-0.0438 128.99631,-1.14455 225.79387,114.88103 227.7414,208.4006 -2.78714,-95.25545 99.93757,-206.72507 223.8043,-208.30043 C 725.43217,261.28687 624.18723,160.06995 499.40358,160.05783 Z m 226.36508,226.30242 0.0205,0.61375 c -156.75587,7.09799 -224.96097,139.25109 -224.31051,207.21606 1.24542,130.127 -68.05696,244.65397 -238.38563,245.36858 l 465.55198,-1.73986 c 125.03219,0.001 226.3912,-99.32581 226.39015,-224.64881 -10e-4,-125.32051 -101.36043,-226.9112 -226.39015,-226.90991 -0.95843,0.0264 -1.91664,0.0607 -2.87466,0.10016 z M 501.2915,594.19667 C 498.06306,504.62324 414.6702,387.80978 273.0142,386.974 l 0.0314,-0.67012 C 148.49299,386.95189 47.857694,488.32604 47.832918,613.16997 47.831852,738.49292 148.059,839.99016 261.86756,839.5193 463.77743,838.6839 504.51992,683.77012 501.2915,594.19667 Z"
     style="fill:url(#linear-gradient);stroke:#f2f3f5;stroke-width:71.6685"
     fill="url(#linear-gradient)"
     id="path11" />
</svg>
