<?xml version="1.0" encoding="UTF-8" standalone="no"?>
<svg
   id="svg"
   width="400"
   height="400"
   viewBox="0, 0, 400,400"
   version="1.1"
   sodipodi:docname="handbrake.svg"
   inkscape:version="1.2.1 (9c6d41e410, 2022-07-14)"
   xmlns:inkscape="http://www.inkscape.org/namespaces/inkscape"
   xmlns:sodipodi="http://sodipodi.sourceforge.net/DTD/sodipodi-0.dtd"
   xmlns="http://www.w3.org/2000/svg"
   xmlns:svg="http://www.w3.org/2000/svg">
  <sodipodi:namedview
     id="namedview260"
     pagecolor="#ffffff"
     bordercolor="#000000"
     borderopacity="0.25"
     inkscape:showpageshadow="2"
     inkscape:pageopacity="0.0"
     inkscape:pagecheckerboard="0"
     inkscape:deskcolor="#d1d1d1"
     showgrid="false"
     inkscape:zoom="1.94"
     inkscape:cx="199.74227"
     inkscape:cy="199.74227"
     inkscape:window-width="1920"
     inkscape:window-height="991"
     inkscape:window-x="-9"
     inkscape:window-y="-9"
     inkscape:window-maximized="1"
     inkscape:current-layer="svg" />
  <defs
     id="defs255">
    <linearGradient
       id="linear-gradient"
       x1="170.8797"
       y1="111.41447"
       x2="342.96863"
       y2="336.92453"
       gradientUnits="userSpaceOnUse"
       gradientTransform="matrix(1.4335351,0,0,1.4335351,-122.63482,-102.31157)">
      <stop
         offset="0"
         stop-color="#aa5cc3"
         id="stop250" />
      <stop
         offset="1"
         stop-color="#00a4dc"
         id="stop252" />
    </linearGradient>
  </defs>
  <g
     id="svgg">
    <path
       id="path0"
       d="M 91.275851,77.965505 C 12.302405,78.606295 14.659136,78.421369 9.2790791,84.366239 6.3073616,87.650468 3.9190912,94.274833 3.9190912,99.236298 v 4.507022 l 160.8340288,0.28816 160.83404,0.28814 -0.70387,-5.997918 C 323.84398,89.489692 319.86879,83.398603 312.46602,79.300127 308.68005,77.204298 237.786,76.777103 91.275851,77.965505 M 4.1756951,203.89869 l 0.3039082,73.26081 3.3745425,4.85539 c 1.9725432,2.8384 5.4445652,5.90329 8.3575092,7.37554 l 4.981534,2.52015 h 96.848191 96.8482 l -3.28997,3.42042 c -2.83122,2.94305 -7.3956,31.36575 -5.52054,34.37473 0.0946,0.15339 6.93544,-0.25373 15.2012,-0.90169 l 15.02919,-1.1798 17.93065,-17.85755 17.93209,-17.85611 h 16.89995 c 31.36145,0 35.35958,-3.85048 36.04051,-34.7188 l 0.40855,-18.47826 35.7495,-35.87851 35.75093,-35.87851 v -5.37719 c 0,-5.07041 -0.39852,-5.79149 -6.99995,-12.67102 -15.28148,-15.92801 -15.96385,-15.73735 -44.23746,12.35563 l -20.43934,20.30889 V 156.10607 130.63788 H 164.60833 3.871785 l 0.3039101,73.26081 M 176.9052,150.27158 c 40.53177,10.55799 54.24066,60.17407 24.77006,89.64611 -30.85972,30.85828 -83.16654,13.85798 -90.436,-29.39463 -6.23731,-37.10419 29.31006,-69.71998 65.66594,-60.25148 m -29.65984,31.39728 c -1.42637,3.75157 -1.41777,36.44334 0.0115,40.20063 2.24636,5.9119 3.78025,5.44458 28.88861,-8.81337 16.63332,-9.44271 17.07627,-11.63171 3.92789,-19.41724 -26.01293,-15.4019 -30.85255,-17.16658 -32.82796,-11.97002"
       style="fill:url(#linear-gradient);stroke-width:1.43354"
       stroke="none"
       fill="#000000"
       fill-rule="evenodd" />
  </g>
</svg>
