<?xml version="1.0" encoding="UTF-8" standalone="no"?>
<svg
   id="svg"
   width="400"
   height="392.156862745098"
   viewBox="0, 0, 400,392.156862745098"
   version="1.1"
   sodipodi:docname="immich.svg"
   inkscape:version="1.2.2 (b0a8486541, 2022-12-01)"
   xmlns:inkscape="http://www.inkscape.org/namespaces/inkscape"
   xmlns:sodipodi="http://sodipodi.sourceforge.net/DTD/sodipodi-0.dtd"
   xmlns="http://www.w3.org/2000/svg"
   xmlns:svg="http://www.w3.org/2000/svg">
  <defs
     id="defs11" />
  <sodipodi:namedview
     id="namedview9"
     pagecolor="#505050"
     bordercolor="#ffffff"
     borderopacity="1"
     inkscape:showpageshadow="0"
     inkscape:pageopacity="0"
     inkscape:pagecheckerboard="1"
     inkscape:deskcolor="#505050"
     showgrid="false"
     inkscape:zoom="2.0757"
     inkscape:cx="211.97668"
     inkscape:cy="233.41523"
     inkscape:window-width="1920"
     inkscape:window-height="1001"
     inkscape:window-x="-9"
     inkscape:window-y="-9"
     inkscape:window-maximized="1"
     inkscape:current-layer="svg" />
  <g
     id="svgg">
    <defs
       id="defs255">
      <linearGradient
         id="linear-gradient"
         x1="165.13681"
         y1="49.352528"
         x2="476.14392"
         y2="385.01596"
         gradientUnits="userSpaceOnUse">
        <stop
           offset="0"
           stop-color="#aa5cc3"
           id="stop250" />
        <stop
           offset="1"
           stop-color="#00a4dc"
           id="stop252" />
      </linearGradient>
    </defs>
    <path
       id="path0"
       d="M180.260 2.577 C 156.962 4.999,133.000 11.407,124.463 17.499 C 108.591 28.825,102.707 49.274,110.203 67.059 C 111.611 70.400,133.225 102.760,135.073 104.293 C 135.738 104.845,135.790 104.770,136.264 102.549 C 137.030 98.967,138.803 97.401,146.097 93.863 C 180.578 77.141,218.452 77.246,252.340 94.157 C 259.854 97.907,261.038 99.058,262.000 103.542 C 262.532 106.021,262.157 106.372,267.663 98.235 C 289.958 65.289,290.413 64.407,290.868 53.289 C 291.710 32.713,280.848 18.049,259.706 11.217 C 235.293 3.328,204.868 0.019,180.260 2.577 M66.759 64.509 C 51.268 67.317,43.065 74.724,28.746 98.832 C 10.109 130.210,-0.669 172.360,1.572 205.098 C 3.372 231.395,28.679 248.283,55.098 240.817 C 66.955 237.467,89.617 230.886,89.920 230.706 C 90.092 230.603,89.313 229.873,88.191 229.083 C 85.016 226.849,84.037 225.375,83.333 221.765 C 75.864 183.447,87.516 144.836,115.093 116.529 C 120.954 110.512,121.480 110.173,125.472 109.848 C 127.657 109.670,128.449 109.455,128.524 109.020 C 128.667 108.190,106.901 80.325,102.374 75.542 C 94.009 66.705,79.478 62.203,66.759 64.509 M316.324 64.509 C 307.755 66.282,300.953 69.984,295.266 75.970 C 292.654 78.719,269.013 108.478,268.693 109.419 C 268.615 109.648,269.745 109.804,271.477 109.804 C 275.897 109.804,276.502 110.137,282.085 115.637 C 308.813 141.968,321.203 179.566,315.508 217.059 C 314.176 225.823,313.731 226.740,309.489 229.442 C 307.403 230.771,306.651 230.400,318.046 233.668 C 348.799 242.488,350.391 242.871,356.275 242.869 C 374.086 242.863,389.533 231.146,395.212 213.333 L 396.275 210.000 396.268 197.451 C 396.247 155.770,383.715 117.438,358.831 82.941 C 351.440 72.694,344.956 67.894,334.706 65.078 C 330.648 63.964,320.480 63.649,316.324 64.509 M186.001 86.891 C 171.192 88.685,150.064 95.568,144.578 100.385 C 137.885 106.262,142.258 117.255,151.290 117.255 C 159.453 117.255,163.571 108.485,157.111 104.860 L 155.617 104.022 156.730 103.601 C 157.342 103.369,159.693 102.463,161.954 101.587 C 185.602 92.423,213.055 92.556,237.157 101.951 C 242.451 104.015,243.074 104.440,241.416 104.856 C 238.188 105.666,236.975 110.762,239.289 113.795 C 244.812 121.037,256.863 116.693,256.863 107.459 C 256.863 102.742,255.196 100.699,248.861 97.652 C 229.492 88.336,206.523 84.404,186.001 86.891 M193.770 101.012 C 186.088 103.078,180.000 110.401,180.000 117.575 C 180.000 118.684,179.885 118.863,179.314 118.641 C 171.128 115.464,160.150 122.398,158.852 131.567 C 157.811 138.913,158.021 139.277,182.432 172.519 C 191.150 184.391,190.679 183.933,193.217 183.023 C 194.251 182.653,195.698 182.350,196.431 182.351 L 197.763 182.353 197.529 165.588 C 197.227 144.050,197.355 143.212,200.622 145.352 L 201.682 146.047 201.404 163.514 C 201.088 183.384,200.829 181.836,204.657 182.954 L 207.158 183.683 208.391 182.332 C 211.547 178.875,236.490 144.084,238.067 140.939 C 243.816 129.475,233.055 115.939,220.098 118.336 L 218.039 118.716 218.039 117.236 C 218.039 106.479,205.244 97.926,193.770 101.012 M123.485 115.884 C 119.432 117.181,108.259 130.503,101.286 142.353 C 88.141 164.691,82.579 196.734,87.869 219.647 C 90.287 230.122,106.753 227.396,106.826 216.507 C 106.876 209.171,100.130 205.331,96.129 210.417 L 95.326 211.438 95.027 210.327 C 94.421 208.068,94.707 190.260,95.427 185.490 C 98.705 163.762,106.874 145.951,121.147 129.412 L 122.332 128.039 122.342 129.333 C 122.391 135.259,129.751 136.874,134.106 131.914 C 140.702 124.401,133.034 112.828,123.485 115.884 M269.933 115.685 C 259.448 117.234,259.364 133.153,269.832 135.050 C 272.700 135.569,276.053 132.660,276.095 129.614 L 276.111 128.431 277.505 130.000 C 295.977 150.782,305.674 180.072,303.344 208.042 L 303.066 211.387 302.282 210.392 C 297.073 203.770,288.566 212.553,292.388 220.607 C 295.938 228.088,308.090 228.000,310.179 220.478 C 312.208 213.169,312.682 191.902,311.036 181.967 C 307.188 158.747,297.639 139.290,281.608 122.004 C 275.902 115.852,274.380 115.028,269.933 115.685 M248.179 140.491 C 243.004 142.306,243.548 141.679,224.746 167.451 C 209.604 188.205,210.859 185.923,212.922 188.946 C 213.831 190.277,214.701 191.444,214.855 191.540 C 215.010 191.635,222.010 189.524,230.411 186.849 C 250.967 180.302,250.566 180.384,250.905 182.649 C 251.098 183.941,250.280 184.281,233.199 190.010 L 216.955 195.458 216.760 198.219 C 216.652 199.738,216.443 201.271,216.295 201.625 C 216.001 202.330,217.520 202.863,249.216 213.190 L 264.510 218.173 268.235 218.141 C 280.601 218.034,288.497 205.686,283.072 194.942 L 281.765 192.352 284.015 191.249 C 303.578 181.661,292.201 150.699,270.932 155.643 L 269.511 155.974 269.305 153.575 C 268.479 143.934,257.591 137.190,248.179 140.491 M139.770 140.715 C 133.744 142.798,128.627 149.278,128.627 154.825 L 128.627 155.950 124.488 155.766 C 103.911 154.850,96.048 182.649,114.351 191.604 C 115.533 192.182,116.441 192.764,116.368 192.896 C 109.987 204.471,116.301 217.637,128.573 218.347 C 132.374 218.567,132.131 218.634,157.647 210.396 C 168.755 206.810,178.658 203.615,179.653 203.297 C 181.600 202.673,181.947 201.755,181.957 197.196 L 181.961 195.765 166.765 190.781 C 145.877 183.930,146.521 184.212,147.276 182.242 C 147.837 180.782,148.844 181.037,172.616 188.662 C 184.113 192.349,182.969 192.265,184.902 189.560 C 185.765 188.353,186.628 187.149,186.820 186.885 C 187.134 186.453,175.510 170.123,160.006 149.216 C 153.744 140.772,147.361 138.091,139.770 140.715 M193.849 186.687 C 187.032 189.369,183.562 198.224,186.769 204.755 C 193.130 217.707,212.331 213.402,212.349 199.020 C 212.361 189.734,202.615 183.237,193.849 186.687 M178.824 207.841 C 176.990 208.452,165.961 212.073,154.314 215.888 C 130.815 223.584,130.736 223.619,127.847 227.936 C 122.313 236.204,124.910 247.390,133.333 251.572 C 134.520 252.161,135.561 252.708,135.649 252.787 C 135.736 252.866,135.258 254.125,134.587 255.583 C 125.687 274.929,150.897 292.323,165.599 276.981 L 167.081 275.435 168.736 276.979 C 177.339 284.999,190.126 282.960,195.043 272.783 C 196.664 269.429,196.833 266.319,196.849 239.600 L 196.863 216.258 193.917 215.344 C 190.129 214.168,190.781 213.700,184.684 221.971 C 167.940 244.684,168.226 244.352,166.637 242.915 C 165.423 241.816,165.331 241.965,178.765 223.386 C 187.767 210.936,187.199 212.261,184.897 209.098 C 182.871 206.314,183.198 206.381,178.824 207.841 M212.823 209.293 L 210.941 211.862 211.887 213.284 C 212.407 214.066,216.849 220.265,221.759 227.059 C 232.786 242.319,233.175 243.084,230.093 243.454 C 228.909 243.596,228.635 243.251,216.281 226.078 C 211.781 219.824,208.045 214.635,207.978 214.549 C 207.911 214.462,206.439 214.815,204.707 215.333 L 201.558 216.275 201.662 243.529 L 201.765 270.784 202.918 273.062 C 207.911 282.923,221.402 285.225,229.003 277.512 L 230.708 275.782 233.406 278.047 C 249.244 291.345,272.598 273.824,263.339 255.592 L 261.996 252.948 264.219 251.866 C 274.355 246.934,276.248 233.139,267.856 225.369 L 265.531 223.216 250.118 218.105 C 227.891 210.734,215.366 206.663,215.013 206.695 C 214.844 206.710,213.859 207.879,212.823 209.293 M103.260 235.790 C 96.274 238.498,94.881 244.304,99.287 252.353 C 115.852 282.615,143.547 303.202,176.863 310.018 C 184.373 311.554,187.130 311.536,189.437 309.933 C 197.702 304.193,193.445 291.271,183.475 291.834 C 178.265 292.129,175.308 296.450,177.808 300.115 C 178.367 300.934,178.824 301.666,178.824 301.742 C 178.824 301.917,173.839 300.672,169.216 299.343 C 146.749 292.885,125.414 277.159,112.380 257.451 C 107.953 250.756,107.535 250.003,108.541 250.542 C 111.721 252.244,115.781 249.730,116.331 245.720 C 117.186 239.480,109.265 233.463,103.260 235.790 M289.484 235.709 C 285.142 236.574,281.961 240.624,281.961 245.285 C 281.961 248.749,285.200 251.448,288.462 250.702 C 290.491 250.237,290.582 249.961,286.753 255.882 C 271.764 279.062,248.574 295.018,220.688 301.339 L 219.611 301.583 220.392 300.301 C 224.563 293.460,214.268 288.607,207.580 294.261 C 201.132 299.711,205.798 312.232,213.892 311.202 C 250.921 306.491,283.423 283.183,300.582 249.038 C 304.321 241.598,298.003 234.011,289.484 235.709 M90.196 238.409 C 83.677 240.418,51.395 252.617,49.235 253.887 C 30.508 264.903,24.047 292.329,35.871 310.614 C 58.756 346.003,100.852 376.623,142.913 388.476 C 166.839 395.219,191.758 378.280,194.121 353.667 C 194.471 350.016,195.686 319.365,195.686 314.170 L 195.686 312.066 194.068 313.528 C 190.477 316.772,188.832 317.003,180.196 315.477 C 176.745 314.867,173.453 314.355,172.881 314.341 C 172.308 314.326,171.903 314.212,171.980 314.087 C 172.057 313.962,170.761 313.541,169.099 313.152 C 138.459 305.966,109.322 282.403,93.823 252.276 C 90.246 245.321,90.112 244.588,91.624 240.252 C 92.362 238.137,92.115 237.817,90.196 238.409 M305.490 238.186 C 305.490 238.267,305.746 239.057,306.058 239.942 C 306.370 240.827,306.745 242.601,306.890 243.884 L 307.154 246.216 303.943 252.407 C 286.225 286.575,255.257 309.262,217.843 315.483 C 209.459 316.877,208.812 316.808,204.879 314.102 C 203.891 313.422,202.994 312.953,202.887 313.061 C 202.780 313.168,202.887 319.317,203.125 326.726 C 204.051 355.527,204.343 358.431,206.934 364.704 C 214.803 383.747,235.991 393.998,255.294 388.101 C 297.111 375.327,330.782 351.774,356.897 317.031 C 366.076 304.818,367.618 300.824,367.636 289.216 C 367.661 271.902,358.422 257.380,343.805 251.758 C 327.636 245.540,305.490 237.695,305.490 238.186 "
       style="fill:url(#linear-gradient)"
       stroke="none"
       fill="#4480e9"
       fill-rule="evenodd" />
  </g>
</svg>
