<?xml version="1.0" encoding="UTF-8" standalone="no"?>
<svg
   id="jellyfin"
   viewBox="0 0 512 512"
   version="1.1"
   sodipodi:docname="jellyfin.svg"
   inkscape:version="1.2.1 (9c6d41e410, 2022-07-14)"
   xmlns:inkscape="http://www.inkscape.org/namespaces/inkscape"
   xmlns:sodipodi="http://sodipodi.sourceforge.net/DTD/sodipodi-0.dtd"
   xmlns:xlink="http://www.w3.org/1999/xlink"
   xmlns="http://www.w3.org/2000/svg"
   xmlns:svg="http://www.w3.org/2000/svg">
  <sodipodi:namedview
     id="namedview276"
     pagecolor="#ffffff"
     bordercolor="#000000"
     borderopacity="0.25"
     inkscape:showpageshadow="2"
     inkscape:pageopacity="0.0"
     inkscape:pagecheckerboard="0"
     inkscape:deskcolor="#d1d1d1"
     showgrid="false"
     inkscape:zoom="1.5703125"
     inkscape:cx="256.31841"
     inkscape:cy="256.31841"
     inkscape:window-width="1920"
     inkscape:window-height="991"
     inkscape:window-x="-9"
     inkscape:window-y="-9"
     inkscape:window-maximized="1"
     inkscape:current-layer="jellyfin" />
  <defs
     id="defs267">
    <linearGradient
       id="linear-gradient"
       x1="110.25"
       y1="213.3"
       x2="496.14"
       y2="436.09"
       gradientUnits="userSpaceOnUse">
      <stop
         offset="0"
         stop-color="#aa5cc3"
         id="stop262" />
      <stop
         offset="1"
         stop-color="#00a4dc"
         id="stop264" />
    </linearGradient>
    <linearGradient
       inkscape:collect="always"
       xlink:href="#linear-gradient"
       id="linearGradient445"
       gradientUnits="userSpaceOnUse"
       x1="127.44403"
       y1="212.66319"
       x2="496.14"
       y2="436.09" />
  </defs>
  <title
     id="title269">jellyfin</title>
  <path
     d="M58.75 417.03c25.97 52.15 368.86 51.55 394.55 0S308.93 56.08 256.03 56.08c-52.92 0-223.25 308.8-197.28 360.95zm68.04-45.25c-17.02-34.17 94.6-236.5 129.26-236.5 34.67 0 146.1 202.7 129.26 236.5-16.83 33.8-241.5 34.17-258.52 0z"
     fill="url(#linear-gradient)"
     id="path271"
     style="fill:url(#linearGradient445)" />
  <path
     d="M190.56 329.07c8.63 17.3 122.4 17.12 130.93 0 8.52-17.1-47.9-119.78-65.46-119.8-17.57 0-74.1 102.5-65.47 119.8z"
     fill="url(#linear-gradient)"
     id="path273" />
</svg>
