<?xml version="1.0" encoding="UTF-8" standalone="no"?>
<svg
   id="svg"
   width="400"
   height="400"
   viewBox="0, 0, 400,400"
   version="1.1"
   sodipodi:docname="librespeed.svg"
   inkscape:version="1.2.1 (9c6d41e410, 2022-07-14)"
   xmlns:inkscape="http://www.inkscape.org/namespaces/inkscape"
   xmlns:sodipodi="http://sodipodi.sourceforge.net/DTD/sodipodi-0.dtd"
   xmlns="http://www.w3.org/2000/svg"
   xmlns:svg="http://www.w3.org/2000/svg">
  <sodipodi:namedview
     id="namedview285"
     pagecolor="#ffffff"
     bordercolor="#000000"
     borderopacity="0.25"
     inkscape:showpageshadow="2"
     inkscape:pageopacity="0.0"
     inkscape:pagecheckerboard="0"
     inkscape:deskcolor="#d1d1d1"
     showgrid="false"
     inkscape:zoom="2.01"
     inkscape:cx="173.38308"
     inkscape:cy="259.45274"
     inkscape:window-width="1920"
     inkscape:window-height="991"
     inkscape:window-x="-9"
     inkscape:window-y="-9"
     inkscape:window-maximized="1"
     inkscape:current-layer="svg" />
  <defs
     id="defs255">
    <linearGradient
       id="linear-gradient"
       x1="131.56343"
       y1="92.961678"
       x2="401.95099"
       y2="345.38354"
       gradientUnits="userSpaceOnUse">
      <stop
         offset="0"
         stop-color="#aa5cc3"
         id="stop250" />
      <stop
         offset="1"
         stop-color="#00a4dc"
         id="stop252" />
    </linearGradient>
  </defs>
  <g
     id="svgg">
    <path
       id="path0"
       d="M178.379 44.606 C 39.932 60.738,-29.156 225.741,55.554 337.950 C 72.992 361.049,73.024 361.054,90.461 343.501 C 105.835 328.024,105.793 328.147,98.579 319.747 C 58.108 272.623,51.535 207.373,82.124 156.391 C 154.308 36.086,336.084 86.269,336.300 226.563 C 336.357 263.537,326.053 291.066,301.421 319.747 C 294.207 328.147,294.165 328.024,309.539 343.501 C 326.729 360.806,326.297 360.832,341.702 341.525 C 389.032 282.206,394.638 197.033,355.493 132.031 C 318.355 70.364,249.406 36.330,178.379 44.606 M218.750 57.856 C 349.704 71.844,413.978 230.485,330.544 333.789 C 324.637 341.104,325.824 341.104,318.558 333.789 L 312.544 327.734 316.955 322.266 C 397.901 221.912,322.890 70.558,194.531 75.242 C 71.202 79.743,5.266 225.839,83.045 322.266 L 87.456 327.734 81.442 333.789 C 74.176 341.104,75.362 341.104,69.461 333.789 C 15.871 267.362,19.983 170.745,79.030 108.982 C 115.720 70.603,165.963 52.218,218.750 57.856 M241.707 152.528 C 238.213 155.237,169.365 216.340,167.383 218.491 C 163.119 223.120,163.955 224.518,181.452 241.999 C 198.339 258.871,199.444 259.600,203.649 256.655 C 206.528 254.638,271.454 181.231,272.147 179.209 C 273.333 175.747,272.101 173.984,260.327 162.305 C 247.576 149.655,246.287 148.978,241.707 152.528 M251.925 171.847 C 256.905 176.865,257.232 177.396,256.136 178.683 C 255.482 179.450,242.520 194.075,227.332 211.182 L 199.716 242.286 190.369 232.939 L 181.021 223.591 183.674 221.239 C 185.134 219.946,199.512 207.105,215.625 192.705 C 231.738 178.304,245.283 166.496,245.724 166.464 C 246.165 166.432,248.956 168.855,251.925 171.847 "
       style="fill:url(#linear-gradient)"
       stroke="none"
       fill="#000000"
       fill-rule="evenodd" />
  </g>
</svg>
