<?xml version="1.0" encoding="UTF-8" standalone="no"?>
<svg
   id="svg"
   width="400"
   height="400"
   viewBox="0, 0, 400,400"
   version="1.1"
   sodipodi:docname="lidarr.svg"
   inkscape:version="1.2.1 (9c6d41e410, 2022-07-14)"
   xmlns:inkscape="http://www.inkscape.org/namespaces/inkscape"
   xmlns:sodipodi="http://sodipodi.sourceforge.net/DTD/sodipodi-0.dtd"
   xmlns="http://www.w3.org/2000/svg"
   xmlns:svg="http://www.w3.org/2000/svg">
  <sodipodi:namedview
     id="namedview10"
     pagecolor="#ffffff"
     bordercolor="#000000"
     borderopacity="0.25"
     inkscape:showpageshadow="2"
     inkscape:pageopacity="0.0"
     inkscape:pagecheckerboard="0"
     inkscape:deskcolor="#d1d1d1"
     showgrid="false"
     inkscape:zoom="1.94"
     inkscape:cx="199.74227"
     inkscape:cy="199.74227"
     inkscape:window-width="1920"
     inkscape:window-height="991"
     inkscape:window-x="-9"
     inkscape:window-y="-9"
     inkscape:window-maximized="1"
     inkscape:current-layer="svg" />
  <defs
     id="defs255">
    <linearGradient
       id="linear-gradient"
       x1="164.6044"
       y1="88.80719"
       x2="408.92899"
       y2="424.69577"
       gradientUnits="userSpaceOnUse">
      <stop
         offset="0"
         stop-color="#aa5cc3"
         id="stop250" />
      <stop
         offset="1"
         stop-color="#00a4dc"
         id="stop252" />
    </linearGradient>
  </defs>
  <g
     id="svgg"
     transform="matrix(1.0995334,0,0,1.0995334,-20.11713,-22.830715)">
    <path
       id="path0"
       style="fill:url(#linear-gradient)"
       d="m 197.06445,26.1875 c -0.48415,-0.350239 -1.21648,1.653133 -2.31836,3.912109 -0.993,2.034942 -3.06637,6.129697 -4.60937,9.09961 -1.543,2.969913 -5.38511,10.441736 -8.53711,16.601562 -3.152,6.159826 -6.33145,12.368886 -7.06445,13.798828 -0.733,1.429971 -1.33299,2.739232 -1.33399,2.908203 -10e-4,0.169 -0.42155,0.979811 -0.93555,1.800782 -0.94071,1.501942 -7.70032,14.609485 -18.84374,36.546876 -3.312,6.51971 -7.25944,14.26117 -8.77344,17.20117 -6.54,12.70271 -10.67464,20.79875 -12.43164,24.34375 -1.036,2.09 -2.05753,4.12544 -2.26953,4.52344 -0.211,0.398 -0.98318,1.83722 -1.71289,3.19922 -0.731,1.362 -4.25723,8.23763 -7.83594,15.27734 -3.58,7.03971 -7.35944,14.42039 -8.39844,16.40039 -3.628,6.91171 -8.40039,16.51244 -8.40039,16.89844 0,0.214 -0.43008,1.02287 -0.95508,1.79687 -1.796,2.647 -14.293061,27.55547 -14.164061,28.23047 0.217,1.131 2.674127,1.21185 37.119141,1.21485 40.68384,0.004 37.2584,0.48348 32.92969,-4.60352 -4.106,-4.82571 -6.64482,-9.07718 -9.75782,-16.33789 -12.25842,-28.58613 6.68761,-65.50941 37.42774,-72.94141 5.89971,-1.42571 7.9948,-1.83823 8.85351,-1.74023 0.47,0.053 1.32568,-0.0818 1.90039,-0.30078 L 198,143.61914 V 85.009766 c 0,-45.888604 0.12958,-58.051768 -0.93555,-58.822266 z m 8.56446,19.880859 c -0.4,0.147 -0.84047,0.723326 -0.98047,1.279297 -0.382,1.520971 -0.24356,36.612607 0.14844,37.642578 0.31971,0.841 0.6347,0.905907 5.4707,1.128907 5.40271,0.249971 14.15349,1.625323 19.5332,3.072265 4.418,1.188971 9.45436,2.774094 10.31836,3.246094 0.396,0.217 2.01756,0.859688 3.60156,1.429688 15.82071,5.684826 40.57954,24.707932 47.90625,36.806642 0.509,0.84 1.67099,2.51656 2.58399,3.72656 2.196,2.912 7.7402,12.28038 9.5332,16.10938 2.136,4.56271 3.45508,7.79384 3.45508,8.46484 0,1.144 1.53935,1.42578 7.78906,1.42578 10.67671,0 10.73445,0.20014 3.93945,13.60156 l -5.04687,9.95313 -0.0391,15.12109 c -0.055,20.34442 -1.05493,25.90463 -7.93164,44.12305 -2.027,5.37071 -8.88013,17.7731 -11.95313,21.63281 -0.774,0.972 -2.45342,3.24383 -3.73242,5.04883 -2.782,3.925 -16.13,17.20539 -19.625,19.52539 -1.32,0.876 -4.24524,2.97816 -6.50195,4.67187 -2.399,1.801 -5.0706,3.43465 -6.4336,3.93165 -2.044,0.74471 -2.48164,1.10392 -3.55664,2.91992 -1.179,1.993 -12.23047,23.53599 -14.60547,28.4707 -0.635,1.32 -1.32997,2.72219 -1.54297,3.11719 -0.214,0.395 -0.89467,1.65578 -1.51367,2.80078 -0.619,1.145 -2.70858,5.19786 -4.64258,9.00586 -3.94471,7.76871 -3.98888,8.22959 -0.70117,7.30859 1.044,-0.292 2.52883,-0.66703 3.29883,-0.83203 2.055,-0.442 11.603,-3.05559 13,-3.55859 0.66,-0.238 3.26883,-1.17594 5.79883,-2.08594 2.53,-0.909 5.41039,-1.96375 6.40039,-2.34375 3.137,-1.203 14.85861,-7.11772 18.59961,-9.38672 1.98,-1.2 4.57462,-2.7627 5.76562,-3.4707 1.19,-0.708 4.31632,-2.92388 6.94532,-4.92188 2.62971,-1.99871 5.61672,-4.248 6.63672,-5 9.18671,-6.77271 26.46394,-26.02874 32.47265,-36.18945 0.759,-1.283 1.79288,-2.98906 2.29688,-3.78906 0.503,-0.8 1.27393,-2.21172 1.71093,-3.13672 0.438,-0.926 0.97536,-1.79564 1.19336,-1.93164 0.434,-0.267 6.44932,-12.47572 7.58203,-15.38672 0.385,-0.99 1.45405,-3.87039 2.37305,-6.40039 0.92,-2.53 1.92156,-5.23 2.22656,-6 0.305,-0.77 0.66507,-2.02883 0.80078,-2.79883 0.135,-0.77 0.78632,-3.38078 1.44532,-5.80078 1.935,-7.10071 2.24047,-8.50668 3.11718,-14.40039 1.801,-12.09171 2.42422,-29.7999 1.32422,-37.59961 -0.248,-1.76 -0.65811,-4.91 -0.91211,-7 -0.254,-2.09 -0.69265,-5.32922 -0.97265,-7.19922 -0.598,-3.987 -4.17725,-18.02317 -5.40625,-21.20117 -0.468,-1.21 -1.09649,-2.91883 -1.39649,-3.79883 -1.108,-3.254 -1.85962,-5.15686 -3.01562,-7.63086 -0.652,-1.394 -1.1875,-2.632 -1.1875,-2.75 0,-1.757 -10.76113,-20.8026 -14.58984,-25.82031 -0.924,-1.21 -2.4819,-3.29386 -3.4629,-4.63086 -5.46671,-7.451797 -12.81643,-15.220012 -23.74414,-25.093751 -0.441,-0.397971 -2.78312,-2.213279 -5.20312,-4.03125 C 283.53963,69.431591 273.64471,63.54873 262,58.296875 258.868,56.884904 256.67755,56 256.31055,56 c -0.214,0 -0.95639,-0.248763 -1.65039,-0.552734 -4.364,-1.911942 -10.51277,-3.863704 -15.25977,-4.845704 -1.54,-0.318971 -4.50961,-1.018669 -6.59961,-1.55664 -3.555,-0.914971 -5.84066,-1.335951 -12.48437,-2.294922 -3.739,-0.538971 -13.8095,-1.006612 -14.6875,-0.681641 z m -28.95899,1.173829 c -0.71939,-0.0024 -1.81378,0.21725 -3.26953,0.4375 -6.12571,0.926971 -19.26961,4.400964 -24.59961,6.503906 -2.09,0.823971 -4.97039,1.907297 -6.40039,2.404297 -1.43,0.496971 -5.09677,2.096698 -8.14648,3.55664 -3.05,1.459971 -5.61327,2.65625 -5.69727,2.65625 -2.07,0 -25.07632,15.881536 -30.457031,21.025391 -1.595942,1.524942 -3.831779,3.584248 -4.96875,4.574219 -16.456507,14.319709 -35.89752,46.185579 -41.484375,67.999999 -0.253971,0.99 -1.087544,4.20263 -1.853515,7.14063 -0.765971,2.93771 -1.395438,5.90789 -1.398438,6.5996 -0.003,0.692 -0.283122,2.42938 -0.621093,3.85938 -2.723942,11.50471 -3.038492,41.32929 -0.517579,49 0.217,0.66 0.558766,2.74577 0.759766,4.63477 0.361,3.39671 2.904745,14.08969 4.179687,17.5664 0.363,0.989 0.802563,2.35802 0.976563,3.04102 0.377,1.473 1.504373,4.65197 2.277344,6.41797 0.302971,0.694 0.550781,1.43639 0.550781,1.65039 0,0.213 0.37406,1.26489 0.832031,2.33789 5.408855,12.67042 12.117906,24.43963 18.970703,33.27734 1.758971,2.269 3.61217,4.69744 4.119141,5.39844 3.344913,4.62571 12.002033,13.57185 17.880859,18.47656 1.317971,1.1 2.487656,2.09589 2.597656,2.21289 0.798,0.851 6.05405,5.06992 7.37305,5.91992 0.895,0.576 2.52695,1.79432 3.62695,2.70703 4.369,3.627 24.01829,14.58869 29,16.17969 0.55,0.175 1.98922,0.70955 3.19922,1.18555 1.21,0.475 2.83342,1.01994 3.60742,1.21094 0.775,0.191 2.48578,0.82325 3.80078,1.40625 1.316,0.582 4.82297,1.69189 7.79297,2.46289 9.31071,2.419 10.93651,2.7337 19.19922,3.7207 3.85,0.46 7.98922,1.00113 9.19922,1.20313 3.102,0.517 9.94306,0.60771 10.41406,0.13671 0.25,-0.25 0.35702,-7.78982 0.29102,-20.76953 L 197.80078,313 l -5.20312,-0.25781 c -13.56571,-0.671 -35.67878,-6.59671 -43.77149,-11.73242 -0.785,-0.498 -3.22578,-1.95719 -5.42578,-3.24219 -14.31571,-8.36371 -27.51899,-20.46509 -35.9707,-32.9668 -3.358,-4.96771 -7.11379,-11.27455 -9.050784,-15.19726 l -1.552734,-3.14063 -7.845703,-0.13281 -7.847657,-0.13086 -1.166015,-1.30469 c -1.271971,-1.426 -1.470206,-2.68125 -0.615235,-3.90625 0.302,-0.434 2.65934,-4.89983 5.238282,-9.92383 5.133855,-9.99971 4.866799,-8.93336 3.673828,-14.70507 -1.201971,-5.817 -0.99463,-29.55306 0.320312,-36.75977 1.818971,-9.96471 4.93196,-20.03629 8.964844,-29 2.683002,-5.96171 7.638692,-13.78651 14.691402,-23.19922 2.778,-3.707 14.42499,-15.138 17.95899,-17.625 1.54,-1.084 4.27136,-3.05205 6.06836,-4.37305 3.69971,-2.72071 10.05116,-6.461882 14.29687,-8.423824 3.922,-1.811971 2.66943,0.08212 11.74414,-17.779297 2.626,-5.169855 7.23238,-14.200505 10.23438,-20.06836 5.05771,-9.88696 6.28512,-11.881481 4.12695,-11.888671 z M 280.30469,166.80078 c -16.97208,-0.073 -33.96775,0.0998 -34.15625,0.5918 -0.127,0.328 0.58312,1.99512 1.57812,3.70312 15.25571,26.18342 6.5567,61.59086 -18.51172,75.35157 -0.778,0.427 -2.16436,1.19789 -3.08007,1.71289 -4.064,2.28471 -10.8982,4.58786 -16.75391,5.64257 -1.991,0.358 -3.88217,0.81277 -4.20117,1.00977 -0.598,0.37 -1.14146,119.30357 -0.56446,123.48828 0.43,3.12 1.29918,2.29115 4.83789,-4.60156 1.779,-3.465 5.22235,-10.16844 7.65235,-14.89844 2.429,-4.72971 8.63783,-16.97146 13.79883,-27.20117 5.15971,-10.22971 10.15179,-20.03883 11.09179,-21.79883 0.94,-1.76 3.27732,-6.26 5.19532,-10 1.91771,-3.74 4.84014,-9.41156 6.49414,-12.60156 5.16971,-9.97671 10.98299,-21.3279 17.7207,-34.59961 3.575,-7.03971 8.5383,-16.75961 11.0293,-21.59961 2.49071,-4.84 6.42709,-12.51941 8.74609,-17.06641 5.35,-10.48671 10.86927,-21.25788 14.82227,-28.93359 6.60671,-12.82671 8.4434,-16.65345 8.3164,-17.31445 -0.095,-0.493 -17.04382,-0.81177 -34.01562,-0.88477 z m 67.49219,163.71094 c -0.0171,0.0406 -0.0188,0.094 -0.0274,0.14062 0.0245,0.004 0.0507,0.0122 0.0801,0.0274 -0.0136,-0.0602 -0.0308,-0.11748 -0.0527,-0.16797 z m -16.27344,17.13867 c -0.002,0.0184 -0.005,0.0362 -0.008,0.0547 0.0196,0.0168 0.0384,0.0344 0.0586,0.0508 0.002,-0.003 0.004,-0.005 0.006,-0.008 -0.009,-0.0241 -0.0105,-0.0521 -0.01,-0.084 -0.0162,-0.005 -0.0317,-0.009 -0.0469,-0.0137 z m -3.26953,3.85156 c -0.004,0.007 -0.008,0.0124 -0.0117,0.0195 0.007,-0.006 0.016,-0.0119 0.0234,-0.0176 -0.004,-5.7e-4 -0.008,-7.6e-4 -0.0117,-0.002 z m -1.11133,0.73438 c -0.005,0.007 -0.009,0.0145 -0.0137,0.0215 0.01,-0.005 0.0176,-0.01 0.0273,-0.0156 -0.002,-5.7e-4 -0.004,-7.6e-4 -0.006,-0.002 -0.003,-8.6e-4 -0.005,-0.003 -0.008,-0.004 z m -3.6543,2.32226 c -0.0119,0.0285 -0.0225,0.0562 -0.0352,0.0859 0.005,0.002 0.0107,0.004 0.0156,0.006 0.0201,0.009 0.0356,0.0229 0.0469,0.0391 -0.0137,-0.0418 0.003,-0.0981 -0.0273,-0.13086 z m -31.11133,21.0293 c -0.0181,0.009 -0.0365,0.017 -0.0547,0.0254 7.6e-4,0.003 3.5e-4,0.007 0.002,0.01 0.0336,-0.0171 0.0354,-0.002 0.0723,-0.0215 -0.007,-0.004 -0.0129,-0.009 -0.0195,-0.0137 z m -6.25781,1.4082 c -0.0748,0.0446 -0.20392,0.0306 -0.24609,0.10352 -0.0337,0.0582 -0.0177,0.10382 -0.041,0.16016 0.0423,-0.02 0.0848,-0.0423 0.12695,-0.0664 0.0491,-0.0729 0.10164,-0.13902 0.16016,-0.19727 z m 1.16016,0.99219 c -0.0199,0.0129 -0.008,0.0212 0.01,0.0293 0.007,-0.005 0.009,-0.008 0.0156,-0.0137 -0.009,-0.005 -0.0166,-0.011 -0.0254,-0.0156 z m -0.39258,0.0527 c 2.8e-4,0.009 -9.7e-4,0.0181 0,0.0273 3e-4,0.003 0.004,-4e-4 0.008,-0.002 l 0.006,-0.006 c -0.002,-0.006 -0.005,-0.0117 -0.008,-0.0176 -0.002,-5.1e-4 -0.004,-3.5e-4 -0.006,-0.002 z m 0.18945,0.0195 c -8.1e-4,0.0411 -0.008,0.0835 -0.0195,0.125 0.0311,-0.0188 0.0586,-0.0113 0.0898,-0.0332 0.0333,-0.0233 0.026,-0.0325 0.0566,-0.0547 -0.0425,-0.0109 -0.0852,-0.0229 -0.12695,-0.0371 z m -6.6289,1.81836 c -0.0279,0.0305 -0.0542,0.0609 -0.0801,0.0937 0.01,-8.4e-4 0.0192,-10e-4 0.0293,0.002 0.009,0.002 0.0183,0.005 0.0274,0.008 0.005,-0.0335 0.0137,-0.068 0.0234,-0.10351 z m -2.14258,2.16406 c 0.0368,0.0221 0.0731,0.0455 0.11719,0.0547 -0.0401,-0.0152 -0.0792,-0.0338 -0.11719,-0.0547 z m -3.00977,0.93164 c 0.0116,0.0667 -0.0109,0.13676 -0.0137,0.20508 -0.0124,0.0461 -0.0363,0.12604 -0.0684,0.21679 0.20511,0.11098 0.27106,-0.0336 0.14063,-0.375 -0.009,-0.0238 -0.047,-0.0241 -0.0586,-0.0469 z m -3.77734,1.92773 c -0.0191,0.0184 -0.0401,0.0387 -0.0606,0.0586 0.0407,-0.003 0.0832,0.0132 0.12305,0.01 -0.0245,-0.0224 -0.045,-0.0452 -0.0625,-0.0684 z m -7.29102,1.86719 c -0.003,0.002 -0.005,0.006 -0.008,0.008 0.0173,0.0149 0.051,0.0395 0.041,0.0254 -0.0112,-0.0158 -0.0215,-0.0249 -0.0332,-0.0332 z m -0.082,0.0723 c -0.001,0.003 -0.002,0.008 -0.004,0.0117 0.007,-0.003 0.0144,-0.003 0.0215,-0.006 -0.006,-0.002 -0.0118,-0.004 -0.0176,-0.006 z m -9.01758,2.53711 c -0.008,0.006 -0.018,0.007 -0.0254,0.0137 0.003,0.001 0.005,0.003 0.008,0.004 0.006,-0.006 0.0119,-0.0116 0.0176,-0.0176 z m 1.35352,0.30078 c -0.003,0.002 -0.004,0.003 -0.008,0.006 -0.002,0.005 -1.6e-4,0.007 -0.002,0.01 10e-4,-0.002 0.007,-0.0114 0.01,-0.0156 z m -1.82227,0.55469 c -0.0144,0.18824 0.003,0.34578 0.10938,0.44726 0.001,-0.0647 0.009,-0.12968 0.0156,-0.19531 v -0.002 c -0.0552,-0.0468 -0.0604,-0.11707 -0.0488,-0.20313 -0.0269,-0.0135 -0.0526,-0.0287 -0.0762,-0.0469 z m -4.02539,0.17968 c -0.31862,-0.0629 -0.62206,-0.0511 -0.66406,0.0859 -0.0403,0.13185 0.007,0.16767 -0.0215,0.30859 0.0168,-0.0136 0.0422,-0.0182 0.0801,-0.0137 0.012,-0.013 0.0229,-0.0264 0.0352,-0.0391 0.0141,-0.01 0.0259,-0.0196 0.0391,-0.0293 0.001,-0.002 0.003,-0.004 0.004,-0.006 0.0366,-0.0561 0.0988,-0.0898 0.14844,-0.13476 0.0618,-0.003 0.12534,-0.0259 0.18554,-0.0117 0.0176,0.004 0.035,0.0105 0.0508,0.0176 0.0231,0.003 0.0442,0.008 0.0645,0.0137 0.0563,-0.0356 0.12064,-0.0572 0.19336,-0.0625 0.0279,-0.002 0.0548,-0.001 0.082,0.008 h 0.002 c 0.006,-0.0107 0.0126,-0.0216 0.0195,-0.0312 -0.0889,-0.0295 -0.12657,-0.0873 -0.21875,-0.10547 z m -5.25,1.19922 c -0.32,0.0161 -0.64269,0.15988 -0.80469,0.42188 -0.10858,0.17698 -0.0658,0.42237 0.043,0.64062 0.0155,-0.0301 0.0317,-0.0603 0.0488,-0.0898 -0.003,-0.005 -0.006,-0.009 -0.008,-0.0156 -0.0454,-0.16083 -0.009,-0.34241 0.0469,-0.5 0.0191,-0.054 0.1001,-0.0535 0.1543,-0.0723 0.0733,-0.0254 0.15187,-0.0383 0.23047,-0.0469 0.0169,-0.0114 0.0324,-0.0236 0.0488,-0.0351 0.0145,-0.0841 0.0611,-0.16475 0.14844,-0.23633 0.036,-0.0295 0.0846,-0.0374 0.13086,-0.0488 -0.0159,1.7e-4 -0.0231,-0.0184 -0.0391,-0.0176 z m 4.94727,0.082 c -0.008,0.0325 -0.0185,0.0672 -0.0293,0.10157 0.0237,-0.01 0.0444,-0.0202 0.0684,-0.0313 -0.0116,-0.0212 -0.0246,-0.0428 -0.0391,-0.0703 z m -5.42578,0.35157 c -0.009,0.003 -0.0224,-10e-4 -0.0274,0.008 -0.003,0.004 0.0126,0.008 0.0176,0.006 0.008,-0.003 0.014,-0.007 0.0215,-0.01 -0.004,-0.001 -0.008,-0.003 -0.0117,-0.004 z m 0.68359,0.85937 c -0.0467,0.0138 -0.0936,0.0259 -0.14062,0.0332 -8.9e-4,0.008 -0.002,0.0156 -0.004,0.0234 0.0495,-0.0162 0.0962,-0.0342 0.14453,-0.0566 z m -6.92578,0.80078 c -0.23521,0.1704 -0.2326,0.25072 0.0156,0.26953 0.001,-0.0754 0.014,-0.15118 0.0352,-0.22461 -0.0248,-0.0133 -0.042,-0.0276 -0.0508,-0.0449 z m 0.41992,0.0254 c 0.002,0.005 0.003,0.0104 0.006,0.0156 h 0.002 c -0.003,-0.005 -0.005,-0.011 -0.008,-0.0156 z m -0.4043,0.98047 c -0.017,0.0233 -0.0287,0.0634 -0.0449,0.082 0.0479,-0.0106 0.0636,-0.032 0.0937,-0.0488 -0.0173,-0.0109 -0.0335,-0.0233 -0.0488,-0.0332 z m 160.49219,4.03125 c 2.1e-4,5.8e-4 8.8e-4,0.008 0.002,0.01 h 0.002 c -10e-4,-0.003 -0.003,-0.008 -0.004,-0.01 z m -395.2929969,0.3985 c -0.011422,0.008 -0.022799,0.0164 -0.035156,0.0234 0.015487,0.008 0.031436,0.014 0.046875,0.0215 -0.00266,-0.0146 -0.00806,-0.0298 -0.011719,-0.0449 z m -0.2988281,0.27734 c 0.016061,0.0434 0.039871,0.0835 0.070312,0.11914 1.516e-4,-0.004 -1.459e-4,-0.006 0,-0.01 0.0016,-0.0404 -0.015,-0.074 -0.039063,-0.10742 -0.010305,-7.1e-4 -0.020958,-9.2e-4 -0.03125,-0.002 z M 0,399.85742 V 400 H 0.0859375 C 0.05523951,399.94899 0.02095966,399.89576 0,399.85742 Z" />
  </g>
</svg>
