<?xml version="1.0" encoding="UTF-8" standalone="no"?>
<!-- Uploaded to: SVG Repo, www.svgrepo.com, Transformed by: SVG Repo Mixer Tools -->

<svg
   fill="#000000"
   version="1.1"
   id="Capa_1"
   width="800px"
   height="800px"
   viewBox="0 0 548.291 548.291"
   xml:space="preserve"
   sodipodi:docname="log-file-format-svgrepo-com.svg"
   inkscape:version="1.2.1 (9c6d41e410, 2022-07-14)"
   xmlns:inkscape="http://www.inkscape.org/namespaces/inkscape"
   xmlns:sodipodi="http://sodipodi.sourceforge.net/DTD/sodipodi-0.dtd"
   xmlns:xlink="http://www.w3.org/1999/xlink"
   xmlns="http://www.w3.org/2000/svg"
   xmlns:svg="http://www.w3.org/2000/svg"><defs
   id="defs15"><linearGradient
     inkscape:collect="always"
     xlink:href="#linear-gradient"
     id="linearGradient163"
     gradientUnits="userSpaceOnUse"
     x1="216.60829"
     y1="71.621704"
     x2="443.392"
     y2="664.95532" /><linearGradient
     inkscape:collect="always"
     xlink:href="#linear-gradient"
     id="linearGradient165"
     gradientUnits="userSpaceOnUse"
     x1="246.9192"
     y1="163.90164"
     x2="376.03436"
     y2="503.29706" /></defs><sodipodi:namedview
   id="namedview13"
   pagecolor="#ffffff"
   bordercolor="#000000"
   borderopacity="0.25"
   inkscape:showpageshadow="2"
   inkscape:pageopacity="0.0"
   inkscape:pagecheckerboard="0"
   inkscape:deskcolor="#d1d1d1"
   showgrid="false"
   inkscape:zoom="1.0175"
   inkscape:cx="400.4914"
   inkscape:cy="552.82555"
   inkscape:window-width="1920"
   inkscape:window-height="1001"
   inkscape:window-x="-9"
   inkscape:window-y="-9"
   inkscape:window-maximized="1"
   inkscape:current-layer="Capa_1" />
<g
   id="g10">
	<defs
   id="defs255">
      <linearGradient
   id="linear-gradient"
   x1="92.670265"
   y1="72.968857"
   x2="308.00317"
   y2="347.02737"
   gradientUnits="userSpaceOnUse">
        <stop
   offset="0"
   stop-color="#aa5cc3"
   id="stop250" />
        <stop
   offset="1"
   stop-color="#00a4dc"
   id="stop252" />
      </linearGradient>
    </defs>
	<path
   d="M486.201,196.124h-13.166V132.59c0-0.396-0.062-0.795-0.115-1.196c-0.021-2.523-0.825-5-2.552-6.963L364.657,3.677   c-0.033-0.031-0.064-0.042-0.085-0.073c-0.63-0.707-1.364-1.292-2.143-1.795c-0.229-0.157-0.461-0.286-0.702-0.421   c-0.672-0.366-1.387-0.671-2.121-0.892c-0.2-0.055-0.379-0.136-0.577-0.188C358.23,0.118,357.401,0,356.562,0H96.757   C84.894,0,75.256,9.651,75.256,21.502v174.613H62.092c-16.971,0-30.732,13.756-30.732,30.733v159.812   c0,16.968,13.761,30.731,30.732,30.731h13.164V526.79c0,11.854,9.638,21.501,21.501,21.501h354.776   c11.853,0,21.501-9.647,21.501-21.501V417.392h13.166c16.966,0,30.729-13.764,30.729-30.731V226.854   C516.93,209.872,503.167,196.124,486.201,196.124z M96.757,21.502h249.054v110.009c0,5.939,4.817,10.75,10.751,10.75h94.972v53.861   H96.757V21.502z M317.816,303.427c0,47.77-28.973,76.746-71.558,76.746c-43.234,0-68.531-32.641-68.531-74.152   c0-43.679,27.887-76.319,70.906-76.319C293.389,229.702,317.816,263.213,317.816,303.427z M82.153,377.79V232.085h33.073v118.039   h57.944v27.66H82.153V377.79z M451.534,520.962H96.757v-103.57h354.776V520.962z M461.176,371.092   c-10.162,3.454-29.402,8.209-48.641,8.209c-26.589,0-45.833-6.698-59.24-19.664c-13.396-12.535-20.75-31.568-20.529-52.967   c0.214-48.436,35.448-76.108,83.229-76.108c18.814,0,33.292,3.688,40.431,7.139l-6.92,26.37   c-7.999-3.457-17.942-6.268-33.942-6.268c-27.449,0-48.209,15.567-48.209,47.134c0,30.049,18.807,47.771,45.831,47.771   c7.564,0,13.623-0.852,16.21-2.152v-30.488h-22.478v-25.723h54.258V371.092L461.176,371.092z"
   style="fill:url(#linearGradient163)"
   id="path6" />
	<path
   d="M212.533,305.37c0,28.535,13.407,48.64,35.452,48.64c22.268,0,35.021-21.186,35.021-49.5   c0-26.153-12.539-48.655-35.237-48.655C225.504,255.854,212.533,277.047,212.533,305.37z"
   style="fill:url(#linearGradient165)"
   id="path8" />
</g>
</svg>
