<?xml version="1.0" encoding="UTF-8" standalone="no"?>
<svg
   version="1.1"
   id="Capa_1"
   x="0px"
   y="0px"
   viewBox="0 0 297 297"
   style="enable-background:new 0 0 297 297;"
   xml:space="preserve"
   sodipodi:docname="make-mkv.svg"
   inkscape:version="1.2.1 (9c6d41e410, 2022-07-14)"
   xmlns:inkscape="http://www.inkscape.org/namespaces/inkscape"
   xmlns:sodipodi="http://sodipodi.sourceforge.net/DTD/sodipodi-0.dtd"
   xmlns:xlink="http://www.w3.org/1999/xlink"
   xmlns="http://www.w3.org/2000/svg"
   xmlns:svg="http://www.w3.org/2000/svg"><sodipodi:namedview
   id="namedview103"
   pagecolor="#ffffff"
   bordercolor="#000000"
   borderopacity="0.25"
   inkscape:showpageshadow="2"
   inkscape:pageopacity="0.0"
   inkscape:pagecheckerboard="0"
   inkscape:deskcolor="#d1d1d1"
   showgrid="false"
   inkscape:zoom="2.6127946"
   inkscape:cx="250.49807"
   inkscape:cy="196.53286"
   inkscape:window-width="1920"
   inkscape:window-height="991"
   inkscape:window-x="-9"
   inkscape:window-y="-9"
   inkscape:window-maximized="1"
   inkscape:current-layer="Capa_1" />
  <defs
   id="defs255">
    <linearGradient
   id="linear-gradient"
   x1="287.28482"
   y1="279.52884"
   x2="722.8465"
   y2="790.15967"
   gradientUnits="userSpaceOnUse">
      <stop
   offset="0"
   stop-color="#aa5cc3"
   id="stop250" />
      <stop
   offset="1"
   stop-color="#00a4dc"
   id="stop252" />
    </linearGradient>
  <linearGradient
   inkscape:collect="always"
   xlink:href="#linear-gradient"
   id="linearGradient647"
   gradientUnits="userSpaceOnUse"
   x1="52.856735"
   y1="55.43071"
   x2="317.83801"
   y2="309.2998" /><linearGradient
   inkscape:collect="always"
   xlink:href="#linear-gradient"
   id="linearGradient649"
   gradientUnits="userSpaceOnUse"
   x1="135.72296"
   y1="119.54689"
   x2="309.11325"
   y2="310.97925" /></defs>
<g
   id="g70">
	<path
   d="M191.618,288.846C249.94,287.592,297,239.733,297,181.116c0-50.372-34.753-92.774-81.539-104.504V32.863   c0-13.625-11.084-24.709-24.709-24.709H24.709C11.084,8.154,0,19.238,0,32.863v231.275c0,13.625,11.084,24.709,24.709,24.709   H191.618z M24.709,269.079c-2.678,0-4.942-2.263-4.942-4.942V32.863c0-2.678,2.263-4.942,4.942-4.942h166.043   c2.678,0,4.942,2.263,4.942,4.942v40.719c-2.126-0.126-4.267-0.197-6.424-0.197c-59.403,0-107.731,48.328-107.731,107.73   c0,36.283,18.032,68.433,45.603,87.963H24.709z M189.27,269.079c-48.504,0-87.963-39.46-87.963-87.963s39.46-87.963,87.963-87.963   c48.504,0,87.963,39.46,87.963,87.963S237.773,269.079,189.27,269.079z"
   fill="url(#linear-gradient)"
   id="path66"
   style="fill:url(#linearGradient647)" />
	<path
   d="M189.27,147.348c-18.621,0-33.769,15.149-33.769,33.768c0,18.62,15.149,33.768,33.769,33.768   c18.619,0,33.768-15.149,33.768-33.768C223.038,162.496,207.889,147.348,189.27,147.348z M189.27,195.117   c-7.721,0-14.002-6.281-14.002-14.001c0-7.721,6.281-14.001,14.002-14.001c7.72,0,14.001,6.281,14.001,14.001   C203.271,188.836,196.99,195.117,189.27,195.117z"
   fill="url(#linear-gradient)"
   id="path68"
   style="fill:url(#linearGradient649)" />
</g>
<g
   id="g72">
</g>
<g
   id="g74">
</g>
<g
   id="g76">
</g>
<g
   id="g78">
</g>
<g
   id="g80">
</g>
<g
   id="g82">
</g>
<g
   id="g84">
</g>
<g
   id="g86">
</g>
<g
   id="g88">
</g>
<g
   id="g90">
</g>
<g
   id="g92">
</g>
<g
   id="g94">
</g>
<g
   id="g96">
</g>
<g
   id="g98">
</g>
<g
   id="g100">
</g>
</svg>
