<?xml version="1.0" encoding="UTF-8" standalone="no"?>
<svg
   id="maria"
   viewBox="0 0 512 512"
   version="1.1"
   sodipodi:docname="mariadb.svg"
   inkscape:version="1.2.1 (9c6d41e410, 2022-07-14)"
   xmlns:inkscape="http://www.inkscape.org/namespaces/inkscape"
   xmlns:sodipodi="http://sodipodi.sourceforge.net/DTD/sodipodi-0.dtd"
   xmlns="http://www.w3.org/2000/svg"
   xmlns:svg="http://www.w3.org/2000/svg">
  <sodipodi:namedview
     id="namedview14"
     pagecolor="#ffffff"
     bordercolor="#000000"
     borderopacity="0.25"
     inkscape:showpageshadow="2"
     inkscape:pageopacity="0.0"
     inkscape:pagecheckerboard="0"
     inkscape:deskcolor="#d1d1d1"
     showgrid="false"
     inkscape:zoom="1.5703125"
     inkscape:cx="256"
     inkscape:cy="231.48259"
     inkscape:window-width="1920"
     inkscape:window-height="991"
     inkscape:window-x="-9"
     inkscape:window-y="-9"
     inkscape:window-maximized="1"
     inkscape:current-layer="maria" />
  <defs
     id="defs7">
    <linearGradient
       id="linear-gradient"
       x1="190.93143"
       y1="41.574402"
       x2="300.35803"
       y2="186.64375"
       gradientUnits="userSpaceOnUse"
       gradientTransform="matrix(1.7206671,0,0,1.7206671,-33.635074,57.766697)">
      <stop
         offset="0"
         stop-color="#aa5cc3"
         id="stop2" />
      <stop
         offset="1"
         stop-color="#00a4dc"
         id="stop4" />
    </linearGradient>
  </defs>
  <title
     id="title9">maria</title>
  <path
     class="cls-1"
     d="m 506.79209,70.413601 a 7.1923888,7.1923888 0 0 0 -4.88668,-1.634626 c -4.86949,0 -11.16714,3.303682 -14.55685,5.075959 l -1.34212,0.688267 a 46.21712,46.21712 0 0 1 -18.18745,4.576981 c -6.46971,0.206482 -12.04468,0.585032 -19.30589,1.342117 -43.01668,4.422122 -62.20213,37.390101 -80.68209,69.274071 -10.0659,17.34432 -20.45873,35.35971 -34.70585,49.12504 a 93.604295,93.604295 0 0 1 -9.37764,7.96669 c -14.74612,10.96066 -33.2605,18.78969 -47.66248,24.33024 -13.86858,5.29965 -29.01045,10.06591 -43.63612,14.67729 -13.40399,4.21564 -26.0509,8.20759 -37.68261,12.52646 -5.24804,1.94435 -9.70456,3.44134 -13.64489,4.74904 -10.59933,3.44133 -18.23909,6.07395 -29.40623,13.76534 -4.35329,2.97676 -8.72377,6.1944 -11.68332,8.60333 a 123.23418,123.23418 0 0 0 -23.31506,24.55392 144.96622,144.96622 0 0 1 -19.581178,23.50431 c -2.357322,2.3057 -6.538546,3.44135 -12.801763,3.44135 -7.330047,0 -16.225902,-1.5142 -25.637942,-3.11441 -9.704564,-1.72068 -19.736053,-3.3553 -28.339399,-3.3553 -6.9859,0 -12.337173,1.13563 -16.329122,3.44133 0,0 -6.7278075,3.92311 -9.5669084,8.99909 l 2.7874809,1.25609 a 57.143357,57.143357 0 0 1 11.9070105,8.60333 59.741565,59.741565 0 0 0 12.388798,8.80981 10.633723,10.633723 0 0 1 3.819882,2.42615 c -1.170051,1.72066 -2.890717,3.94032 -4.69741,6.31485 -9.928254,12.99104 -15.72691,21.19861 -12.406019,25.67235 a 10.44445,10.44445 0 0 0 5.161999,1.17006 c 21.645994,0 33.277706,-5.62659 47.989411,-12.75015 4.267263,-2.0648 8.603331,-4.18123 13.765344,-6.36647 8.603332,-3.73384 17.860516,-9.68735 27.685536,-15.985 12.85338,-8.37964 26.2918,-16.98297 39.33446,-21.1298 a 107.19757,107.19757 0 0 1 33.08845,-4.6458 c 13.76533,0 28.25334,1.84113 42.22517,3.63061 10.41004,1.34213 21.19861,2.71867 31.78072,3.35531 4.11239,0.2409 7.91506,0.36134 11.6145,0.36134 a 134.57338,134.57338 0 0 0 14.81494,-0.77431 l 1.18727,-0.41295 c 7.41607,-4.55977 10.89182,-14.35036 14.26432,-23.81404 2.16805,-6.09116 3.99195,-11.56288 6.88267,-15.03863 a 4.3877013,4.3877013 0 0 1 0.55062,-0.46458 0.68826687,0.68826687 0 0 1 0.84312,0.13766 c 0,0 0,0.0861 0,0.2753 -1.72067,37.01156 -16.62164,60.51587 -31.69468,81.40476 l -10.0659,10.78859 c 0,0 14.09225,0 22.11057,-3.0972 29.25134,-8.74099 51.32749,-28.01246 67.39854,-58.74358 a 250.70121,250.70121 0 0 0 10.6165,-24.2442 c 0.27532,-0.68827 2.80469,-1.96155 2.5638,1.60022 -0.086,1.04961 -0.15486,2.21966 -0.24089,3.44134 v 0 c 0,0.72268 0,1.46257 -0.13765,2.20245 -0.41297,5.16201 -1.63464,16.07102 -1.63464,16.07102 l 9.0335,-4.83507 c 21.78365,-13.76533 38.57736,-41.5369 51.31031,-84.74285 5.29965,-17.99818 9.18835,-35.87592 12.61248,-51.62002 4.09519,-18.92735 7.62256,-35.15323 11.66612,-41.45087 6.34927,-9.87663 16.03663,-16.55283 25.41425,-23.03973 1.2733,-0.87755 2.56381,-1.72067 3.81988,-2.64984 11.78657,-8.2764 23.50433,-17.82611 26.08533,-35.635012 v -0.395757 c 1.87552,-13.283548 0.29251,-16.67327 -1.5142,-18.22187 z"
     fill="url(#linear-gradient)"
     id="path11"
     style="fill:url(#linear-gradient);stroke-width:1.72067" />
</svg>
