<?xml version="1.0" encoding="UTF-8" standalone="no"?>
<svg
   id="svg"
   width="400"
   height="400"
   viewBox="0, 0, 400,400"
   version="1.1"
   sodipodi:docname="mealie.svg"
   inkscape:version="1.2.1 (9c6d41e410, 2022-07-14)"
   xmlns:inkscape="http://www.inkscape.org/namespaces/inkscape"
   xmlns:sodipodi="http://sodipodi.sourceforge.net/DTD/sodipodi-0.dtd"
   xmlns="http://www.w3.org/2000/svg"
   xmlns:svg="http://www.w3.org/2000/svg">
  <sodipodi:namedview
     id="namedview637"
     pagecolor="#ffffff"
     bordercolor="#000000"
     borderopacity="0.25"
     inkscape:showpageshadow="2"
     inkscape:pageopacity="0.0"
     inkscape:pagecheckerboard="0"
     inkscape:deskcolor="#d1d1d1"
     showgrid="false"
     inkscape:zoom="2.01"
     inkscape:cx="200.24876"
     inkscape:cy="236.06965"
     inkscape:window-width="1920"
     inkscape:window-height="991"
     inkscape:window-x="-9"
     inkscape:window-y="-9"
     inkscape:window-maximized="1"
     inkscape:current-layer="svg" />
  <defs
     id="defs255">
    <linearGradient
       id="linear-gradient"
       x1="168.37935"
       y1="101.41939"
       x2="475.58279"
       y2="450.8562"
       gradientUnits="userSpaceOnUse">
      <stop
         offset="0"
         stop-color="#aa5cc3"
         id="stop250" />
      <stop
         offset="1"
         stop-color="#00a4dc"
         id="stop252" />
    </linearGradient>
  </defs>
  <g
     id="svgg">
    <path
       id="path0"
       d="M291.016 37.765 C 278.171 42.041,269.646 52.160,267.960 65.130 C 267.559 68.218,267.225 105.453,267.212 148.633 L 267.188 226.563 223.789 226.563 C 175.437 226.562,177.100 226.384,174.290 231.891 C 168.362 243.512,169.190 264.145,176.161 278.516 C 200.093 327.849,272.225 320.440,286.458 267.188 C 287.701 262.535,287.851 253.824,288.244 163.281 C 288.665 66.016,288.697 64.420,290.234 62.358 C 297.302 52.879,310.485 56.761,312.461 68.903 C 314.827 83.436,332.813 82.915,332.813 68.313 C 332.813 47.798,310.301 31.345,291.016 37.765 M22.266 94.845 C -4.422 103.308,-8.247 140.072,16.221 152.930 C 18.686 154.225,24.084 156.001,28.216 156.875 C 43.905 160.197,54.643 168.903,60.417 182.983 C 62.083 187.044,62.116 187.978,62.527 242.188 L 62.944 297.266 65.070 304.128 C 74.218 333.655,95.471 353.970,125.000 361.414 C 130.527 362.807,134.780 362.891,200.000 362.891 C 265.220 362.891,269.473 362.807,275.000 361.414 C 304.310 354.025,325.838 333.447,334.933 304.128 L 337.061 297.266 337.476 242.188 C 337.884 187.976,337.917 187.044,339.583 182.983 C 345.357 168.903,356.095 160.197,371.784 156.875 C 390.725 152.866,399.609 142.689,399.609 125.000 C 399.609 92.235,361.929 83.797,323.989 108.067 C 316.998 112.538,317.625 103.674,317.188 204.297 L 316.797 294.141 314.605 300.391 C 307.041 321.960,289.854 337.332,268.331 341.778 C 260.141 343.470,139.917 343.537,131.980 341.854 C 110.009 337.197,92.991 322.049,85.395 300.391 L 83.203 294.141 82.987 211.133 L 82.772 128.125 155.644 128.124 C 223.456 128.123,228.705 128.028,231.250 126.757 C 237.378 123.695,238.449 115.105,233.292 110.378 L 230.492 107.813 153.196 107.813 L 75.901 107.813 70.177 104.747 C 54.408 96.303,32.165 91.706,22.266 94.845 "
       style="fill:url(#linear-gradient)"
       stroke="none"
       fill="#000000"
       fill-rule="evenodd" />
  </g>
</svg>
