<?xml version="1.0" encoding="UTF-8" standalone="no"?>
<svg
   width="32px"
   height="32px"
   viewBox="0 0 32 32"
   style="fill-rule:evenodd;clip-rule:evenodd;stroke-linejoin:round;stroke-miterlimit:2;"
   version="1.1"
   xml:space="preserve"
   id="svg179"
   sodipodi:docname="navidrome.svg"
   inkscape:version="1.2.1 (9c6d41e410, 2022-07-14)"
   xmlns:inkscape="http://www.inkscape.org/namespaces/inkscape"
   xmlns:sodipodi="http://sodipodi.sourceforge.net/DTD/sodipodi-0.dtd"
   xmlns:xlink="http://www.w3.org/1999/xlink"
   xmlns="http://www.w3.org/2000/svg"
   xmlns:svg="http://www.w3.org/2000/svg"><sodipodi:namedview
   id="namedview181"
   pagecolor="#ffffff"
   bordercolor="#000000"
   borderopacity="0.25"
   inkscape:showpageshadow="2"
   inkscape:pageopacity="0.0"
   inkscape:pagecheckerboard="0"
   inkscape:deskcolor="#d1d1d1"
   showgrid="false"
   inkscape:zoom="25.125"
   inkscape:cx="16.0199"
   inkscape:cy="12.079602"
   inkscape:window-width="1920"
   inkscape:window-height="991"
   inkscape:window-x="-9"
   inkscape:window-y="-9"
   inkscape:window-maximized="1"
   inkscape:current-layer="svg179" />
  <defs
   id="defs255">
    <linearGradient
   id="linear-gradient"
   x1="2"
   y1="4"
   x2="28"
   y2="28"
   gradientUnits="userSpaceOnUse">
      <stop
   offset="0"
   stop-color="#aa5cc3"
   id="stop250" />
      <stop
   offset="1"
   stop-color="#00a4dc"
   id="stop252" />
    </linearGradient>
  <linearGradient
   inkscape:collect="always"
   xlink:href="#linear-gradient"
   id="linearGradient611"
   gradientUnits="userSpaceOnUse"
   x1="7.2537313"
   y1="4.5572138"
   x2="27.721394"
   y2="36.437813" /></defs>
<g
   id="Icon"><path
     d="M15.994,1.995c-7.727,0 -14,6.273 -14,14c-0,7.727 6.273,14 14,14c7.727,0 14,-6.273 14,-14c-0,-7.727 -6.273,-14 -14,-14Zm-0,2c6.623,0 12,5.377 12,12c-0,6.623 -5.377,12 -12,12c-6.623,0 -12,-5.377 -12,-12c-0,-6.623 5.377,-12 12,-12Z"
     fill="url(#linear-gradient)"
     id="path168"
     style="fill:url(#linearGradient611)" /><path
     d="M23.994,15.995c-0,4.416 -3.585,8 -8,8c-0.552,0 -1,0.448 -1,1c-0,0.552 0.448,1 1,1c5.519,0 10,-4.481 10,-10c-0,-0.552 -0.448,-1 -1,-1c-0.552,0 -1,0.448 -1,1Zm-16,0c-0,-4.415 3.584,-8 8,-8c0.552,0 1,-0.448 1,-1c-0,-0.552 -0.448,-1 -1,-1c-5.519,0 -10,4.481 -10,10c-0,0.552 0.448,1 1,1c0.552,0 1,-0.448 1,-1Z"
     fill="url(#linear-gradient)"
     id="path170" /><path
     d="M16,10.002c-3.311,-0 -6,2.688 -6,6c0,3.311 2.689,6 6,6c3.311,-0 6,-2.689 6,-6c-0,-3.312 -2.689,-6 -6,-6Zm-0,2c2.208,-0 4,1.792 4,4c0,2.207 -1.792,4 -4,4c-2.208,-0 -4,-1.793 -4,-4c0,-2.208 1.792,-4 4,-4Z"
     fill="url(#linear-gradient)"
     id="path172" /><circle
     cx="16"
     cy="16.002"
     r="1"
     fill="url(#linear-gradient)"
     id="circle174" /><circle
     cx="16"
     cy="16.002"
     r="2"
     fill="url(#linear-gradient)"
     id="circle176" /></g></svg>
