<?xml version="1.0" encoding="UTF-8" standalone="no"?>
<svg
   id="svg"
   version="1.1"
   width="400"
   height="405.12820512820514"
   viewBox="0, 0, 400,405.12820512820514"
   sodipodi:docname="image2vector.svg"
   inkscape:version="1.2.2 (b0a8486541, 2022-12-01)"
   xmlns:inkscape="http://www.inkscape.org/namespaces/inkscape"
   xmlns:sodipodi="http://sodipodi.sourceforge.net/DTD/sodipodi-0.dtd"
   xmlns="http://www.w3.org/2000/svg"
   xmlns:svg="http://www.w3.org/2000/svg">
  <defs
     id="defs11" />
  <sodipodi:namedview
     id="namedview9"
     pagecolor="#505050"
     bordercolor="#ffffff"
     borderopacity="1"
     inkscape:showpageshadow="0"
     inkscape:pageopacity="0"
     inkscape:pagecheckerboard="1"
     inkscape:deskcolor="#505050"
     showgrid="false"
     inkscape:zoom="2.0092405"
     inkscape:cx="191.11699"
     inkscape:cy="327.23808"
     inkscape:window-width="1920"
     inkscape:window-height="1001"
     inkscape:window-x="-9"
     inkscape:window-y="-9"
     inkscape:window-maximized="1"
     inkscape:current-layer="svg" />
  <g
     id="svgg">
    <defs
       id="defs255">
      <linearGradient
         id="linear-gradient"
         x1="158.36673"
         y1="83.918266"
         x2="426.4559"
         y2="454.53067"
         gradientUnits="userSpaceOnUse">
        <stop
           offset="0"
           stop-color="#aa5cc3"
           id="stop250" />
        <stop
           offset="1"
           stop-color="#00a4dc"
           id="stop252" />
      </linearGradient>
    </defs>
    <path
       id="path0"
       d="M45.600 3.000 C 45.600 3.493,44.889 3.600,41.600 3.600 C 38.311 3.600,37.600 3.707,37.600 4.200 C 37.600 4.661,37.089 4.800,35.400 4.800 C 34.190 4.800,33.200 4.980,33.200 5.200 C 33.200 5.420,32.570 5.600,31.800 5.600 C 30.822 5.600,30.400 5.781,30.400 6.200 C 30.400 6.633,29.956 6.800,28.800 6.800 C 27.920 6.800,27.200 6.980,27.200 7.200 C 27.200 7.420,26.750 7.600,26.200 7.600 C 25.578 7.600,25.200 7.827,25.200 8.200 C 25.200 8.530,24.930 8.800,24.600 8.800 C 24.270 8.800,24.000 8.980,24.000 9.200 C 24.000 9.420,23.550 9.600,23.000 9.600 C 22.378 9.600,22.000 9.827,22.000 10.200 C 22.000 10.541,21.641 10.800,21.169 10.800 C 20.306 10.800,18.000 12.815,18.000 13.569 C 18.000 13.806,17.730 14.000,17.400 14.000 C 17.070 14.000,16.800 14.180,16.800 14.400 C 16.800 14.620,16.350 14.800,15.800 14.800 C 15.250 14.800,14.800 14.993,14.800 15.229 C 14.800 15.782,13.782 16.800,13.229 16.800 C 12.993 16.800,12.800 17.184,12.800 17.654 C 12.800 18.124,12.350 18.925,11.800 19.435 C 11.250 19.945,10.800 20.550,10.800 20.781 C 10.800 21.011,10.607 21.200,10.371 21.200 C 9.666 21.200,8.800 22.286,8.800 23.171 C 8.800 23.641,8.540 24.000,8.200 24.000 C 7.870 24.000,7.600 24.270,7.600 24.600 C 7.600 24.930,7.420 25.200,7.200 25.200 C 6.980 25.200,6.800 25.650,6.800 26.200 C 6.800 26.822,6.573 27.200,6.200 27.200 C 5.827 27.200,5.600 27.578,5.600 28.200 C 5.600 28.750,5.420 29.200,5.200 29.200 C 4.980 29.200,4.800 29.650,4.800 30.200 C 4.800 30.822,4.573 31.200,4.200 31.200 C 3.767 31.200,3.600 31.644,3.600 32.800 C 3.600 33.956,3.433 34.400,3.000 34.400 C 2.547 34.400,2.400 34.889,2.400 36.400 C 2.400 37.500,2.220 38.400,2.000 38.400 C 1.774 38.400,1.600 39.533,1.600 41.000 C 1.600 43.044,1.472 43.600,1.000 43.600 C 0.469 43.600,0.401 60.243,0.402 190.600 C 0.403 320.808,0.472 337.600,1.002 337.600 C 1.483 337.600,1.600 338.226,1.600 340.800 C 1.600 342.667,1.767 344.000,2.000 344.000 C 2.220 344.000,2.400 344.630,2.400 345.400 C 2.400 346.378,2.581 346.800,3.000 346.800 C 3.433 346.800,3.600 347.244,3.600 348.400 C 3.600 349.556,3.767 350.000,4.200 350.000 C 4.573 350.000,4.800 350.378,4.800 351.000 C 4.800 351.550,4.980 352.000,5.200 352.000 C 5.420 352.000,5.600 352.450,5.600 353.000 C 5.600 353.622,5.827 354.000,6.200 354.000 C 6.573 354.000,6.800 354.378,6.800 355.000 C 6.800 355.550,6.980 356.000,7.200 356.000 C 7.420 356.000,7.600 356.450,7.600 357.000 C 7.600 357.622,7.827 358.000,8.200 358.000 C 8.530 358.000,8.800 358.204,8.800 358.454 C 8.800 358.704,9.250 359.325,9.800 359.835 C 10.350 360.345,10.800 361.100,10.800 361.513 C 10.800 361.927,11.250 362.506,11.800 362.800 C 12.350 363.094,12.800 363.575,12.800 363.868 C 12.800 364.160,12.993 364.400,13.229 364.400 C 13.782 364.400,14.800 365.418,14.800 365.971 C 14.800 366.207,14.993 366.400,15.229 366.400 C 15.782 366.400,16.800 367.418,16.800 367.971 C 16.800 368.207,17.169 368.400,17.619 368.400 C 18.070 368.400,18.855 368.850,19.365 369.400 C 19.875 369.950,20.496 370.400,20.746 370.400 C 20.996 370.400,21.200 370.670,21.200 371.000 C 21.200 371.373,21.578 371.600,22.200 371.600 C 22.750 371.600,23.200 371.780,23.200 372.000 C 23.200 372.220,23.650 372.400,24.200 372.400 C 24.822 372.400,25.200 372.627,25.200 373.000 C 25.200 373.373,25.578 373.600,26.200 373.600 C 26.750 373.600,27.200 373.780,27.200 374.000 C 27.200 374.220,27.650 374.400,28.200 374.400 C 28.822 374.400,29.200 374.627,29.200 375.000 C 29.200 375.433,29.644 375.600,30.800 375.600 C 31.956 375.600,32.400 375.767,32.400 376.200 C 32.400 376.619,32.822 376.800,33.800 376.800 C 34.570 376.800,35.200 376.980,35.200 377.200 C 35.200 377.433,36.533 377.600,38.400 377.600 C 40.978 377.600,41.600 377.717,41.600 378.200 C 41.600 378.732,55.711 378.800,166.200 378.800 L 290.800 378.800 290.800 377.200 C 290.800 376.044,290.633 375.600,290.200 375.600 C 289.747 375.600,289.600 375.111,289.600 373.600 C 289.600 372.500,289.420 371.600,289.200 371.600 C 288.957 371.600,288.800 369.800,288.800 367.000 C 288.800 363.178,288.699 362.400,288.200 362.400 C 287.717 362.400,287.600 361.778,287.600 359.200 C 287.600 356.622,287.717 356.000,288.200 356.000 C 288.699 356.000,288.800 355.222,288.800 351.400 C 288.800 348.600,288.957 346.800,289.200 346.800 C 289.431 346.800,289.600 345.533,289.600 343.800 L 289.600 340.800 171.800 340.800 C 67.356 340.800,54.000 340.732,54.000 340.200 C 54.000 339.767,53.556 339.600,52.400 339.600 C 51.520 339.600,50.800 339.420,50.800 339.200 C 50.800 338.980,50.350 338.800,49.800 338.800 C 49.178 338.800,48.800 338.573,48.800 338.200 C 48.800 337.870,48.530 337.600,48.200 337.600 C 47.870 337.600,47.600 337.420,47.600 337.200 C 47.600 336.980,47.150 336.800,46.600 336.800 C 46.050 336.800,45.600 336.607,45.600 336.371 C 45.600 335.818,44.582 334.800,44.029 334.800 C 43.793 334.800,43.600 334.530,43.600 334.200 C 43.600 333.870,43.330 333.600,43.000 333.600 C 42.627 333.600,42.400 333.222,42.400 332.600 C 42.400 332.050,42.220 331.600,42.000 331.600 C 41.780 331.600,41.600 331.330,41.600 331.000 C 41.600 330.670,41.330 330.400,41.000 330.400 C 40.627 330.400,40.400 330.022,40.400 329.400 C 40.400 328.850,40.220 328.400,40.000 328.400 C 39.780 328.400,39.600 327.680,39.600 326.800 C 39.600 325.644,39.433 325.200,39.000 325.200 C 38.468 325.200,38.400 309.978,38.400 190.600 C 38.400 71.222,38.468 56.000,39.000 56.000 C 39.433 56.000,39.600 55.556,39.600 54.400 C 39.600 53.520,39.780 52.800,40.000 52.800 C 40.220 52.800,40.400 52.350,40.400 51.800 C 40.400 51.178,40.627 50.800,41.000 50.800 C 41.330 50.800,41.600 50.607,41.600 50.371 C 41.600 49.818,42.618 48.800,43.171 48.800 C 43.407 48.800,43.600 48.440,43.600 48.000 C 43.600 46.970,44.970 45.600,46.000 45.600 C 46.440 45.600,46.800 45.407,46.800 45.171 C 46.800 44.466,47.886 43.600,48.771 43.600 C 49.241 43.600,49.600 43.340,49.600 43.000 C 49.600 42.627,49.978 42.400,50.600 42.400 C 51.150 42.400,51.600 42.220,51.600 42.000 C 51.600 41.780,52.320 41.600,53.200 41.600 C 54.356 41.600,54.800 41.433,54.800 41.000 C 54.800 40.468,69.933 40.400,188.600 40.400 C 307.267 40.400,322.400 40.468,322.400 41.000 C 322.400 41.433,322.844 41.600,324.000 41.600 C 324.880 41.600,325.600 41.780,325.600 42.000 C 325.600 42.220,326.050 42.400,326.600 42.400 C 327.222 42.400,327.600 42.627,327.600 43.000 C 327.600 43.373,327.978 43.600,328.600 43.600 C 329.150 43.600,329.600 43.780,329.600 44.000 C 329.600 44.220,329.870 44.400,330.200 44.400 C 330.530 44.400,330.800 44.574,330.800 44.786 C 330.800 45.309,333.069 47.600,333.587 47.600 C 333.814 47.600,334.000 47.793,334.000 48.029 C 334.000 48.582,335.018 49.600,335.571 49.600 C 335.807 49.600,336.000 50.050,336.000 50.600 C 336.000 51.150,336.180 51.600,336.400 51.600 C 336.620 51.600,336.800 52.056,336.800 52.613 C 336.800 53.169,337.070 53.729,337.400 53.855 C 337.770 53.997,338.000 54.605,338.000 55.443 C 338.000 56.189,338.180 56.800,338.400 56.800 C 338.666 56.800,338.800 96.333,338.800 174.600 L 338.800 292.400 341.000 292.400 C 342.210 292.400,343.200 292.220,343.200 292.000 C 343.200 291.763,344.667 291.600,346.800 291.600 C 349.733 291.600,350.400 291.489,350.400 291.000 C 350.400 290.493,351.333 290.400,356.400 290.400 C 361.467 290.400,362.400 290.493,362.400 291.000 C 362.400 291.489,363.067 291.600,366.000 291.600 C 368.133 291.600,369.600 291.763,369.600 292.000 C 369.600 292.220,370.590 292.400,371.800 292.400 C 373.489 292.400,374.000 292.539,374.000 293.000 C 374.000 293.373,374.378 293.600,375.000 293.600 C 375.622 293.600,376.000 293.373,376.000 293.000 C 376.000 292.670,376.180 292.400,376.400 292.400 C 376.666 292.400,376.800 251.200,376.800 169.600 C 376.800 88.000,376.666 46.800,376.400 46.800 C 376.163 46.800,376.000 45.333,376.000 43.200 C 376.000 40.267,375.889 39.600,375.400 39.600 C 374.939 39.600,374.800 39.089,374.800 37.400 C 374.800 36.190,374.620 35.200,374.400 35.200 C 374.180 35.200,374.000 34.570,374.000 33.800 C 374.000 32.822,373.819 32.400,373.400 32.400 C 373.027 32.400,372.800 32.022,372.800 31.400 C 372.800 30.778,372.573 30.400,372.200 30.400 C 371.795 30.400,371.600 29.995,371.600 29.157 C 371.600 28.296,371.439 27.976,371.075 28.116 C 370.696 28.261,370.598 27.997,370.721 27.159 C 370.848 26.289,370.730 26.000,370.245 26.000 C 369.859 26.000,369.600 25.667,369.600 25.171 C 369.600 24.286,368.734 23.200,368.029 23.200 C 367.793 23.200,367.600 22.750,367.600 22.200 C 367.600 21.650,367.420 21.200,367.200 21.200 C 366.980 21.200,366.800 20.930,366.800 20.600 C 366.800 20.270,366.530 20.000,366.200 20.000 C 365.870 20.000,365.600 19.807,365.600 19.571 C 365.600 19.018,364.582 18.000,364.029 18.000 C 363.793 18.000,363.600 17.730,363.600 17.400 C 363.600 17.070,363.407 16.800,363.171 16.800 C 362.618 16.800,361.600 15.782,361.600 15.229 C 361.600 14.993,361.407 14.800,361.171 14.800 C 360.618 14.800,359.600 13.782,359.600 13.229 C 359.600 12.993,359.330 12.800,359.000 12.800 C 358.670 12.800,358.400 12.530,358.400 12.200 C 358.400 11.827,358.022 11.600,357.400 11.600 C 356.850 11.600,356.400 11.420,356.400 11.200 C 356.400 10.980,356.130 10.800,355.800 10.800 C 355.470 10.800,355.200 10.530,355.200 10.200 C 355.200 9.827,354.822 9.600,354.200 9.600 C 353.650 9.600,353.200 9.420,353.200 9.200 C 353.200 8.980,352.750 8.800,352.200 8.800 C 351.578 8.800,351.200 8.573,351.200 8.200 C 351.200 7.827,350.822 7.600,350.200 7.600 C 349.650 7.600,349.200 7.420,349.200 7.200 C 349.200 6.980,348.750 6.800,348.200 6.800 C 347.578 6.800,347.200 6.573,347.200 6.200 C 347.200 5.767,346.756 5.600,345.600 5.600 C 344.720 5.600,344.000 5.420,344.000 5.200 C 344.000 4.980,343.100 4.800,342.000 4.800 C 340.489 4.800,340.000 4.653,340.000 4.200 C 340.000 3.705,339.267 3.600,335.800 3.600 C 332.333 3.600,331.600 3.495,331.600 3.000 C 331.600 2.468,315.444 2.400,188.600 2.400 C 61.756 2.400,45.600 2.468,45.600 3.000 M123.600 92.200 C 123.600 92.689,122.933 92.800,120.000 92.800 C 117.867 92.800,116.400 92.963,116.400 93.200 C 116.400 93.420,115.764 93.600,114.987 93.600 C 114.101 93.600,113.489 93.823,113.345 94.200 C 113.218 94.530,112.684 94.800,112.157 94.800 C 111.573 94.800,111.200 95.034,111.200 95.400 C 111.200 95.773,110.822 96.000,110.200 96.000 C 109.650 96.000,109.200 96.180,109.200 96.400 C 109.200 96.620,108.750 96.800,108.200 96.800 C 107.578 96.800,107.200 97.027,107.200 97.400 C 107.200 97.773,106.822 98.000,106.200 98.000 C 105.650 98.000,105.200 98.180,105.200 98.400 C 105.200 98.620,104.930 98.800,104.600 98.800 C 104.270 98.800,104.000 98.993,104.000 99.229 C 104.000 99.782,102.982 100.800,102.429 100.800 C 102.193 100.800,102.000 100.986,102.000 101.213 C 102.000 101.731,99.709 104.000,99.186 104.000 C 98.974 104.000,98.800 104.193,98.800 104.429 C 98.800 104.982,97.782 106.000,97.229 106.000 C 96.993 106.000,96.800 106.270,96.800 106.600 C 96.800 106.930,96.620 107.200,96.400 107.200 C 96.180 107.200,96.000 107.650,96.000 108.200 C 96.000 108.750,95.807 109.200,95.571 109.200 C 94.808 109.200,94.000 110.317,94.000 111.371 C 94.000 112.019,93.778 112.400,93.400 112.400 C 93.034 112.400,92.800 112.773,92.800 113.357 C 92.800 113.884,92.530 114.418,92.200 114.545 C 91.849 114.679,91.600 115.279,91.600 115.987 C 91.600 116.654,91.420 117.200,91.200 117.200 C 90.980 117.200,90.800 117.920,90.800 118.800 C 90.800 119.956,90.633 120.400,90.200 120.400 C 89.747 120.400,89.600 120.889,89.600 122.400 C 89.600 123.500,89.420 124.400,89.200 124.400 C 88.935 124.400,88.800 144.000,88.800 182.400 C 88.800 233.689,88.731 240.400,88.200 240.400 C 87.673 240.400,87.600 243.400,87.600 265.000 C 87.600 286.600,87.673 289.600,88.200 289.600 C 88.530 289.600,88.800 289.780,88.800 290.000 C 88.800 290.261,95.533 290.400,108.200 290.400 C 120.867 290.400,127.600 290.261,127.600 290.000 C 127.600 289.780,128.500 289.600,129.600 289.600 C 131.111 289.600,131.600 289.453,131.600 289.000 C 131.600 288.600,132.000 288.400,132.800 288.400 C 133.460 288.400,134.000 288.220,134.000 288.000 C 134.000 287.780,134.450 287.600,135.000 287.600 C 135.550 287.600,136.000 287.407,136.000 287.171 C 136.000 286.618,137.018 285.600,137.571 285.600 C 137.807 285.600,138.000 285.330,138.000 285.000 C 138.000 284.670,138.180 284.400,138.400 284.400 C 138.620 284.400,138.800 284.130,138.800 283.800 C 138.800 283.470,139.070 283.200,139.400 283.200 C 139.730 283.200,140.000 283.020,140.000 282.800 C 140.000 282.580,140.270 282.400,140.600 282.400 C 140.930 282.400,141.200 282.130,141.200 281.800 C 141.200 281.470,141.380 281.200,141.600 281.200 C 141.820 281.200,142.000 280.750,142.000 280.200 C 142.000 279.650,142.193 279.200,142.429 279.200 C 143.283 279.200,144.000 278.026,144.000 276.629 C 144.000 275.625,144.179 275.200,144.600 275.200 C 145.033 275.200,145.200 274.756,145.200 273.600 C 145.200 272.720,145.380 272.000,145.600 272.000 C 145.864 272.000,146.000 258.400,146.000 232.000 C 146.000 196.711,146.071 192.000,146.600 192.000 C 146.930 192.000,147.200 192.270,147.200 192.600 C 147.200 192.930,147.470 193.200,147.800 193.200 C 148.130 193.200,148.400 193.470,148.400 193.800 C 148.400 194.130,148.580 194.400,148.800 194.400 C 149.020 194.400,149.200 194.850,149.200 195.400 C 149.200 195.950,149.393 196.400,149.629 196.400 C 150.182 196.400,151.200 197.418,151.200 197.971 C 151.200 198.207,151.393 198.400,151.629 198.400 C 152.182 198.400,153.200 199.418,153.200 199.971 C 153.200 200.207,153.393 200.400,153.629 200.400 C 154.182 200.400,155.200 201.418,155.200 201.971 C 155.200 202.207,155.470 202.400,155.800 202.400 C 156.130 202.400,156.400 202.670,156.400 203.000 C 156.400 203.330,156.593 203.600,156.829 203.600 C 157.382 203.600,158.400 204.618,158.400 205.171 C 158.400 205.407,158.670 205.600,159.000 205.600 C 159.340 205.600,159.600 205.959,159.600 206.429 C 159.600 207.314,160.466 208.400,161.171 208.400 C 161.407 208.400,161.600 208.593,161.600 208.829 C 161.600 209.382,162.618 210.400,163.171 210.400 C 163.407 210.400,163.600 210.670,163.600 211.000 C 163.600 211.330,163.870 211.600,164.200 211.600 C 164.530 211.600,164.800 211.793,164.800 212.029 C 164.800 212.582,165.818 213.600,166.371 213.600 C 166.607 213.600,166.800 213.793,166.800 214.029 C 166.800 214.582,167.818 215.600,168.371 215.600 C 168.607 215.600,168.800 215.793,168.800 216.029 C 168.800 216.582,169.818 217.600,170.371 217.600 C 170.607 217.600,170.800 217.789,170.800 218.019 C 170.800 218.250,171.250 218.855,171.800 219.365 C 172.350 219.875,172.800 220.676,172.800 221.146 C 172.800 221.616,172.993 222.000,173.229 222.000 C 173.782 222.000,174.800 223.018,174.800 223.571 C 174.800 223.807,174.993 224.000,175.229 224.000 C 175.782 224.000,176.800 225.018,176.800 225.571 C 176.800 225.807,176.993 226.000,177.229 226.000 C 177.782 226.000,178.800 227.018,178.800 227.571 C 178.800 227.807,179.070 228.000,179.400 228.000 C 179.730 228.000,180.000 228.270,180.000 228.600 C 180.000 228.930,180.193 229.200,180.429 229.200 C 180.982 229.200,182.000 230.218,182.000 230.771 C 182.000 231.007,182.193 231.200,182.429 231.200 C 182.982 231.200,184.000 232.218,184.000 232.771 C 184.000 233.007,184.193 233.200,184.429 233.200 C 185.106 233.200,186.000 234.272,186.000 235.083 C 186.000 235.837,187.290 237.200,188.005 237.200 C 188.222 237.200,188.400 237.393,188.400 237.629 C 188.400 238.182,189.418 239.200,189.971 239.200 C 190.207 239.200,190.400 239.393,190.400 239.629 C 190.400 240.182,191.418 241.200,191.971 241.200 C 192.207 241.200,192.400 241.393,192.400 241.629 C 192.400 242.182,193.418 243.200,193.971 243.200 C 194.207 243.200,194.400 243.394,194.400 243.631 C 194.400 244.191,196.609 246.400,197.169 246.400 C 197.406 246.400,197.600 246.593,197.600 246.829 C 197.600 247.382,198.618 248.400,199.171 248.400 C 199.407 248.400,199.600 248.850,199.600 249.400 C 199.600 249.950,199.780 250.400,200.000 250.400 C 200.220 250.400,200.400 250.670,200.400 251.000 C 200.400 251.330,200.670 251.600,201.000 251.600 C 201.330 251.600,201.600 251.793,201.600 252.029 C 201.600 252.582,202.618 253.600,203.171 253.600 C 203.407 253.600,203.600 253.870,203.600 254.200 C 203.600 254.530,203.793 254.800,204.029 254.800 C 204.582 254.800,205.600 255.818,205.600 256.371 C 205.600 256.607,205.793 256.800,206.029 256.800 C 206.582 256.800,207.600 257.818,207.600 258.371 C 207.600 258.607,207.793 258.800,208.029 258.800 C 208.582 258.800,209.600 259.818,209.600 260.371 C 209.600 260.607,209.870 260.800,210.200 260.800 C 210.530 260.800,210.800 261.040,210.800 261.332 C 210.800 261.625,211.250 262.106,211.800 262.400 C 212.428 262.736,212.800 263.282,212.800 263.868 C 212.800 264.430,213.038 264.800,213.400 264.800 C 213.730 264.800,214.000 264.993,214.000 265.229 C 214.000 265.782,215.018 266.800,215.571 266.800 C 215.807 266.800,216.000 266.992,216.000 267.226 C 216.000 267.460,216.978 268.630,218.174 269.826 C 219.370 271.022,220.540 272.000,220.774 272.000 C 221.008 272.000,221.200 272.193,221.200 272.429 C 221.200 272.982,222.218 274.000,222.771 274.000 C 223.007 274.000,223.200 274.193,223.200 274.429 C 223.200 274.982,224.218 276.000,224.771 276.000 C 225.007 276.000,225.200 276.463,225.200 277.029 C 225.200 278.083,226.008 279.200,226.771 279.200 C 227.007 279.200,227.200 279.470,227.200 279.800 C 227.200 280.130,227.393 280.400,227.629 280.400 C 228.182 280.400,229.200 281.418,229.200 281.971 C 229.200 282.207,229.470 282.400,229.800 282.400 C 230.130 282.400,230.400 282.580,230.400 282.800 C 230.400 283.020,230.850 283.200,231.400 283.200 C 231.950 283.200,232.400 283.394,232.400 283.631 C 232.400 284.385,234.706 286.400,235.569 286.400 C 236.041 286.400,236.400 286.659,236.400 287.000 C 236.400 287.373,236.778 287.600,237.400 287.600 C 237.950 287.600,238.400 287.780,238.400 288.000 C 238.400 288.220,239.120 288.400,240.000 288.400 C 241.156 288.400,241.600 288.567,241.600 289.000 C 241.600 289.472,242.156 289.600,244.200 289.600 C 245.667 289.600,246.800 289.774,246.800 290.000 C 246.800 290.240,248.400 290.400,250.800 290.400 C 253.200 290.400,254.800 290.240,254.800 290.000 C 254.800 289.774,255.933 289.600,257.400 289.600 C 259.444 289.600,260.000 289.472,260.000 289.000 C 260.000 288.567,260.444 288.400,261.600 288.400 C 262.480 288.400,263.200 288.220,263.200 288.000 C 263.200 287.780,263.650 287.600,264.200 287.600 C 264.822 287.600,265.200 287.373,265.200 287.000 C 265.200 286.627,265.578 286.400,266.200 286.400 C 266.750 286.400,267.200 286.220,267.200 286.000 C 267.200 285.780,267.650 285.600,268.200 285.600 C 268.822 285.600,269.200 285.373,269.200 285.000 C 269.200 284.670,269.470 284.400,269.800 284.400 C 270.130 284.400,270.400 284.130,270.400 283.800 C 270.400 283.460,270.759 283.200,271.229 283.200 C 272.114 283.200,273.200 282.334,273.200 281.629 C 273.200 281.393,273.393 281.200,273.629 281.200 C 273.864 281.200,274.314 280.943,274.629 280.629 C 274.943 280.314,275.200 279.864,275.200 279.629 C 275.200 279.393,275.394 279.200,275.631 279.200 C 275.868 279.200,276.588 278.674,277.231 278.031 C 277.874 277.388,278.400 276.668,278.400 276.431 C 278.400 276.194,278.670 276.000,279.000 276.000 C 279.340 276.000,279.600 275.641,279.600 275.171 C 279.600 274.286,280.466 273.200,281.171 273.200 C 281.407 273.200,281.600 272.750,281.600 272.200 C 281.600 271.650,281.780 271.200,282.000 271.200 C 282.220 271.200,282.400 270.930,282.400 270.600 C 282.400 270.270,282.670 270.000,283.000 270.000 C 283.373 270.000,283.600 269.622,283.600 269.000 C 283.600 268.378,283.827 268.000,284.200 268.000 C 284.633 268.000,284.800 267.556,284.800 266.400 C 284.800 265.520,284.980 264.800,285.200 264.800 C 285.420 264.800,285.600 264.350,285.600 263.800 C 285.600 263.178,285.827 262.800,286.200 262.800 C 286.653 262.800,286.800 262.311,286.800 260.800 C 286.800 259.700,286.980 258.800,287.200 258.800 C 287.420 258.800,287.600 257.900,287.600 256.800 C 287.600 255.290,287.747 254.800,288.199 254.800 C 288.730 254.800,288.798 245.420,288.798 173.200 L 288.798 91.600 267.799 91.600 C 249.400 91.600,246.800 91.674,246.800 92.200 C 246.800 92.573,246.422 92.800,245.800 92.800 C 245.250 92.800,244.800 92.980,244.800 93.200 C 244.800 93.420,244.344 93.600,243.787 93.600 C 243.231 93.600,242.671 93.870,242.545 94.200 C 242.418 94.530,241.884 94.800,241.357 94.800 C 240.831 94.800,240.400 94.993,240.400 95.229 C 240.400 95.782,239.382 96.800,238.829 96.800 C 238.593 96.800,238.400 96.993,238.400 97.229 C 238.400 97.782,237.382 98.800,236.829 98.800 C 236.593 98.800,236.400 99.070,236.400 99.400 C 236.400 99.730,236.130 100.000,235.800 100.000 C 235.427 100.000,235.200 100.378,235.200 101.000 C 235.200 101.550,235.020 102.000,234.800 102.000 C 234.580 102.000,234.400 102.450,234.400 103.000 C 234.400 103.622,234.173 104.000,233.800 104.000 C 233.427 104.000,233.200 104.378,233.200 105.000 C 233.200 105.550,233.020 106.000,232.800 106.000 C 232.580 106.000,232.400 106.720,232.400 107.600 C 232.400 108.756,232.233 109.200,231.800 109.200 C 231.271 109.200,231.200 114.067,231.200 150.600 C 231.200 177.933,231.064 192.000,230.800 192.000 C 230.580 192.000,230.400 191.820,230.400 191.600 C 230.400 191.380,230.130 191.200,229.800 191.200 C 229.470 191.200,229.200 191.007,229.200 190.771 C 229.200 190.536,228.943 190.086,228.629 189.771 C 228.314 189.457,227.864 189.200,227.629 189.200 C 227.393 189.200,227.200 188.930,227.200 188.600 C 227.200 188.270,227.007 188.000,226.771 188.000 C 226.218 188.000,225.200 186.982,225.200 186.429 C 225.200 186.193,224.930 186.000,224.600 186.000 C 224.270 186.000,224.000 185.807,224.000 185.571 C 224.000 185.336,223.743 184.886,223.429 184.571 C 223.114 184.257,222.664 184.000,222.429 184.000 C 222.193 184.000,222.000 183.550,222.000 183.000 C 222.000 182.450,221.820 182.000,221.600 182.000 C 221.380 182.000,221.200 181.730,221.200 181.400 C 221.200 181.070,220.930 180.800,220.600 180.800 C 220.270 180.800,220.000 180.620,220.000 180.400 C 220.000 180.180,219.730 180.000,219.400 180.000 C 219.070 180.000,218.800 179.807,218.800 179.571 C 218.800 179.336,218.543 178.886,218.229 178.571 C 217.914 178.257,217.464 178.000,217.229 178.000 C 216.993 178.000,216.800 177.730,216.800 177.400 C 216.800 177.070,216.620 176.800,216.400 176.800 C 216.180 176.800,216.000 176.530,216.000 176.200 C 216.000 175.870,215.807 175.600,215.571 175.600 C 215.018 175.600,214.000 174.582,214.000 174.029 C 214.000 173.793,213.730 173.600,213.400 173.600 C 213.070 173.600,212.800 173.420,212.800 173.200 C 212.800 172.980,212.530 172.800,212.200 172.800 C 211.827 172.800,211.600 172.422,211.600 171.800 C 211.600 171.250,211.420 170.800,211.200 170.800 C 210.980 170.800,210.800 170.530,210.800 170.200 C 210.800 169.870,210.530 169.600,210.200 169.600 C 209.870 169.600,209.600 169.407,209.600 169.171 C 209.600 168.618,208.582 167.600,208.029 167.600 C 207.793 167.600,207.600 167.407,207.600 167.171 C 207.600 166.618,206.582 165.600,206.029 165.600 C 205.793 165.600,205.600 165.407,205.600 165.171 C 205.600 164.618,204.582 163.600,204.029 163.600 C 203.793 163.600,203.600 163.330,203.600 163.000 C 203.600 162.670,203.407 162.400,203.171 162.400 C 202.618 162.400,201.600 161.382,201.600 160.829 C 201.600 160.593,201.330 160.400,201.000 160.400 C 200.627 160.400,200.400 160.022,200.400 159.400 C 200.400 158.850,200.220 158.400,200.000 158.400 C 199.780 158.400,199.600 158.130,199.600 157.800 C 199.600 157.470,199.407 157.200,199.171 157.200 C 198.618 157.200,197.600 156.182,197.600 155.629 C 197.600 155.393,197.330 155.200,197.000 155.200 C 196.670 155.200,196.400 155.020,196.400 154.800 C 196.400 154.580,196.130 154.400,195.800 154.400 C 195.470 154.400,195.200 154.130,195.200 153.800 C 195.200 153.470,195.020 153.200,194.800 153.200 C 194.580 153.200,194.400 152.930,194.400 152.600 C 194.400 152.270,194.207 152.000,193.971 152.000 C 193.418 152.000,192.400 150.982,192.400 150.429 C 192.400 150.193,192.207 150.000,191.971 150.000 C 191.418 150.000,190.400 148.982,190.400 148.429 C 190.400 148.193,190.130 148.000,189.800 148.000 C 189.460 148.000,189.200 147.641,189.200 147.171 C 189.200 146.286,188.334 145.200,187.629 145.200 C 187.393 145.200,187.200 144.930,187.200 144.600 C 187.200 144.270,186.930 144.000,186.600 144.000 C 186.270 144.000,186.000 143.807,186.000 143.571 C 186.000 143.336,185.743 142.886,185.429 142.571 C 185.114 142.257,184.664 142.000,184.429 142.000 C 184.193 142.000,184.000 141.807,184.000 141.571 C 184.000 141.336,183.743 140.886,183.429 140.571 C 183.114 140.257,182.664 140.000,182.429 140.000 C 182.193 140.000,182.000 139.807,182.000 139.571 C 182.000 139.336,181.743 138.886,181.429 138.571 C 181.114 138.257,180.664 138.000,180.429 138.000 C 180.193 138.000,180.000 137.730,180.000 137.400 C 180.000 137.070,179.730 136.800,179.400 136.800 C 179.070 136.800,178.800 136.530,178.800 136.200 C 178.800 135.870,178.620 135.600,178.400 135.600 C 178.180 135.600,178.000 135.150,178.000 134.600 C 178.000 134.050,177.807 133.600,177.571 133.600 C 177.336 133.600,176.886 133.343,176.571 133.029 C 176.257 132.714,176.000 132.264,176.000 132.029 C 176.000 131.793,175.807 131.600,175.571 131.600 C 175.336 131.600,174.886 131.343,174.571 131.029 C 174.257 130.714,174.000 130.264,174.000 130.029 C 174.000 129.793,173.730 129.600,173.400 129.600 C 173.070 129.600,172.800 129.420,172.800 129.200 C 172.800 128.980,172.530 128.800,172.200 128.800 C 171.870 128.800,171.600 128.530,171.600 128.200 C 171.600 127.870,171.420 127.600,171.200 127.600 C 170.980 127.600,170.800 127.330,170.800 127.000 C 170.800 126.670,170.607 126.400,170.371 126.400 C 169.818 126.400,168.800 125.382,168.800 124.829 C 168.800 124.593,168.607 124.400,168.371 124.400 C 167.666 124.400,166.800 123.314,166.800 122.429 C 166.800 121.959,166.540 121.600,166.200 121.600 C 165.870 121.600,165.600 121.406,165.600 121.169 C 165.600 120.609,163.391 118.400,162.831 118.400 C 162.594 118.400,162.400 118.207,162.400 117.971 C 162.400 117.418,161.382 116.400,160.829 116.400 C 160.593 116.400,160.400 116.207,160.400 115.971 C 160.400 115.418,159.382 114.400,158.829 114.400 C 158.593 114.400,158.400 114.207,158.400 113.971 C 158.400 113.418,157.382 112.400,156.829 112.400 C 156.593 112.400,156.400 111.860,156.400 111.200 C 156.400 110.540,156.207 110.000,155.971 110.000 C 155.418 110.000,154.400 108.982,154.400 108.429 C 154.400 108.193,154.207 108.000,153.971 108.000 C 153.418 108.000,152.400 106.982,152.400 106.429 C 152.400 106.193,152.207 106.000,151.971 106.000 C 151.418 106.000,150.400 104.982,150.400 104.429 C 150.400 104.193,150.160 104.000,149.868 104.000 C 149.575 104.000,149.094 103.550,148.800 103.000 C 148.506 102.450,148.025 102.000,147.732 102.000 C 147.440 102.000,147.200 101.730,147.200 101.400 C 147.200 101.070,147.007 100.800,146.771 100.800 C 146.218 100.800,145.200 99.782,145.200 99.229 C 145.200 98.993,144.930 98.800,144.600 98.800 C 144.270 98.800,144.000 98.620,144.000 98.400 C 144.000 98.180,143.550 98.000,143.000 98.000 C 142.450 98.000,142.000 97.807,142.000 97.571 C 142.000 96.808,140.883 96.000,139.829 96.000 C 139.181 96.000,138.800 95.778,138.800 95.400 C 138.800 94.981,138.378 94.800,137.400 94.800 C 136.422 94.800,136.000 94.619,136.000 94.200 C 136.000 93.767,135.556 93.600,134.400 93.600 C 133.520 93.600,132.800 93.420,132.800 93.200 C 132.800 92.963,131.333 92.800,129.200 92.800 C 126.267 92.800,125.600 92.689,125.600 92.200 C 125.600 91.827,125.222 91.600,124.600 91.600 C 123.978 91.600,123.600 91.827,123.600 92.200 M348.400 315.600 C 348.400 315.820,347.410 316.000,346.200 316.000 C 344.511 316.000,344.000 316.139,344.000 316.600 C 344.000 317.019,343.578 317.200,342.600 317.200 C 341.622 317.200,341.200 317.381,341.200 317.800 C 341.200 318.233,340.756 318.400,339.600 318.400 C 338.720 318.400,338.000 318.580,338.000 318.800 C 338.000 319.020,337.550 319.200,337.000 319.200 C 336.378 319.200,336.000 319.427,336.000 319.800 C 336.000 320.173,335.622 320.400,335.000 320.400 C 334.450 320.400,334.000 320.580,334.000 320.800 C 334.000 321.020,333.730 321.200,333.400 321.200 C 333.070 321.200,332.800 321.470,332.800 321.800 C 332.800 322.173,332.422 322.400,331.800 322.400 C 331.250 322.400,330.800 322.580,330.800 322.800 C 330.800 323.020,330.530 323.200,330.200 323.200 C 329.870 323.200,329.600 323.393,329.600 323.629 C 329.600 324.182,328.582 325.200,328.029 325.200 C 327.793 325.200,327.600 325.470,327.600 325.800 C 327.600 326.173,327.222 326.400,326.600 326.400 C 326.050 326.400,325.600 326.593,325.600 326.829 C 325.600 327.382,324.582 328.400,324.029 328.400 C 323.793 328.400,323.600 328.850,323.600 329.400 C 323.600 330.022,323.373 330.400,323.000 330.400 C 322.670 330.400,322.400 330.593,322.400 330.829 C 322.400 331.064,322.143 331.514,321.829 331.829 C 321.514 332.143,321.064 332.400,320.829 332.400 C 320.593 332.400,320.400 332.670,320.400 333.000 C 320.400 333.330,320.220 333.600,320.000 333.600 C 319.780 333.600,319.600 334.050,319.600 334.600 C 319.600 335.222,319.373 335.600,319.000 335.600 C 318.627 335.600,318.400 335.978,318.400 336.600 C 318.400 337.150,318.220 337.600,318.000 337.600 C 317.780 337.600,317.600 337.870,317.600 338.200 C 317.600 338.530,317.330 338.800,317.000 338.800 C 316.585 338.800,316.400 339.217,316.400 340.157 C 316.400 340.995,316.170 341.603,315.800 341.745 C 315.470 341.871,315.200 342.431,315.200 342.987 C 315.200 343.544,315.020 344.000,314.800 344.000 C 314.580 344.000,314.400 344.900,314.400 346.000 C 314.400 347.511,314.253 348.000,313.800 348.000 C 313.347 348.000,313.200 348.489,313.200 350.000 C 313.200 351.100,313.020 352.000,312.800 352.000 C 312.548 352.000,312.400 354.667,312.400 359.200 C 312.400 363.733,312.548 366.400,312.800 366.400 C 313.026 366.400,313.200 367.533,313.200 369.000 C 313.200 371.044,313.328 371.600,313.800 371.600 C 314.219 371.600,314.400 372.022,314.400 373.000 C 314.400 373.770,314.580 374.400,314.800 374.400 C 315.020 374.400,315.200 374.856,315.200 375.413 C 315.200 375.969,315.470 376.529,315.800 376.655 C 316.170 376.797,316.400 377.405,316.400 378.243 C 316.400 379.183,316.585 379.600,317.000 379.600 C 317.330 379.600,317.600 379.870,317.600 380.200 C 317.600 380.530,317.780 380.800,318.000 380.800 C 318.220 380.800,318.400 381.250,318.400 381.800 C 318.400 382.422,318.627 382.800,319.000 382.800 C 319.373 382.800,319.600 383.178,319.600 383.800 C 319.600 384.350,319.780 384.800,320.000 384.800 C 320.220 384.800,320.400 385.070,320.400 385.400 C 320.400 385.730,320.593 386.000,320.829 386.000 C 321.534 386.000,322.400 387.086,322.400 387.971 C 322.400 388.441,322.660 388.800,323.000 388.800 C 323.330 388.800,323.600 389.070,323.600 389.400 C 323.600 389.730,323.793 390.000,324.029 390.000 C 324.582 390.000,325.600 391.018,325.600 391.571 C 325.600 391.807,325.870 392.000,326.200 392.000 C 326.530 392.000,326.800 392.270,326.800 392.600 C 326.800 392.940,327.159 393.200,327.629 393.200 C 328.514 393.200,329.600 394.066,329.600 394.771 C 329.600 395.007,329.870 395.200,330.200 395.200 C 330.530 395.200,330.800 395.380,330.800 395.600 C 330.800 395.820,331.250 396.000,331.800 396.000 C 332.422 396.000,332.800 396.227,332.800 396.600 C 332.800 396.930,333.070 397.200,333.400 397.200 C 333.730 397.200,334.000 397.380,334.000 397.600 C 334.000 397.820,334.450 398.000,335.000 398.000 C 335.622 398.000,336.000 398.227,336.000 398.600 C 336.000 398.973,336.378 399.200,337.000 399.200 C 337.550 399.200,338.000 399.380,338.000 399.600 C 338.000 399.820,338.720 400.000,339.600 400.000 C 340.756 400.000,341.200 400.167,341.200 400.600 C 341.200 401.019,341.622 401.200,342.600 401.200 C 343.578 401.200,344.000 401.381,344.000 401.800 C 344.000 402.261,344.511 402.400,346.200 402.400 C 347.410 402.400,348.400 402.580,348.400 402.800 C 348.400 403.054,351.533 403.200,357.000 403.200 C 362.467 403.200,365.600 403.054,365.600 402.800 C 365.600 402.580,366.500 402.400,367.600 402.400 C 369.111 402.400,369.600 402.253,369.600 401.800 C 369.600 401.367,370.044 401.200,371.200 401.200 C 372.356 401.200,372.800 401.033,372.800 400.600 C 372.800 400.227,373.178 400.000,373.800 400.000 C 374.350 400.000,374.800 399.820,374.800 399.600 C 374.800 399.380,375.250 399.200,375.800 399.200 C 376.422 399.200,376.800 398.973,376.800 398.600 C 376.800 398.227,377.178 398.000,377.800 398.000 C 378.350 398.000,378.800 397.820,378.800 397.600 C 378.800 397.380,379.340 397.200,380.000 397.200 C 380.660 397.200,381.200 397.007,381.200 396.771 C 381.200 396.066,382.286 395.200,383.171 395.200 C 383.641 395.200,384.000 394.940,384.000 394.600 C 384.000 394.270,384.193 394.000,384.429 394.000 C 384.982 394.000,386.000 392.982,386.000 392.429 C 386.000 392.193,386.270 392.000,386.600 392.000 C 386.930 392.000,387.200 391.730,387.200 391.400 C 387.200 391.070,387.393 390.800,387.629 390.800 C 388.182 390.800,389.200 389.782,389.200 389.229 C 389.200 388.993,389.393 388.800,389.629 388.800 C 390.182 388.800,391.200 387.782,391.200 387.229 C 391.200 386.993,391.470 386.800,391.800 386.800 C 392.173 386.800,392.400 386.422,392.400 385.800 C 392.400 385.250,392.580 384.800,392.800 384.800 C 393.020 384.800,393.200 384.530,393.200 384.200 C 393.200 383.870,393.470 383.600,393.800 383.600 C 394.173 383.600,394.400 383.222,394.400 382.600 C 394.400 382.050,394.580 381.600,394.800 381.600 C 395.020 381.600,395.200 381.150,395.200 380.600 C 395.200 379.978,395.427 379.600,395.800 379.600 C 396.173 379.600,396.400 379.222,396.400 378.600 C 396.400 377.978,396.627 377.600,397.000 377.600 C 397.373 377.600,397.600 377.222,397.600 376.600 C 397.600 376.050,397.780 375.600,398.000 375.600 C 398.220 375.600,398.400 374.880,398.400 374.000 C 398.400 372.922,398.576 372.400,398.941 372.400 C 399.667 372.400,400.000 368.249,400.000 359.200 C 400.000 350.151,399.667 346.000,398.941 346.000 C 398.576 346.000,398.400 345.478,398.400 344.400 C 398.400 343.520,398.220 342.800,398.000 342.800 C 397.780 342.800,397.600 342.350,397.600 341.800 C 397.600 341.178,397.373 340.800,397.000 340.800 C 396.627 340.800,396.400 340.422,396.400 339.800 C 396.400 339.178,396.173 338.800,395.800 338.800 C 395.427 338.800,395.200 338.422,395.200 337.800 C 395.200 337.250,395.020 336.800,394.800 336.800 C 394.580 336.800,394.400 336.350,394.400 335.800 C 394.400 335.178,394.173 334.800,393.800 334.800 C 393.470 334.800,393.200 334.530,393.200 334.200 C 393.200 333.870,393.020 333.600,392.800 333.600 C 392.580 333.600,392.400 333.150,392.400 332.600 C 392.400 331.978,392.173 331.600,391.800 331.600 C 391.470 331.600,391.200 331.407,391.200 331.171 C 391.200 330.618,390.182 329.600,389.629 329.600 C 389.393 329.600,389.200 329.407,389.200 329.171 C 389.200 328.618,388.182 327.600,387.629 327.600 C 387.393 327.600,387.200 327.330,387.200 327.000 C 387.200 326.670,386.930 326.400,386.600 326.400 C 386.270 326.400,386.000 326.207,386.000 325.971 C 386.000 325.266,384.914 324.400,384.029 324.400 C 383.559 324.400,383.200 324.140,383.200 323.800 C 383.200 323.470,383.007 323.200,382.771 323.200 C 382.218 323.200,381.200 322.182,381.200 321.629 C 381.200 321.393,380.660 321.200,380.000 321.200 C 379.340 321.200,378.800 321.020,378.800 320.800 C 378.800 320.580,378.350 320.400,377.800 320.400 C 377.178 320.400,376.800 320.173,376.800 319.800 C 376.800 319.427,376.422 319.200,375.800 319.200 C 375.250 319.200,374.800 319.020,374.800 318.800 C 374.800 318.580,374.080 318.400,373.200 318.400 C 372.044 318.400,371.600 318.233,371.600 317.800 C 371.600 317.381,371.178 317.200,370.200 317.200 C 369.222 317.200,368.800 317.019,368.800 316.600 C 368.800 316.147,368.311 316.000,366.800 316.000 C 365.700 316.000,364.800 315.820,364.800 315.600 C 364.800 315.346,361.800 315.200,356.600 315.200 C 351.400 315.200,348.400 315.346,348.400 315.600 "
       style="fill:url(#linear-gradient)"
       stroke="none"
       fill="#4451e9"
       fill-rule="evenodd" />
  </g>
</svg>
