<?xml version="1.0" encoding="UTF-8" standalone="no"?>
<svg
   id="svg"
   width="400"
   height="400"
   viewBox="0, 0, 400,400"
   version="1.1"
   sodipodi:docname="overseer.svg"
   inkscape:version="1.2.1 (9c6d41e410, 2022-07-14)"
   xmlns:inkscape="http://www.inkscape.org/namespaces/inkscape"
   xmlns:sodipodi="http://sodipodi.sourceforge.net/DTD/sodipodi-0.dtd"
   xmlns="http://www.w3.org/2000/svg"
   xmlns:svg="http://www.w3.org/2000/svg">
  <sodipodi:namedview
     id="namedview239"
     pagecolor="#ffffff"
     bordercolor="#000000"
     borderopacity="0.25"
     inkscape:showpageshadow="2"
     inkscape:pageopacity="0.0"
     inkscape:pagecheckerboard="0"
     inkscape:deskcolor="#d1d1d1"
     showgrid="false"
     inkscape:zoom="1.94"
     inkscape:cx="199.74227"
     inkscape:cy="275.51546"
     inkscape:window-width="1920"
     inkscape:window-height="991"
     inkscape:window-x="-9"
     inkscape:window-y="-9"
     inkscape:window-maximized="1"
     inkscape:current-layer="svg" />
  <defs
     id="defs255">
    <linearGradient
       id="linear-gradient"
       x1="156.09366"
       y1="152.17769"
       x2="329.17639"
       y2="442.11792"
       gradientUnits="userSpaceOnUse"
       gradientTransform="matrix(1.3034914,0,0,1.3034914,-80.695177,-80.683255)">
      <stop
         offset="0"
         stop-color="#aa5cc3"
         id="stop250" />
      <stop
         offset="1"
         stop-color="#00a4dc"
         id="stop252" />
    </linearGradient>
  </defs>
  <g
     id="svgg"
     transform="translate(-44.278607,-45.771144)">
    <path
       id="path0"
       d="m 174.08916,51.771023 c -19.22259,3.481625 -18.98014,3.012368 -6.02214,11.650605 38.40086,25.601874 43.55747,82.117352 10.50875,115.166062 -33.13214,33.13215 -89.229193,27.93122 -115.214293,-10.6821 -8.660397,-12.87068 -9.031892,-12.42619 -12.937152,15.48286 -13.132675,93.87876 63.650795,192.47354 150.035765,192.65733 4.14119,0.009 6.37798,0.86161 5.59198,2.13381 -0.72083,1.16533 -2.41798,1.48468 -3.77361,0.7091 -1.35432,-0.77688 -1.72582,-0.60221 -0.82511,0.38584 2.04648,2.24721 -52.55677,57.25586 -56.87654,57.30017 -2.66564,0.0261 -2.69823,0.32197 -0.20726,1.89919 5.91785,3.74493 62.62364,2.63957 84.71912,-1.65282 107.23042,-20.8298 189.84178,-104.26758 208.42567,-210.50995 4.01735,-22.96621 4.43186,-74.40199 0.58004,-72.08828 -1.87702,1.12752 -1.8301,0.60742 0.16424,-1.85357 2.02433,-2.49748 2.18205,-4.43318 0.58527,-7.17833 -1.69975,-2.92242 -2.20159,-3.05668 -2.24983,-0.60352 -0.0351,1.73496 -13.53284,16.59998 -29.99593,33.03309 l -29.93207,29.87862 -1.42994,-12.17721 C 364.02088,99.850302 271.83797,34.064396 174.08916,51.771023"
       style="fill:url(#linear-gradient);stroke-width:1.30349"
       stroke="none"
       fill="#000000"
       fill-rule="evenodd" />
  </g>
</svg>
