<?xml version="1.0" encoding="UTF-8" standalone="no"?>
<svg
   id="svg"
   width="400"
   height="436.3636363636364"
   viewBox="0, 0, 400,400"
   version="1.1"
   sodipodi:docname="paperless-ng.svg"
   inkscape:version="1.2.1 (9c6d41e410, 2022-07-14)"
   xmlns:inkscape="http://www.inkscape.org/namespaces/inkscape"
   xmlns:sodipodi="http://sodipodi.sourceforge.net/DTD/sodipodi-0.dtd"
   xmlns="http://www.w3.org/2000/svg"
   xmlns:svg="http://www.w3.org/2000/svg">
  <sodipodi:namedview
     id="namedview228"
     pagecolor="#ffffff"
     bordercolor="#000000"
     borderopacity="0.25"
     inkscape:showpageshadow="2"
     inkscape:pageopacity="0.0"
     inkscape:pagecheckerboard="0"
     inkscape:deskcolor="#d1d1d1"
     showgrid="false"
     inkscape:zoom="1.7783333"
     inkscape:cx="199.90628"
     inkscape:cy="217.90066"
     inkscape:window-width="1920"
     inkscape:window-height="991"
     inkscape:window-x="-9"
     inkscape:window-y="-9"
     inkscape:window-maximized="1"
     inkscape:current-layer="svg" />
  <defs
     id="defs255">
    <linearGradient
       id="linear-gradient"
       x1="155.94153"
       y1="148.18555"
       x2="289.73932"
       y2="472.65628"
       gradientUnits="userSpaceOnUse"
       gradientTransform="translate(1.1246486,-17.994377)">
      <stop
         offset="0"
         stop-color="#aa5cc3"
         id="stop250" />
      <stop
         offset="1"
         stop-color="#00a4dc"
         id="stop252" />
    </linearGradient>
  </defs>
  <g
     id="svgg">
    <path
       id="path0"
       d="m 372.78365,-11.493377 c -17.98,35.76 -41.07,56.587 -120.75,108.914 -66.527,43.689997 -92.231,65.785997 -110.373,94.881997 -24.252,38.893 -26.268,84.369 -6.094,137.432 l 2.863,7.531 -1.471,2.915 c -0.809,1.604 -5.747,9.461 -10.973,17.461 -5.226,8 -12.028,18.572 -15.115,23.493 -3.087,4.921 -5.764,8.684 -5.949,8.363 -0.184,-0.32 -1.596,-5.529 -3.137,-11.575 -3.210001,-12.593 -3.448001,-11.146 3.341,-20.281 25.573,-34.406 20.564,-63.445 -19.623001,-113.751 -23.761,-29.745 -29.597,-37.993 -35.323,-49.921 -3.263,-6.799 -6.865,-17.951 -6.884,-21.318 -0.079,-13.47 -16.042,27.195 -20.374,51.899 -10.062,57.38 12.631,109.08 62.26,141.844 8.013,5.29 6.793,2.97 10.446,19.861 l 3.108,14.373 -2.686,5.875 c -4.086,8.941 -3.048,10.452 7.958001,11.58 l 4.555,0.466 5.841,-9.726 c 3.213,-5.35 11.954,-20.2 19.425,-33 16.189,-27.738 13.12,-24.406 25.478,-27.662 129.098,-34.019 205.904,-122.948 221.973,-257.012997 2.975,-24.814 1.681,-70.057 -2.763,-96.6820002 -2.223,-13.3159998 -2.099,-13.1879998 -5.733,-5.9599998 M 84.376649,262.10362 c 21.424001,29.415 27.821001,61.62 16.270001,81.902 -1.196001,2.1 -2.266001,3.818 -2.378001,3.818 -0.112,0 0.283,-1.718 0.877,-3.818 5.261001,-18.583 -2.366,-51.117 -19.906,-84.909 -5.312,-10.234 -3.908,-9.412 5.137,3.007"
       style="fill:url(#linear-gradient)"
       stroke="none"
       fill="#000000"
       fill-rule="evenodd" />
  </g>
</svg>
