<?xml version="1.0" encoding="UTF-8" standalone="no"?>
<svg
   version="1.1"
   id="Capa_1"
   x="0px"
   y="0px"
   viewBox="0 0 60 60"
   style="enable-background:new 0 0 60 60;"
   xml:space="preserve"
   sodipodi:docname="q-dir-stat.svg"
   inkscape:version="1.2.1 (9c6d41e410, 2022-07-14)"
   xmlns:inkscape="http://www.inkscape.org/namespaces/inkscape"
   xmlns:sodipodi="http://sodipodi.sourceforge.net/DTD/sodipodi-0.dtd"
   xmlns:xlink="http://www.w3.org/1999/xlink"
   xmlns="http://www.w3.org/2000/svg"
   xmlns:svg="http://www.w3.org/2000/svg"><sodipodi:namedview
   id="namedview650"
   pagecolor="#ffffff"
   bordercolor="#000000"
   borderopacity="0.25"
   inkscape:showpageshadow="2"
   inkscape:pageopacity="0.0"
   inkscape:pagecheckerboard="0"
   inkscape:deskcolor="#d1d1d1"
   showgrid="false"
   inkscape:zoom="13.4"
   inkscape:cx="30.037313"
   inkscape:cy="48.768657"
   inkscape:window-width="1920"
   inkscape:window-height="991"
   inkscape:window-x="-9"
   inkscape:window-y="-9"
   inkscape:window-maximized="1"
   inkscape:current-layer="Capa_1" />
  <defs
   id="defs255">
    <linearGradient
   id="linear-gradient"
   x1="2"
   y1="2"
   x2="65"
   y2="67"
   gradientUnits="userSpaceOnUse">
      <stop
   offset="0"
   stop-color="#aa5cc3"
   id="stop250" />
      <stop
   offset="1"
   stop-color="#00a4dc"
   id="stop252" />
    </linearGradient>
  <linearGradient
   inkscape:collect="always"
   xlink:href="#linear-gradient"
   id="linearGradient652"
   gradientUnits="userSpaceOnUse"
   x1="35.134327"
   y1="4.4626865"
   x2="52.238808"
   y2="71.328362" /><linearGradient
   inkscape:collect="always"
   xlink:href="#linear-gradient"
   id="linearGradient654"
   gradientUnits="userSpaceOnUse"
   x1="27.149254"
   y1="21.701492"
   x2="65"
   y2="67" /></defs>
<g
   id="g617">
	<g
   id="g615">
		<path
   d="M59,14h-3v-4c0-0.6-0.4-1-1-1H28V1c0-0.6-0.4-1-1-1H1C0.4,0,0,0.4,0,1v59h2V2h24v8v4H8v2h19h28h3v44h2V15    C60,14.4,59.6,14,59,14z M28,14v-3h26v3H28z"
   fill="url(#linear-gradient)"
   id="path611"
   style="fill:url(#linearGradient652)" />
		<path
   d="M51,39c-1.9,0-3.4,1.3-3.9,3H42V26.9c1.7-0.4,3-2,3-3.9c0-2.2-1.8-4-4-4s-4,1.8-4,4c0,1.9,1.3,3.4,3,3.9V42h-9v-7.1    c1.7-0.4,3-2,3-3.9c0-2.2-1.8-4-4-4s-4,1.8-4,4c0,1.9,1.3,3.4,3,3.9V50H18V36.9c1.7-0.4,3-2,3-3.9c0-2.2-1.8-4-4-4s-4,1.8-4,4    c0,1.9,1.3,3.4,3,3.9V50h-3.1c-0.4-1.7-2-3-3.9-3c-2.2,0-4,1.8-4,4s1.8,4,4,4c1.9,0,3.4-1.3,3.9-3H29v8h2V44h16.1    c0.4,1.7,2,3,3.9,3c2.2,0,4-1.8,4-4S53.2,39,51,39z M39,23c0-1.1,0.9-2,2-2s2,0.9,2,2s-0.9,2-2,2S39,24.1,39,23z M15,33    c0-1.1,0.9-2,2-2s2,0.9,2,2s-0.9,2-2,2S15,34.1,15,33z M9,53c-1.1,0-2-0.9-2-2s0.9-2,2-2s2,0.9,2,2S10.1,53,9,53z M28,31    c0-1.1,0.9-2,2-2s2,0.9,2,2s-0.9,2-2,2S28,32.1,28,31z M51,45c-1.1,0-2-0.9-2-2s0.9-2,2-2s2,0.9,2,2S52.1,45,51,45z"
   fill="url(#linear-gradient)"
   id="path613"
   style="fill:url(#linearGradient654)" />
	</g>
</g>
<g
   id="g619">
</g>
<g
   id="g621">
</g>
<g
   id="g623">
</g>
<g
   id="g625">
</g>
<g
   id="g627">
</g>
<g
   id="g629">
</g>
<g
   id="g631">
</g>
<g
   id="g633">
</g>
<g
   id="g635">
</g>
<g
   id="g637">
</g>
<g
   id="g639">
</g>
<g
   id="g641">
</g>
<g
   id="g643">
</g>
<g
   id="g645">
</g>
<g
   id="g647">
</g>
</svg>
