<?xml version="1.0" encoding="UTF-8" standalone="no"?>
<svg
   id="svg"
   width="400"
   height="400"
   viewBox="0, 0, 400,400"
   version="1.1"
   sodipodi:docname="radarr.svg"
   inkscape:version="1.2.1 (9c6d41e410, 2022-07-14)"
   xmlns:inkscape="http://www.inkscape.org/namespaces/inkscape"
   xmlns:sodipodi="http://sodipodi.sourceforge.net/DTD/sodipodi-0.dtd"
   xmlns="http://www.w3.org/2000/svg"
   xmlns:svg="http://www.w3.org/2000/svg">
  <sodipodi:namedview
     id="namedview9"
     pagecolor="#ffffff"
     bordercolor="#000000"
     borderopacity="0.25"
     inkscape:showpageshadow="2"
     inkscape:pageopacity="0.0"
     inkscape:pagecheckerboard="0"
     inkscape:deskcolor="#d1d1d1"
     showgrid="false"
     inkscape:zoom="2.01"
     inkscape:cx="242.53731"
     inkscape:cy="215.17413"
     inkscape:window-width="1920"
     inkscape:window-height="991"
     inkscape:window-x="-9"
     inkscape:window-y="-9"
     inkscape:window-maximized="1"
     inkscape:current-layer="svg" />
  <defs
     id="defs255">
    <linearGradient
       id="linear-gradient"
       x1="155.94154"
       y1="54.653217"
       x2="425.33405"
       y2="434.93579"
       gradientUnits="userSpaceOnUse">
      <stop
         offset="0"
         stop-color="#aa5cc3"
         id="stop250" />
      <stop
         offset="1"
         stop-color="#00a4dc"
         id="stop252" />
    </linearGradient>
  </defs>
  <g
     id="svgg">
    <path
       id="path0"
       d="M180.000 1.295 C 75.372 13.817,0.800 96.006,0.800 198.800 C 0.800 356.300,176.079 450.840,307.326 364.131 C 431.668 281.983,423.552 95.868,292.513 24.439 C 260.208 6.829,213.698 -2.738,180.000 1.295 M138.400 34.069 C 146.983 35.189,156.275 38.757,165.027 44.294 C 167.322 45.747,209.687 70.304,259.170 98.867 C 363.604 159.149,360.534 156.975,367.706 175.711 C 373.330 190.405,372.567 214.209,366.235 221.610 C 365.666 222.275,365.253 222.702,365.317 222.559 C 366.417 220.119,360.491 205.861,355.775 199.600 C 349.066 190.695,345.803 188.714,235.200 126.428 C 124.887 64.305,124.041 63.864,117.453 65.100 C 107.016 67.058,106.858 69.094,108.394 181.600 C 108.614 197.660,109.027 237.294,109.313 269.675 L 109.834 328.551 104.317 328.685 C 89.069 329.055,77.028 320.213,74.883 307.072 C 74.322 303.636,73.750 275.583,73.205 224.800 C 72.967 202.580,72.593 174.140,72.374 161.600 C 71.256 97.547,71.759 83.757,75.626 72.400 C 83.049 50.600,101.154 35.919,123.200 33.823 C 125.620 33.593,127.761 33.257,127.959 33.077 C 128.156 32.897,129.956 32.964,131.959 33.226 C 133.961 33.489,136.860 33.868,138.400 34.069 M219.414 165.191 C 264.686 190.639,277.403 198.121,276.614 198.842 C 274.943 200.371,154.332 268.999,153.964 268.631 C 153.777 268.444,154.154 240.955,154.803 207.545 C 155.451 174.135,155.985 142.894,155.991 138.121 L 156.000 129.442 158.600 130.955 C 160.030 131.786,187.396 147.193,219.414 165.191 M350.139 223.200 C 354.862 234.599,352.590 247.720,344.586 255.283 C 339.529 260.062,163.754 361.903,156.890 364.031 C 135.728 370.593,109.973 363.090,95.879 346.256 C 91.937 341.548,92.046 341.334,97.637 342.811 C 104.549 344.637,117.392 343.904,124.544 341.276 C 131.779 338.618,124.694 342.685,243.600 272.937 L 344.400 213.809 346.193 215.904 C 347.179 217.057,348.955 220.340,350.139 223.200 "
       style="fill:url(#linear-gradient)"
       stroke="none"
       fill="#000000"
       fill-rule="evenodd" />
  </g>
</svg>
