<?xml version="1.0" encoding="UTF-8" standalone="no"?>
<svg
   id="svg"
   width="400"
   height="400"
   viewBox="0, 0, 400,400"
   version="1.1"
   sodipodi:docname="readarr.svg"
   inkscape:version="1.2.1 (9c6d41e410, 2022-07-14)"
   xmlns:inkscape="http://www.inkscape.org/namespaces/inkscape"
   xmlns:sodipodi="http://sodipodi.sourceforge.net/DTD/sodipodi-0.dtd"
   xmlns="http://www.w3.org/2000/svg"
   xmlns:svg="http://www.w3.org/2000/svg">
  <sodipodi:namedview
     id="namedview68"
     pagecolor="#ffffff"
     bordercolor="#000000"
     borderopacity="0.25"
     inkscape:showpageshadow="2"
     inkscape:pageopacity="0.0"
     inkscape:pagecheckerboard="0"
     inkscape:deskcolor="#d1d1d1"
     showgrid="false"
     inkscape:zoom="1.94"
     inkscape:cx="199.74227"
     inkscape:cy="199.74227"
     inkscape:window-width="1920"
     inkscape:window-height="991"
     inkscape:window-x="-9"
     inkscape:window-y="-9"
     inkscape:window-maximized="1"
     inkscape:current-layer="svg" />
  <defs
     id="defs255">
    <linearGradient
       id="linear-gradient"
       x1="195.24503"
       y1="122.81242"
       x2="395.98083"
       y2="467.27411"
       gradientUnits="userSpaceOnUse"
       gradientTransform="matrix(1.1614102,0,0,1.1614102,-32.811659,-32.026916)">
      <stop
         offset="0"
         stop-color="#aa5cc3"
         id="stop250" />
      <stop
         offset="1"
         stop-color="#00a4dc"
         id="stop252" />
    </linearGradient>
  </defs>
  <g
     id="svgg">
    <path
       id="path0"
       style="fill:url(#linear-gradient);stroke-width:1.16141"
       d="m 193.69736,1.8694757 c -3.48574,-0.047502 -6.88425,-0.028268 -10.1442,0.058976 C 174.86005,2.1611 167.14718,2.8848768 161.36161,4.1673431 -72.980983,56.109798 -39.904558,397.41811 199.47038,397.41811 c 224.60197,0 275.66289,-311.8325 63.22426,-386.112177 C 246.80569,5.7504875 218.09737,2.2019515 193.69736,1.8694757 Z M 347.91312,18.333373 c -0.026,0.0336 -0.0534,0.06626 -0.0794,0.09981 l 0.71681,0.762175 c 0.0531,-0.03923 0.108,-0.07378 0.16106,-0.113423 z m 10.23267,9.604317 c -0.011,0.0062 -0.0195,0.01402 -0.0295,0.02042 0.0226,0.0049 0.0478,0.01115 0.0702,0.01588 z m -153.61693,1.406395 c 15.42507,0.293983 30.77293,2.644428 45.42431,7.204373 25.43224,7.916099 51.27864,23.537023 68.71828,41.531757 l 12.13129,12.519178 -19.39011,2.479345 c -10.66523,1.363495 -24.78311,3.878527 -31.37169,5.589289 -9.74528,2.529553 -15.49748,1.316389 -30.84995,-6.510252 -27.33009,-13.933302 -72.04763,-14.074432 -99.86087,-0.315301 -15.62193,7.727917 -21.83219,9.004586 -32.66466,6.718935 -7.35627,-1.551652 -21.327572,-3.93328 -31.047308,-5.292131 L 67.945212,90.799018 80.174045,78.180023 C 111.26528,46.098392 158.25374,28.46215 204.52886,29.344085 Z M 35.407579,32.306588 c -0.03275,0.03226 -0.06088,0.05872 -0.09526,0.093 0.04389,0.02185 0.08768,0.04394 0.131566,0.06578 -0.0099,-0.05151 -0.019,-0.101938 -0.0363,-0.158787 z M 327.35026,94.292319 c 2.54629,-0.08432 4.93652,-0.06584 7.13859,0.06353 8.13068,0.477466 13.7097,2.46713 15.21403,6.387761 5.83714,15.20972 2.97746,17.81868 -20.51069,18.71411 -32.02558,1.22066 -73.40735,10.7862 -98.80832,22.83805 -24.30812,11.53386 -26.48572,11.24119 -21.54508,-2.90352 6.8021,-19.46957 80.31746,-43.835168 118.51147,-45.09992 z M 59.515916,95.63974 c 15.769806,-0.05587 46.639634,3.65289 66.179974,8.6153 32.06621,8.14371 60.3225,23.59541 64.41289,35.22567 5.09742,14.49535 1.96857,14.84666 -24.01081,2.69028 -26.5983,-12.44788 -62.82893,-20.90885 -96.356202,-22.50231 -22.561344,-1.07082 -31.312711,-10.97714 -19.984421,-22.624814 0.92186,-0.948008 4.50196,-1.385508 9.758569,-1.404126 z M 41.69326,134.9258 c 0.941893,0 1.578055,29.80704 1.415469,66.23668 -0.283385,63.46241 -0.535718,65.70405 -6.038426,53.53374 C 25.560833,229.23832 29.201236,134.9258 41.69326,134.9258 Z m 320.6354,3.85851 c 3.05379,0 5.82239,20.49028 5.84562,61.47081 0.0209,37.46561 -7.79216,75.68809 -14.02312,68.6094 -0.70962,-0.80601 -0.43064,-31.68035 0.61928,-68.6094 1.16547,-40.98053 4.50445,-61.47081 7.55822,-61.47081 z m 44.07689,167.16368 c -0.0317,0.0788 -0.0734,0.17167 -0.10429,0.24952 0.0517,0.0303 0.11405,0.0627 0.16559,0.093 0.25404,0.072 0.54594,0.15871 0.80755,0.23364 -0.26363,-0.17958 -0.55511,-0.37341 -0.8688,-0.57616 z m -331.952358,9.90374 10.788407,2.55646 c 5.934806,1.40531 23.039601,7.21163 38.011231,12.90255 14.97164,5.6908 35.9445,16.10059 46.60613,23.13293 23.69605,15.62657 25.98201,14.47688 25.98201,-13.07041 0,-13.59303 1.3635,-20.93367 3.62941,-19.533 1.99646,1.23341 3.62941,11.94531 3.62941,23.80436 0,25.2233 -0.38574,25.09201 25.32418,8.71284 19.16191,-12.2063 62.91931,-30.65323 85.27519,-35.94927 l 10.78841,-2.55646 -7.159,7.95295 c -55.52777,61.67837 -180.1887,61.67837 -235.716373,0 z m 293.269678,47.13692 c 0.2009,0.12574 0.40778,0.23842 0.6102,0.36067 0.011,-0.0116 0.0185,-0.0182 0.0295,-0.0295 -0.21145,-0.11427 -0.42462,-0.22657 -0.63968,-0.33117 z m -19.05212,18.19921 c -0.003,0.006 -0.0121,0.0201 -0.0159,0.0272 0.15606,0.0588 0.29996,0.10854 0.45369,0.16558 0.0124,-0.005 0.037,-0.0273 0.0499,-0.0341 -0.16121,-0.0518 -0.32827,-0.10811 -0.48772,-0.15879 z" />
  </g>
</svg>
