<?xml version="1.0" encoding="UTF-8" standalone="no"?>
<svg
   id="svg"
   width="400"
   height="400"
   viewBox="0, 0, 400,400"
   version="1.1"
   sodipodi:docname="redis.svg"
   inkscape:version="1.2.1 (9c6d41e410, 2022-07-14)"
   xmlns:inkscape="http://www.inkscape.org/namespaces/inkscape"
   xmlns:sodipodi="http://sodipodi.sourceforge.net/DTD/sodipodi-0.dtd"
   xmlns="http://www.w3.org/2000/svg"
   xmlns:svg="http://www.w3.org/2000/svg">
  <sodipodi:namedview
     id="namedview597"
     pagecolor="#ffffff"
     bordercolor="#000000"
     borderopacity="0.25"
     inkscape:showpageshadow="2"
     inkscape:pageopacity="0.0"
     inkscape:pagecheckerboard="0"
     inkscape:deskcolor="#d1d1d1"
     showgrid="false"
     inkscape:zoom="2.01"
     inkscape:cx="200.24876"
     inkscape:cy="245.02488"
     inkscape:window-width="1920"
     inkscape:window-height="991"
     inkscape:window-x="-9"
     inkscape:window-y="-9"
     inkscape:window-maximized="1"
     inkscape:current-layer="svg" />
  <defs
     id="defs255">
    <linearGradient
       id="linear-gradient"
       x1="229.28102"
       y1="75.871864"
       x2="389.02847"
       y2="416.73557"
       gradientUnits="userSpaceOnUse">
      <stop
         offset="0"
         stop-color="#aa5cc3"
         id="stop250" />
      <stop
         offset="1"
         stop-color="#00a4dc"
         id="stop252" />
    </linearGradient>
  </defs>
  <g
     id="svgg">
    <path
       id="path0"
       d="M2.955 88.986 C 0.798 91.585,0.127 116.794,0.628 176.320 L 1.333 260.000 8.667 260.844 L 16.000 261.688 16.000 284.977 C 16.000 317.809,-3.473 314.667,200.000 314.667 C 403.473 314.667,384.000 317.809,384.000 284.977 L 384.000 261.688 391.333 260.844 L 398.667 260.000 399.372 176.320 C 399.873 116.794,399.202 91.585,397.045 88.986 C 392.530 83.545,7.470 83.545,2.955 88.986 M381.333 174.667 L 381.333 242.667 200.000 242.667 L 18.667 242.667 18.667 174.667 L 18.667 106.667 200.000 106.667 L 381.333 106.667 381.333 174.667 M37.939 122.236 C 35.344 123.883,34.717 136.266,35.273 174.861 L 36.000 225.333 67.970 226.090 C 95.713 226.747,100.384 226.239,103.303 222.247 C 108.719 214.841,108.001 129.715,102.476 124.190 C 97.891 119.605,44.626 117.992,37.939 122.236 M124.190 124.190 C 118.784 129.597,117.900 218.167,123.200 223.467 C 127.601 227.868,184.399 227.868,188.800 223.467 C 193.302 218.965,193.302 127.702,188.800 123.200 C 183.649 118.049,129.502 118.879,124.190 124.190 M211.200 123.200 C 206.698 127.702,206.698 218.965,211.200 223.467 C 215.601 227.868,272.399 227.868,276.800 223.467 C 282.100 218.167,281.216 129.597,275.810 124.190 C 270.498 118.879,216.351 118.049,211.200 123.200 M297.524 124.190 C 291.999 129.715,291.281 214.841,296.697 222.247 C 299.616 226.239,304.287 226.747,332.030 226.090 L 364.000 225.333 364.727 174.861 C 365.283 136.266,364.656 123.883,362.061 122.236 C 355.374 117.992,302.109 119.605,297.524 124.190 M85.333 174.667 L 85.333 208.000 69.333 208.000 L 53.333 208.000 53.333 174.667 L 53.333 141.333 69.333 141.333 L 85.333 141.333 85.333 174.667 M173.333 174.667 L 173.333 208.000 157.333 208.000 L 141.333 208.000 141.333 174.667 L 141.333 141.333 157.333 141.333 L 173.333 141.333 173.333 174.667 M258.667 174.667 L 258.667 208.000 242.667 208.000 L 226.667 208.000 226.667 174.667 L 226.667 141.333 242.667 141.333 L 258.667 141.333 258.667 174.667 M346.667 174.667 L 346.667 208.000 330.667 208.000 L 314.667 208.000 314.667 174.667 L 314.667 141.333 330.667 141.333 L 346.667 141.333 346.667 174.667 M52.000 277.333 L 52.000 293.333 43.333 293.333 L 34.667 293.333 34.667 277.333 L 34.667 261.333 43.333 261.333 L 52.000 261.333 52.000 277.333 M86.667 277.333 L 86.667 293.333 78.667 293.333 L 70.667 293.333 70.667 277.333 L 70.667 261.333 78.667 261.333 L 86.667 261.333 86.667 277.333 M121.333 277.325 C 121.333 293.316,121.332 293.318,113.333 293.326 L 105.333 293.333 105.333 277.333 C 105.333 261.334,105.333 261.333,113.333 261.332 C 121.333 261.331,121.333 261.331,121.333 277.325 M156.000 277.325 C 156.000 293.318,156.000 293.318,148.000 293.318 C 140.000 293.318,140.000 293.318,140.000 277.325 C 140.000 261.332,140.000 261.331,148.000 261.331 C 156.000 261.331,156.000 261.332,156.000 277.325 M190.667 277.325 C 190.667 293.318,190.666 293.318,182.667 293.318 C 174.667 293.318,174.667 293.318,174.667 277.325 C 174.667 261.332,174.667 261.331,182.667 261.331 C 190.666 261.331,190.667 261.332,190.667 277.325 M225.333 277.325 C 225.333 293.318,225.333 293.318,217.333 293.318 C 209.334 293.318,209.333 293.318,209.333 277.325 C 209.333 261.332,209.334 261.331,217.333 261.331 C 225.333 261.331,225.333 261.332,225.333 277.325 M260.000 277.325 C 260.000 293.318,260.000 293.318,252.000 293.318 C 244.000 293.318,244.000 293.318,244.000 277.325 C 244.000 261.332,244.000 261.331,252.000 261.331 C 260.000 261.331,260.000 261.332,260.000 277.325 M294.667 277.333 L 294.667 293.333 286.667 293.326 C 278.668 293.318,278.667 293.316,278.667 277.325 C 278.667 261.331,278.667 261.331,286.667 261.332 C 294.667 261.333,294.667 261.334,294.667 277.333 M329.333 277.333 L 329.333 293.333 321.333 293.333 L 313.333 293.333 313.333 277.333 L 313.333 261.333 321.333 261.333 L 329.333 261.333 329.333 277.333 M365.333 277.333 L 365.333 293.333 356.667 293.333 L 348.000 293.333 348.000 277.333 L 348.000 261.333 356.667 261.333 L 365.333 261.333 365.333 277.333 "
       style="fill:url(#linear-gradient)"
       stroke="none"
       fill="#000000"
       fill-rule="evenodd" />
  </g>
</svg>
