<?xml version="1.0" encoding="UTF-8" standalone="no"?>
<svg
   id="svg"
   width="400"
   height="400"
   viewBox="0, 0, 400,400"
   version="1.1"
   sodipodi:docname="remotely.svg"
   inkscape:version="1.2.1 (9c6d41e410, 2022-07-14)"
   xmlns:inkscape="http://www.inkscape.org/namespaces/inkscape"
   xmlns:sodipodi="http://sodipodi.sourceforge.net/DTD/sodipodi-0.dtd"
   xmlns="http://www.w3.org/2000/svg"
   xmlns:svg="http://www.w3.org/2000/svg">
  <sodipodi:namedview
     id="namedview219"
     pagecolor="#ffffff"
     bordercolor="#000000"
     borderopacity="0.25"
     inkscape:showpageshadow="2"
     inkscape:pageopacity="0.0"
     inkscape:pagecheckerboard="0"
     inkscape:deskcolor="#d1d1d1"
     showgrid="false"
     inkscape:zoom="1.94"
     inkscape:cx="199.74227"
     inkscape:cy="199.74227"
     inkscape:window-width="1920"
     inkscape:window-height="991"
     inkscape:window-x="-9"
     inkscape:window-y="-9"
     inkscape:window-maximized="1"
     inkscape:current-layer="svg" />
  <defs
     id="defs255">
    <linearGradient
       id="linear-gradient"
       x1="229.57338"
       y1="65.100975"
       x2="411.40372"
       y2="358.31888"
       gradientUnits="userSpaceOnUse"
       gradientTransform="matrix(1.1318364,0,0,1.1318364,-24.796132,-25.888228)">
      <stop
         offset="0"
         stop-color="#aa5cc3"
         id="stop250" />
      <stop
         offset="1"
         stop-color="#00a4dc"
         id="stop252" />
    </linearGradient>
  </defs>
  <g
     id="svgg">
    <path
       id="path0"
       d="M 3.3084987,68.080228 C 4.2807462,70.541973 17.020697,102.28546 31.621387,138.62306 l 26.546092,66.06757 -26.546092,66.06755 c -14.60069,36.3376 -27.3406408,68.08109 -28.3128883,70.54284 l -1.7656649,4.47415 56.5827672,-0.0135 56.583899,-0.0147 28.16009,-70.52813 28.16123,-70.52811 -28.16123,-70.52812 -28.16009,-70.528132 -56.583899,-0.01471 -56.5827672,-0.01358 1.7656649,4.47415 m 254.8578713,67.134872 -28.16009,70.52813 28.16009,70.52812 28.16122,70.52813 56.58277,0.0147 56.5839,0.0135 -1.7668,-4.47415 c -0.97111,-2.46174 -13.71219,-34.20523 -28.31175,-70.54283 l -26.5461,-66.06756 26.5461,-66.06755 c 14.59956,-36.33762 27.34064,-68.081093 28.31175,-70.542836 l 1.7668,-4.47415 -56.5839,0.01471 -56.58277,0.01358 -28.16122,70.528126 m -67.15525,2.35535 c -13.81633,6.98003 -13.81633,26.18504 0,33.16507 17.35105,8.76607 34.73833,-11.02183 23.94966,-27.25688 -2.83751,-4.27156 -10.33706,-8.27712 -15.49485,-8.27712 -2.07126,0 -5.87648,1.06505 -8.45481,2.36893 m 1.0526,97.9163 c -13.81632,6.98004 -13.81632,26.18617 0,33.1662 17.35106,8.76495 34.73833,-11.02182 23.9508,-27.25802 -2.83864,-4.27154 -10.3382,-8.27712 -15.49597,-8.27712 -2.07126,0 -5.87537,1.0662 -8.45483,2.36894"
       style="fill:url(#linear-gradient);stroke-width:1.13184"
       stroke="none"
       fill="#000000"
       fill-rule="evenodd" />
  </g>
</svg>
