<?xml version="1.0" encoding="UTF-8" standalone="no"?>
<svg
   id="svg"
   width="400"
   height="400"
   viewBox="0, 0, 400,400"
   version="1.1"
   sodipodi:docname="sabnzbd.svg"
   inkscape:version="1.2.1 (9c6d41e410, 2022-07-14)"
   xmlns:inkscape="http://www.inkscape.org/namespaces/inkscape"
   xmlns:sodipodi="http://sodipodi.sourceforge.net/DTD/sodipodi-0.dtd"
   xmlns="http://www.w3.org/2000/svg"
   xmlns:svg="http://www.w3.org/2000/svg">
  <sodipodi:namedview
     id="namedview9"
     pagecolor="#ffffff"
     bordercolor="#000000"
     borderopacity="0.25"
     inkscape:showpageshadow="2"
     inkscape:pageopacity="0.0"
     inkscape:pagecheckerboard="0"
     inkscape:deskcolor="#d1d1d1"
     showgrid="false"
     inkscape:zoom="2.01"
     inkscape:cx="321.14428"
     inkscape:cy="167.91045"
     inkscape:window-width="1920"
     inkscape:window-height="991"
     inkscape:window-x="-9"
     inkscape:window-y="-9"
     inkscape:window-maximized="1"
     inkscape:current-layer="svg" />
  <defs
     id="defs255">
    <linearGradient
       id="linear-gradient"
       x1="147.98134"
       y1="93.956696"
       x2="381.55298"
       y2="439.41339"
       gradientUnits="userSpaceOnUse">
      <stop
         offset="0"
         stop-color="#aa5cc3"
         id="stop250" />
      <stop
         offset="1"
         stop-color="#00a4dc"
         id="stop252" />
    </linearGradient>
  </defs>
  <g
     id="svgg">
    <path
       id="path0"
       d="M73.828 2.259 C 70.189 3.948,66.855 7.278,65.675 10.402 C 65.107 11.905,64.844 38.444,64.844 94.191 L 64.844 175.781 39.348 175.781 C 6.980 175.781,3.121 176.933,0.908 187.249 C -0.778 195.110,-0.001 196.482,15.155 212.412 L 26.593 224.434 23.514 227.069 C 17.913 231.863,17.884 232.092,18.136 269.531 C 18.325 297.674,18.544 303.092,19.569 305.078 C 20.682 307.233,20.661 307.694,19.313 310.798 C 16.777 316.635,17.589 341.535,20.456 345.864 C 24.938 352.630,22.208 352.344,82.262 352.344 C 128.511 352.344,135.509 352.190,138.195 351.115 C 140.987 349.998,141.480 349.998,143.641 351.115 C 144.947 351.791,146.543 352.344,147.188 352.344 C 147.832 352.344,157.735 362.168,169.195 374.174 C 200.945 407.439,198.464 407.436,230.206 374.245 C 252.907 350.508,255.014 348.911,260.566 351.230 C 265.260 353.192,368.594 352.854,372.492 350.864 C 380.773 346.638,380.469 349.039,380.469 287.891 C 380.469 229.636,380.673 232.086,375.442 227.494 L 372.526 224.933 383.333 213.628 C 399.674 196.533,401.187 193.660,398.099 185.574 C 394.654 176.555,391.711 175.791,360.369 175.786 L 335.191 175.781 334.978 93.945 C 334.737 1.059,335.299 8.542,328.184 3.516 L 324.866 1.172 200.909 0.990 C 81.570 0.815,76.837 0.862,73.828 2.259 M319.531 103.125 L 319.531 190.625 351.237 190.625 C 369.683 190.625,382.834 190.919,382.682 191.328 C 382.539 191.714,375.742 199.090,367.578 207.718 L 352.734 223.406 337.305 223.422 L 321.875 223.438 321.875 210.012 C 321.875 194.053,321.018 191.248,314.969 187.411 L 311.413 185.156 287.308 185.156 C 261.866 185.156,260.959 185.269,256.753 188.961 C 252.942 192.306,252.344 195.179,252.344 210.125 L 252.344 224.219 199.180 224.219 C 151.855 224.219,145.749 224.357,143.586 225.476 C 141.320 226.647,140.966 226.634,138.351 225.280 C 135.731 223.924,132.637 223.813,91.262 223.597 L 46.976 223.366 31.542 207.191 L 16.108 191.016 48.289 190.812 L 80.469 190.608 80.469 103.116 L 80.469 15.625 200.000 15.625 L 319.531 15.625 319.531 103.125 M307.031 219.531 L 307.031 239.063 336.328 239.063 L 365.625 239.063 365.625 288.281 L 365.625 337.500 316.406 337.500 L 267.188 337.500 267.188 268.750 L 267.188 200.000 287.109 200.000 L 307.031 200.000 307.031 219.531 M132.031 249.219 L 132.031 259.375 102.734 259.375 L 73.438 259.375 73.438 268.350 L 73.438 277.325 102.539 277.530 L 131.641 277.734 131.641 307.422 L 131.641 337.109 82.422 337.109 L 33.203 337.109 33.203 326.953 L 33.203 316.797 62.305 316.592 L 91.406 316.387 91.406 307.422 L 91.406 298.457 62.305 298.252 L 33.203 298.047 32.998 268.555 L 32.794 239.063 82.412 239.063 L 132.031 239.063 132.031 249.219 M248.438 288.281 L 248.438 337.500 199.209 337.500 L 149.981 337.500 150.186 307.617 L 150.391 277.734 179.492 277.530 L 208.594 277.325 208.594 268.350 L 208.594 259.375 179.297 259.375 L 150.000 259.375 150.000 249.219 L 150.000 239.063 199.219 239.063 L 248.438 239.063 248.438 288.281 M307.031 287.891 L 307.031 316.406 316.016 316.406 L 325.000 316.406 325.000 287.891 L 325.000 259.375 316.016 259.375 L 307.031 259.375 307.031 287.891 M189.844 307.422 L 189.844 316.406 199.219 316.406 L 208.594 316.406 208.594 307.422 L 208.594 298.438 199.219 298.438 L 189.844 298.438 189.844 307.422 M222.631 359.961 C 218.591 364.150,211.764 371.215,207.459 375.660 L 199.632 383.741 189.659 373.316 C 184.174 367.582,177.541 360.518,174.919 357.617 L 170.152 352.344 200.063 352.344 L 229.975 352.344 222.631 359.961 "
       style="fill:url(#linear-gradient)"
       stroke="none"
       fill="#000000"
       fill-rule="evenodd" />
  </g>
</svg>
