<?xml version="1.0" encoding="UTF-8" standalone="no"?>
<svg
   version="1.1"
   id="Capa_1"
   x="0px"
   y="0px"
   width="30.271px"
   height="30.271px"
   viewBox="0 0 30.271 30.271"
   style="enable-background:new 0 0 30.271 30.271;"
   xml:space="preserve"
   sodipodi:docname="scrutiny.svg"
   inkscape:version="1.2.1 (9c6d41e410, 2022-07-14)"
   xmlns:inkscape="http://www.inkscape.org/namespaces/inkscape"
   xmlns:sodipodi="http://sodipodi.sourceforge.net/DTD/sodipodi-0.dtd"
   xmlns:xlink="http://www.w3.org/1999/xlink"
   xmlns="http://www.w3.org/2000/svg"
   xmlns:svg="http://www.w3.org/2000/svg"><sodipodi:namedview
   id="namedview104"
   pagecolor="#ffffff"
   bordercolor="#000000"
   borderopacity="0.25"
   inkscape:showpageshadow="2"
   inkscape:pageopacity="0.0"
   inkscape:pagecheckerboard="0"
   inkscape:deskcolor="#d1d1d1"
   showgrid="false"
   inkscape:zoom="26.560074"
   inkscape:cx="15.154325"
   inkscape:cy="22.571473"
   inkscape:window-width="1920"
   inkscape:window-height="991"
   inkscape:window-x="-9"
   inkscape:window-y="-9"
   inkscape:window-maximized="1"
   inkscape:current-layer="Capa_1" />
  <defs
   id="defs255">
    <linearGradient
   id="linear-gradient"
   x1="2"
   y1="2"
   x2="28"
   y2="28"
   gradientUnits="userSpaceOnUse">
      <stop
   offset="0"
   stop-color="#aa5cc3"
   id="stop250" />
      <stop
   offset="1"
   stop-color="#00a4dc"
   id="stop252" />
    </linearGradient>
  <linearGradient
   inkscape:collect="always"
   xlink:href="#linear-gradient"
   id="linearGradient855"
   gradientUnits="userSpaceOnUse"
   x1="13.3328"
   y1="2.4894564"
   x2="28"
   y2="28" /><linearGradient
   inkscape:collect="always"
   xlink:href="#linear-gradient"
   id="linearGradient857"
   gradientUnits="userSpaceOnUse"
   x1="18.114412"
   y1="3.7695735"
   x2="28"
   y2="28" /></defs>
<g
   id="g71">
	<g
   id="g69">
		<path
   d="M26.364,0h-2.347v4.978c0,1.954-0.711,2.664-2.664,2.664H8.919c-1.954,0-2.665-0.71-2.665-2.664V0H3.908    C1.954,0,0.355,1.599,0.355,3.553v23.165c0,1.954,1.599,3.553,3.553,3.553h22.455c1.954,0,3.553-1.599,3.553-3.553V3.552    C29.916,1.598,28.318,0,26.364,0z M15.135,28.494c0,0-9.965-5.256-9.261-12.043c0.545-5.271,6.426-5.188,9.261-2.645    c2.835-2.543,8.718-2.626,9.263,2.645C25.101,23.238,15.135,28.494,15.135,28.494z"
   fill="url(#linear-gradient)"
   id="path65"
   style="fill:url(#linearGradient855)" />
		<rect
   x="20.021"
   y="1.156"
   width="2.221"
   height="5.329"
   fill="url(#linear-gradient)"
   id="rect67"
   style="fill:url(#linearGradient857)" />
	</g>
</g>
<g
   id="g73">
</g>
<g
   id="g75">
</g>
<g
   id="g77">
</g>
<g
   id="g79">
</g>
<g
   id="g81">
</g>
<g
   id="g83">
</g>
<g
   id="g85">
</g>
<g
   id="g87">
</g>
<g
   id="g89">
</g>
<g
   id="g91">
</g>
<g
   id="g93">
</g>
<g
   id="g95">
</g>
<g
   id="g97">
</g>
<g
   id="g99">
</g>
<g
   id="g101">
</g>
</svg>
