<?xml version="1.0" encoding="UTF-8" standalone="no"?>
<svg
   id="svg"
   width="400"
   height="400"
   viewBox="0, 0, 400,400"
   version="1.1"
   sodipodi:docname="sonarr.svg"
   inkscape:version="1.2.1 (9c6d41e410, 2022-07-14)"
   xmlns:inkscape="http://www.inkscape.org/namespaces/inkscape"
   xmlns:sodipodi="http://sodipodi.sourceforge.net/DTD/sodipodi-0.dtd"
   xmlns="http://www.w3.org/2000/svg"
   xmlns:svg="http://www.w3.org/2000/svg">
  <sodipodi:namedview
     id="namedview243"
     pagecolor="#ffffff"
     bordercolor="#000000"
     borderopacity="0.25"
     inkscape:showpageshadow="2"
     inkscape:pageopacity="0.0"
     inkscape:pagecheckerboard="0"
     inkscape:deskcolor="#d1d1d1"
     showgrid="false"
     inkscape:zoom="1.94"
     inkscape:cx="199.74227"
     inkscape:cy="199.74227"
     inkscape:window-width="1920"
     inkscape:window-height="991"
     inkscape:window-x="-9"
     inkscape:window-y="-9"
     inkscape:window-maximized="1"
     inkscape:current-layer="svg" />
  <defs
     id="defs255">
    <linearGradient
       id="linear-gradient"
       x1="216.63805"
       y1="82.513916"
       x2="311.90125"
       y2="398.61737"
       gradientUnits="userSpaceOnUse"
       gradientTransform="matrix(1.2385587,0,0,1.2385587,-48.698517,-48.917819)">
      <stop
         offset="0"
         stop-color="#aa5cc3"
         id="stop250" />
      <stop
         offset="1"
         stop-color="#00a4dc"
         id="stop252" />
    </linearGradient>
  </defs>
  <g
     id="svgg">
    <path
       id="path0"
       d="m 26.346995,20.883635 c -9.258226,9.098453 -16.8332517,16.84316 -16.8332517,17.208534 0,0.366615 -1.633659,2.413952 -3.6302156,4.551704 L 2.2545506,46.529232 23.399225,67.235456 C 77.62828,120.34114 86.697007,139.72582 86.682144,202.5096 86.667282,263.30426 78.65133,281.98172 32.604193,328.51685 7.1158936,354.27391 6.5238625,354.77554 4.0194969,352.67742 -4.7049108,345.3662 22.20897,374.237 35.539578,386.48883 c 7.332268,6.73776 15.851074,13.10147 14.403199,10.75812 -1.040389,-1.6832 41.330705,-44.88413 53.701433,-54.75172 25.42637,-20.28389 45.2656,-25.41647 97.84614,-25.31738 52.85301,0.099 70.89138,5.23538 98.19293,27.95551 14.10967,11.74276 50.6905,49.37637 49.9263,51.36551 -1.00447,2.62078 4.61239,-1.5222 14.06012,-10.36675 l 7.61342,-7.1279 -12.75096,-13.07423 c -7.01149,-7.19107 -21.46918,-22.04015 -32.12697,-32.99644 -17.84888,-18.35172 -19.53455,-19.76369 -21.38,-17.91823 -1.84546,1.84422 -3.61288,0.3951 -22.42287,-18.38889 l -20.42012,-20.39162 5.57351,-5.57351 5.57352,-5.57352 20.39534,20.36686 c 18.99207,18.96482 20.26035,20.51672 18.43472,22.5331 -2.11423,2.33716 -5.38031,-1.29677 49.25005,54.79136 l 13.14977,13.50029 4.80932,-5.38897 c 2.64556,-2.96511 5.64535,-6.29931 6.66717,-7.4103 1.0218,-1.10974 3.20414,-3.5014 4.85019,-5.31218 l 2.99236,-3.29332 -23.97478,-23.85341 c -47.94089,-47.69813 -55.34128,-64.19697 -56.59718,-126.19427 -0.99085,-48.89582 3.56333,-69.94388 19.77854,-91.42421 8.3355,-11.04175 62.57942,-64.792719 64.30844,-63.725082 2.45483,1.517235 -3.68346,-6.538352 -11.01945,-14.46265 -3.73921,-4.037702 -7.43383,-7.323598 -8.21289,-7.300066 -3.69709,0.108993 -64.47069,61.638114 -62.83084,63.613615 1.9334,2.32973 -3.27475,8.713263 -23.32206,28.579743 l -12.45989,12.34719 -5.52769,-5.42488 -5.52769,-5.42613 15.29,-15.87089 c 19.98663,-20.745861 22.48975,-22.840264 24.89751,-20.84123 1.02429,0.849651 2.08945,1.326496 2.36689,1.060206 0.2762,-0.267529 5.97605,-5.739481 12.66426,-12.16017 6.68945,-6.420688 20.90563,-20.313601 31.59192,-30.871075 17.6284,-17.419091 19.63611,-19.041603 21.67478,-17.508267 3.26979,2.459778 -2.66662,-3.44567 -12.44753,-12.384349 L 356.03027,5.2604553 330.47013,30.602605 c -29.95082,29.695684 -34.83694,33.831232 -48.64934,41.178362 -24.37732,12.966471 -40.62968,16.161952 -82.18828,16.161952 -63.96785,0 -80.98069,-7.868562 -134.918682,-62.399826 C 53.179131,13.880824 43.614981,4.3402062 43.46016,4.3402062 c -0.154819,0 -7.856177,7.4449768 -17.113165,16.5434288 m 63.896006,65.686962 c 1.877655,-1.878894 3.46301,-0.585839 21.455549,17.497123 l 19.42928,19.52587 -5.40756,5.40755 -5.40754,5.40755 -19.51597,-19.3822 C 83.090325,97.442665 81.452949,95.456017 83.131196,93.600656 84.811921,91.744057 82.030118,88.606787 52.874446,59.467216 27.263528,33.871161 21.052156,27.035556 22.171814,25.686766 23.298902,24.328067 29.962347,30.375949 55.89529,56.295268 85.827539,86.211415 88.365346,88.448252 90.243001,86.570597 M 213.87593,132.42699 c 51.54138,10.95135 71.30754,75.53722 34.81837,113.76782 -42.90368,44.95101 -117.8018,15.20702 -117.8018,-46.78161 0,-44.17691 39.66112,-76.19117 82.98343,-66.98621 m -87.38031,141.85461 4.77464,4.89107 -8.76776,9.66199 c -19.35867,21.33418 -29.426915,30.43016 -31.251312,28.23171 -1.481317,-1.78352 -5.20814,1.52591 -33.007591,29.30926 -24.970582,24.95696 -31.650129,31.00608 -32.876302,29.77991 -1.226173,-1.22618 4.862581,-7.94412 29.973121,-33.06953 28.45341,-28.4695 31.298379,-31.6848 29.315447,-33.13516 -2.186057,-1.59774 4.135546,-9.10835 30.135367,-35.79434 5.56485,-5.71224 6.00826,-5.70728 11.70439,0.12509"
       style="fill:url(#linear-gradient);stroke-width:1.23855"
       stroke="none"
       fill="#000000"
       fill-rule="evenodd" />
  </g>
</svg>
