<?xml version="1.0" encoding="iso-8859-1"?>

<svg version="1.1" id="Layer_1" xmlns="http://www.w3.org/2000/svg" xmlns:xlink="http://www.w3.org/1999/xlink" x="0px" y="0px"
	 viewBox="0 0 512 512" style="enable-background:new 0 0 512 512;" xml:space="preserve">
  <defs
     id="defs255">
    <linearGradient
       id="linear-gradient"
       x1="170"
       y1="95"
       x2="560"
       y2="595"
       gradientUnits="userSpaceOnUse">
      <stop
         offset="0"
         stop-color="#aa5cc3"
         id="stop250" />
      <stop
         offset="1"
         stop-color="#00a4dc"
         id="stop252" />
    </linearGradient>
  </defs>
<g>
	<g>
		<path d="M256,0C114.842,0,0,114.842,0,256s114.842,256,256,256s256-114.842,256-256S397.158,0,256,0z M256,474.537
			c-120.501,0-218.537-98.036-218.537-218.537S135.499,37.463,256,37.463S474.537,135.499,474.537,256S376.501,474.537,256,474.537z
			" fill="url(#linear-gradient)"/>
	</g>
</g>
<g>
	<g>
		<path d="M359.595,115.583l-32.361-18.875l-71.068,121.833c-0.056-0.001-0.111-0.005-0.166-0.005
			c-20.69,0-37.463,16.774-37.463,37.463S235.31,293.463,256,293.463S293.463,276.69,293.463,256c0-6.765-1.802-13.105-4.938-18.582
			L359.595,115.583z" fill="url(#linear-gradient)"/>
	</g>
</g>
<g>
	<g>
		<circle cx="256" cy="87.415" r="18.732" fill="url(#linear-gradient)"/>
	</g>
</g>
<g>
	<g>
		<circle cx="110.005" cy="171.707" r="18.732"  fill="url(#linear-gradient)"/>
	</g>
</g>
<g>
	<g>
		<circle cx="110.005" cy="340.293" r="18.732"  fill="url(#linear-gradient)"/>
	</g>
</g>
<g>
	<g>
		<circle cx="401.995" cy="340.293" r="18.732"  fill="url(#linear-gradient)"/>
	</g>
</g>
<g>
	<g>
		<circle cx="401.995" cy="171.707" r="18.732"  fill="url(#linear-gradient)"/>
	</g>
</g>
<g>
	<g>
		<rect x="206.049" y="362.146" width="99.902" height="37.463"  fill="url(#linear-gradient)"/>
	</g>
</g>
<g>
</g>
<g>
</g>
<g>
</g>
<g>
</g>
<g>
</g>
<g>
</g>
<g>
</g>
<g>
</g>
<g>
</g>
<g>
</g>
<g>
</g>
<g>
</g>
<g>
</g>
<g>
</g>
<g>
</g>
</svg>
