<?xml version="1.0" encoding="UTF-8" standalone="no"?>
<svg
   version="1.1"
   id="Capa_1"
   x="0px"
   y="0px"
   viewBox="0 0 58 58"
   style="enable-background:new 0 0 58 58;"
   xml:space="preserve"
   sodipodi:docname="tubesync.svg"
   inkscape:version="1.2.1 (9c6d41e410, 2022-07-14)"
   xmlns:inkscape="http://www.inkscape.org/namespaces/inkscape"
   xmlns:sodipodi="http://sodipodi.sourceforge.net/DTD/sodipodi-0.dtd"
   xmlns:xlink="http://www.w3.org/1999/xlink"
   xmlns="http://www.w3.org/2000/svg"
   xmlns:svg="http://www.w3.org/2000/svg"><sodipodi:namedview
   id="namedview234"
   pagecolor="#ffffff"
   bordercolor="#000000"
   borderopacity="0.25"
   inkscape:showpageshadow="2"
   inkscape:pageopacity="0.0"
   inkscape:pagecheckerboard="0"
   inkscape:deskcolor="#d1d1d1"
   showgrid="false"
   inkscape:zoom="13.862069"
   inkscape:cx="29.03607"
   inkscape:cy="13.598259"
   inkscape:window-width="1920"
   inkscape:window-height="991"
   inkscape:window-x="-9"
   inkscape:window-y="-9"
   inkscape:window-maximized="1"
   inkscape:current-layer="Capa_1" />
  <defs
   id="defs255">
    <linearGradient
   id="linear-gradient"
   x1="8"
   y1="9"
   x2="46"
   y2="59"
   gradientUnits="userSpaceOnUse">
      <stop
   offset="0"
   stop-color="#aa5cc3"
   id="stop250" />
      <stop
   offset="1"
   stop-color="#00a4dc"
   id="stop252" />
    </linearGradient>
  <linearGradient
   inkscape:collect="always"
   xlink:href="#linear-gradient"
   id="linearGradient734"
   gradientUnits="userSpaceOnUse"
   x1="15.863184"
   y1="9.9378109"
   x2="46"
   y2="59" /><linearGradient
   inkscape:collect="always"
   xlink:href="#linear-gradient"
   id="linearGradient736"
   gradientUnits="userSpaceOnUse"
   x1="34.763683"
   y1="15.348259"
   x2="46"
   y2="59" /><linearGradient
   inkscape:collect="always"
   xlink:href="#linear-gradient"
   id="linearGradient738"
   gradientUnits="userSpaceOnUse"
   x1="21.778606"
   y1="28.838308"
   x2="46"
   y2="59" /></defs>
<g
   id="g201">
	<path
   d="M56.271,44.52c-0.547-0.104-1.069,0.241-1.18,0.781C53.975,50.803,49.646,54.5,44.32,54.5c-5.028,0-9.446-3.3-10.948-8   h4.699v-2h-8v8h2v-3.848C34.24,53.333,38.986,56.5,44.32,56.5c6.304,0,11.42-4.341,12.731-10.801   C57.161,45.157,56.812,44.63,56.271,44.52z"
   fill="url(#linear-gradient)"
   id="path195"
   style="fill:url(#linearGradient738)" />
	<path
   d="M56,36.672c-2.272-4.375-6.685-7.172-11.68-7.172c-6.109,0-11.541,3.997-13.209,9.721c-0.154,0.53,0.15,1.085,0.681,1.239   c0.531,0.156,1.086-0.151,1.239-0.681C34.43,34.982,39.177,31.5,44.32,31.5c4.565,0,8.562,2.766,10.33,7h-4.579v2H58v-8h-2V36.672z   "
   fill="url(#linear-gradient)"
   id="path197"
   style="fill:url(#linearGradient736)" />
	<path
   d="M57,1.5H1c-0.552,0-1,0.448-1,1v44c0,0.552,0.448,1,1,1h26.648c-0.836-2.924-0.943-6.154,0.155-9.538   c1.529-4.718,5.16-8.547,9.771-10.371c3.714-1.469,7.247-1.426,10.426-0.532V25.5h8v4c1.146,0,1.042,0,2,0v-27   C58,1.948,57.552,1.5,57,1.5z M10,45.5H2v-9h8V45.5z M10,34.5H2v-9h8V34.5z M10,23.5H2v-9h8V23.5z M10,12.5H2v-9h8V12.5z    M36.537,25.344l-11,7C25.374,32.447,25.187,32.5,25,32.5c-0.166,0-0.331-0.041-0.481-0.123C24.199,32.201,24,31.865,24,31.5v-14   c0-0.365,0.199-0.701,0.519-0.877c0.32-0.175,0.71-0.162,1.019,0.033l11,7C36.825,23.84,37,24.158,37,24.5   S36.825,25.16,36.537,25.344z M56,23.5h-8v-9h8V23.5z M56,12.5h-8v-9h8V12.5z"
   fill="url(#linear-gradient)"
   id="path199"
   style="fill:url(#linearGradient734)" />
</g>
<g
   id="g203">
</g>
<g
   id="g205">
</g>
<g
   id="g207">
</g>
<g
   id="g209">
</g>
<g
   id="g211">
</g>
<g
   id="g213">
</g>
<g
   id="g215">
</g>
<g
   id="g217">
</g>
<g
   id="g219">
</g>
<g
   id="g221">
</g>
<g
   id="g223">
</g>
<g
   id="g225">
</g>
<g
   id="g227">
</g>
<g
   id="g229">
</g>
<g
   id="g231">
</g>
</svg>
