<?xml version="1.0" encoding="UTF-8" standalone="no"?>
<svg
   id="wallabag"
   viewBox="0 0 1024 1024"
   version="1.1"
   sodipodi:docname="wallabag.svg"
   inkscape:version="1.2.1 (9c6d41e410, 2022-07-14)"
   xmlns:inkscape="http://www.inkscape.org/namespaces/inkscape"
   xmlns:sodipodi="http://sodipodi.sourceforge.net/DTD/sodipodi-0.dtd"
   xmlns:xlink="http://www.w3.org/1999/xlink"
   xmlns="http://www.w3.org/2000/svg"
   xmlns:svg="http://www.w3.org/2000/svg">
  <sodipodi:namedview
     id="namedview18"
     pagecolor="#ffffff"
     bordercolor="#000000"
     borderopacity="0.25"
     inkscape:showpageshadow="2"
     inkscape:pageopacity="0.0"
     inkscape:pagecheckerboard="0"
     inkscape:deskcolor="#d1d1d1"
     showgrid="false"
     inkscape:zoom="0.7578125"
     inkscape:cx="529.81443"
     inkscape:cy="512.65979"
     inkscape:window-width="1920"
     inkscape:window-height="991"
     inkscape:window-x="-9"
     inkscape:window-y="-9"
     inkscape:window-maximized="1"
     inkscape:current-layer="wallabag" />
  <defs
     id="defs7">
    <linearGradient
       id="linear-gradient"
       x1="110.25"
       y1="213.3"
       x2="496.14"
       y2="436.09"
       gradientUnits="userSpaceOnUse">
      <stop
         offset="0"
         stop-color="#aa5cc3"
         id="stop2" />
      <stop
         offset="1"
         stop-color="#00a4dc"
         id="stop4" />
    </linearGradient>
    <linearGradient
       inkscape:collect="always"
       xlink:href="#linear-gradient"
       id="linearGradient207"
       gradientUnits="userSpaceOnUse"
       x1="306.66275"
       y1="466.22775"
       x2="702.74402"
       y2="802.04773" />
    <linearGradient
       inkscape:collect="always"
       xlink:href="#linear-gradient"
       id="linearGradient209"
       gradientUnits="userSpaceOnUse"
       x1="328.89816"
       y1="477.34546"
       x2="702.74402"
       y2="798.34186" />
  </defs>
  <title
     id="title9">wallabag</title>
  <g
     id="g15"
     transform="matrix(1.944594,0,0,1.944594,-330.84295,-480.93328)">
    <path
       class="st0"
       d="m 435,404.2 c 6.3,-3.8 40,-21.8 94.3,0.7 55.9,23.1 90.6,3 94.9,0.3 -13.5,-22.2 -29.6,-41.6 -47.4,-54.6 1.2,-0.3 2.4,-0.7 3.7,-1 23.6,-6.8 29.6,-26.8 30.8,-43.9 1.4,-19.4 2.4,-19.7 6.6,-37.1 4,-16.8 -0.5,-20.1 -4.6,-16.7 -2.2,1.8 -21.7,6.3 -33.3,15.3 -18.7,14.6 -30.2,42.3 -35.4,57.6 -0.1,0.2 -0.8,2.4 -1,3.1 -2.4,5.9 -7.3,5.8 -7.3,5.8 -2.3,-0.3 -4.7,-0.4 -7.1,-0.4 -2.1,0 -4.2,0.1 -6.3,0.3 h -0.1 c -6.2,0.9 -9.6,-6.6 -10.3,-8.4 -7.2,-20.8 -26.7,-61.7 -70.4,-72.7 0,0 -7.9,-6.1 -5.5,4.2 2.3,9.8 7.1,19.8 6,34.2 -0.5,6.7 -4.6,40.9 26.8,58.7 3,1.7 5.6,3.1 8,4.3 -15.7,12.6 -30.1,30.3 -42.4,50.3 z M 641.4,717 c -38.5,-23.9 -51.5,-32.3 -50.7,-41.4 0,0 0,-1.5 0.4,-3.8 0.9,-4.8 3.9,-13.1 13.3,-17.8 0.3,-0.2 0.6,-0.3 0.8,-0.5 30,-17.4 51.9,-45.5 59.7,-80.5 -7.8,19.3 -65.5,34.4 -135.6,34.4 -70.1,0 -127.8,-15 -135.6,-34.4 1.7,7.9 4.2,15.4 7.3,22.5 2.6,14.7 6.1,49.2 -10.5,79.4 -14.6,26.6 -86.7,62.9 -193.7,42.1 0,0 -4.3,-3 -5.6,-0.5 -1.9,3.6 5.9,6.6 14,8.7 74.5,19.7 186.9,11.7 222.2,-17.4 16.1,-13.3 22.3,-31.1 23.9,-50.4 0,0 0.4,-5 6.7,-1.3 1.8,1.1 8.3,5.3 9.4,10.1 0.9,6.8 1,15.2 -2.6,21.1 -5,8.4 -5.1,9.6 1.5,14.3 4.1,2.9 20.7,15.1 43.8,29 0.1,0 0.1,0.1 0.2,0.1 4.9,2.9 11.7,10.2 11.7,10.2 10.4,12.1 33.1,36.3 42.9,31.7 4.7,-2.1 -0.2,-11.9 -0.2,-11.9 0,0 7.8,10.1 11.9,6.6 3.2,-2.6 -1.9,-12.6 -1.9,-12.6 0,0 6.8,5.9 10.8,3.7 4.9,-2.7 -0.7,-18.1 -39.4,-41.6 -38.7,-23.6 -49.2,-27.2 -50.2,-37.7 v -1.4 c 0.3,-2.3 1.6,-7.2 7.2,-6.7 8.4,1.4 17,2.1 25.9,2.1 10.1,0 20,-0.9 29.5,-2.7 0,0 0.5,-0.1 0.6,-0.1 1.1,-0.1 3.3,-0.1 3.3,2.6 -0.4,3.4 -1.3,6.9 -3.3,9.9 -5.7,8.5 -3.8,9.7 2.1,15.1 3.7,3.4 20.4,18.1 43.3,32.4 l 0.1,0.1 c 4.9,2.9 13.3,11 13.3,11 9.5,9.6 27,25.8 36.5,24.8 6.4,-0.7 1.2,-11.8 1.2,-11.8 0,0 8.1,7.9 12.1,5.5 4.5,-2.6 -1.9,-10.8 -1.9,-10.8 0,0 5.2,2.8 8.9,1.9 4.3,-0.7 5.3,-10.1 -33.3,-34 z"
       fill="url(#linear-gradient)"
       id="path11"
       style="fill:url(#linearGradient207)" />
    <path
       class="st0"
       d="m 598.4,447.3 c -4.6,0 -8.5,1.4 -11.4,4.1 -3,2.8 -4.5,6 -4.5,9.5 v 62.8 c 0,8.4 -1.5,14.6 -4.4,18.5 -2.9,3.7 -7.4,5.5 -13.9,5.5 -6.7,0 -11.2,-1.8 -13.9,-5.5 -2.8,-3.8 -4.2,-10.1 -4.2,-18.5 v -63.1 c 0,-4.3 -2,-7.8 -5.7,-10.2 -5,-3.2 -10.1,-4.3 -16.2,-2.3 -1.9,0.6 -3.6,1.4 -5.2,2.4 -1.7,1 -3.1,2.3 -4.3,3.9 -1.3,1.7 -1.9,3.5 -1.9,5.5 v 63.8 c 0,8.4 -1.4,14.7 -4.2,18.5 -2.7,3.7 -7.2,5.5 -13.9,5.5 -6.7,0 -11.3,-1.8 -14,-5.5 -2.9,-3.8 -4.3,-10.1 -4.3,-18.5 V 461 c 0,-3.6 -1.5,-6.8 -4.5,-9.5 -2.9,-2.7 -6.9,-4.1 -11.6,-4.1 -4.9,0 -9,1.4 -12.1,4.1 -3.2,2.8 -4.8,6 -4.8,9.6 V 523 c 0,7.8 0.8,15.1 2.3,21.9 1.5,6.9 4.2,12.9 8,17.9 3.8,5.1 8.9,9.1 15.3,11.9 6.3,2.8 14.2,4.2 23.4,4.2 9.6,0 17.7,-1.8 23.9,-5.3 5.3,-3 9.7,-6.8 13.2,-11.6 3.4,4.7 7.7,8.6 12.9,11.5 6.2,3.5 14.4,5.3 24.3,5.3 9.2,0 17.1,-1.4 23.3,-4.2 6.3,-2.8 11.4,-6.9 15.2,-11.9 3.8,-5 6.4,-11.1 8,-17.9 1.5,-6.7 2.3,-14.1 2.3,-21.9 V 461 c 0,-3.6 -1.6,-6.8 -4.6,-9.6 -3.3,-2.7 -7.4,-4.1 -12.5,-4.1 z"
       fill="url(#linear-gradient)"
       id="path13"
       style="fill:url(#linearGradient209)" />
  </g>
</svg>
